SplineFontDB: 3.2
FontName: SeriousShannsLightItalic
FullName: Serious Shanns Light Italic
FamilyName: Serious Shanns Light Italic
Weight: Light
Copyright: https://github.com/kaBeech/serious-sans/blob/main/LICENSE
Version: 6.0.0
ItalicAngle: -11.8
UnderlinePosition: 0
UnderlineWidth: 0
Ascent: 750
Descent: 250
InvalidEm: 0
sfntRevision: 0x00001999
LayerCount: 2
Layer: 0 0 "Back" 1
Layer: 1 0 "Fore" 0
XUID: [1021 329 -1817886000 6804199]
StyleMap: 0x0040
FSType: 0
OS2Version: 3
OS2_WeightWidthSlopeOnly: 0
OS2_UseTypoMetrics: 0
CreationTime: 1532631502
ModificationTime: 315532800
PfmFamily: 49
TTFWeight: 300
TTFWidth: 5
LineGap: 200
VLineGap: 0
Panose: 0 0 0 0 0 0 0 0 0 0
OS2TypoAscent: 750
OS2TypoAOffset: 0
OS2TypoDescent: -250
OS2TypoDOffset: 0
OS2TypoLinegap: 200
OS2WinAscent: 1000
OS2WinAOffset: 0
OS2WinDescent: 500
OS2WinDOffset: 0
HheadAscent: 750
HheadAOffset: 0
HheadDescent: -250
HheadDOffset: 0
OS2SubXSize: 317
OS2SubYSize: 293
OS2SubXOff: 0
OS2SubYOff: 37
OS2SupXSize: 317
OS2SupYSize: 293
OS2SupXOff: 0
OS2SupYOff: 171
OS2StrikeYSize: 0
OS2StrikeYPos: 132
OS2CapHeight: 650
OS2XHeight: 450
OS2Vendor: 'NONE'
OS2CodePages: 00000001.00000000
OS2UnicodeRanges: 00000001.00000000.00000000.00000000
MarkAttachClasses: 1
DEI: 91125
LangName: 1033 "" "" "Normal" "FontForge 2.0 : Serious Shanns Light Italic : 11-6-2024" "" "Version 0.1.2"
Encoding: UnicodeBmp
Compacted: 1
UnicodeInterp: none
NameList: AGL For New Fonts
DisplaySize: -48
AntiAlias: 1
FitToEm: 0
WinInfo: 64 16 4
BeginPrivate: 8
BlueValues 32 [-39 -6 490 521 685 718 765 769]
OtherBlues 11 [-304 -292]
BlueScale 9 0.0291667
BlueShift 1 3
StdHW 4 [67]
StdVW 4 [65]
StemSnapH 23 [61 62 63 65 67 94 130]
StemSnapV 14 [40 58 65 125]
EndPrivate
BeginChars: 65537 122

StartChar: .notdef
Encoding: 65536 -1 0
Width: 640
GlyphClass: 1
Flags: HMW
HStem: 688 20G<316.348 639.348 316.348 316.348>
LayerCount: 2
Fore
SplineSet
298.34765625 737 m 1
 671.34765625 737 l 1
 442.34765625 -255 l 1
 69.34765625 -255 l 1
 298.34765625 737 l 1
639.34765625 708 m 1
 316.34765625 708 l 1
 100.34765625 -226 l 1
 424.34765625 -226 l 1
 639.34765625 708 l 1
EndSplineSet
Validated: 1
EndChar

StartChar: exclam
Encoding: 33 33 11
Width: 640
GlyphClass: 2
Flags: HMW
HStem: -13 130<299.281 362.281>
VStem: 265.781 131<27.5 80.5>
LayerCount: 2
Fore
SplineSet
416.78125 274 m 0
 412.78125 262 406.78125 253 397.78125 247 c 0
 388.78125 241 380.78125 237 371.78125 237 c 2
 368.78125 237 l 2
 359.78125 237 353.78125 240 350.78125 245 c 0
 348.78125 247 347.78125 250 347.78125 254 c 0
 347.78125 258 348.78125 264 350.78125 272 c 0
 353.78125 281 356.78125 290 360.78125 300 c 0
 364.78125 310 367.78125 318 369.78125 325 c 0
 371.78125 332 374.78125 347 380.78125 371 c 0
 386.78125 395 392.78125 423 398.78125 454 c 0
 404.78125 485 410.78125 515 417.78125 544 c 0
 424.78125 573 429.78125 593 431.78125 603 c 0
 433.78125 613 439.78125 634 448.78125 668 c 0
 457.78125 702 462.78125 724 464.78125 732 c 0
 468.78125 747 475.78125 759 483.78125 766 c 0
 491.78125 773 501.78125 777 511.78125 777 c 2
 514.78125 777 l 2
 522.78125 777 528.78125 775 531.78125 771 c 0
 533.78125 769 534.78125 764 534.78125 759 c 0
 534.78125 754 532.78125 748 531.78125 742 c 0
 530.78125 736 518.78125 691 497.78125 609 c 0
 476.78125 527 460.78125 462 449.78125 411 c 0
 438.78125 360 431.78125 330 428.78125 320 c 0
 425.78125 310 420.78125 295 416.78125 274 c 0
396.78125 75 m 0
 396.78125 70 395.78125 64 394.78125 57 c 0
 390.78125 39 382.78125 24 367.78125 11 c 0
 352.78125 -2 334.78125 -10 313.78125 -12 c 0
 311.78125 -12 308.78125 -13 306.78125 -13 c 0
 291.78125 -13 280.78125 -7 273.78125 3 c 0
 267.78125 12 265.78125 22 265.78125 33 c 0
 265.78125 38 266.78125 44 267.78125 51 c 0
 272.78125 68 281.78125 83 298.78125 96 c 0
 317.78125 110 335.78125 117 354.78125 117 c 0
 369.78125 117 382.78125 112 389.78125 102 c 0
 394.78125 95 396.78125 86 396.78125 75 c 0
EndSplineSet
Validated: 1
EndChar

StartChar: quotedbl
Encoding: 34 34 12
Width: 640
GlyphClass: 2
Flags: HMW
HStem: 448 323<326.546 415.046 331.046 415.046 409.046 480.046 409.046 481.046>
LayerCount: 2
Fore
SplineSet
415.045898438 771 m 2
 423.045898438 771 430.045898438 769 436.045898438 765 c 0
 437.045898438 763 439.045898438 760 440.045898438 756 c 0
 441.045898438 752 441.045898438 748 440.045898438 741 c 0
 434.045898438 714 423.045898438 669 407.045898438 607 c 0
 391.045898438 545 380.045898438 502 372.045898438 479 c 0
 368.045898438 468 362.045898438 461 354.045898438 456 c 0
 346.045898438 451 339.045898438 448 332.045898438 448 c 2
 331.045898438 448 l 2
 322.045898438 448 314.045898438 452 308.045898438 457 c 0
 306.045898438 459 304.045898438 462 304.045898438 466 c 0
 304.045898438 470 305.045898438 474 306.045898438 478 c 0
 317.045898438 512 328.045898438 556 339.045898438 609 c 0
 350.045898438 662 359.045898438 706 366.045898438 741 c 0
 367.045898438 748 370.045898438 753 373.045898438 757 c 0
 376.045898438 762 380.045898438 765 384.045898438 766 c 0
 393.045898438 769 402.045898438 771 409.045898438 771 c 2
 415.045898438 771 l 2
557.045898438 607 m 0
 542.045898438 545 530.045898438 502 522.045898438 479 c 0
 518.045898438 468 512.045898438 461 504.045898438 456 c 0
 496.045898438 451 488.045898438 448 481.045898438 448 c 2
 480.045898438 448 l 2
 471.045898438 448 463.045898438 452 457.045898438 457 c 0
 455.045898438 459 454.045898438 463 454.045898438 466 c 0
 454.045898438 469 455.045898438 473 456.045898438 478 c 0
 466.045898438 512 477.045898438 556 488.045898438 609 c 0
 499.045898438 662 508.045898438 706 515.045898438 741 c 0
 516.045898438 748 519.045898438 753 523.045898438 757 c 0
 527.045898438 761 530.045898438 765 534.045898438 766 c 0
 543.045898438 769 551.045898438 771 558.045898438 771 c 2
 564.045898438 771 l 2
 569.045898438 771 573.045898438 771 576.045898438 770 c 0
 579.045898438 769 583.045898438 767 586.045898438 765 c 0
 589.045898438 763 590.045898438 758 590.045898438 751 c 0
 590.045898438 743 579.045898438 695 557.045898438 607 c 0
EndSplineSet
Validated: 1
EndChar

StartChar: numbersign
Encoding: 35 35 13
Width: 640
GlyphClass: 2
Flags: HMW
HStem: 205 57<498.476 536.476 475.476 555.476> 457 60<399.476 509.476 375.476 533.476 399.476 617.476 399.476 574.476>
LayerCount: 2
Fore
SplineSet
279.475585938 203 m 1
 270.475585938 203 l 1
 238.475585938 126 216.475585938 74 204.475585938 47 c 0
 197.475585938 36 188.475585938 26 175.475585938 18 c 0
 166.475585938 13 158.475585938 10 152.475585938 10 c 0
 150.475585938 10 146.475585938 11 144.475585938 12 c 0
 140.475585938 12 138.475585938 14 137.475585938 16 c 0
 135.475585938 20 133.475585938 26 133.475585938 34 c 0
 133.475585938 44 135.475585938 55 141.475585938 67 c 0
 150.475585938 86 172.475585938 131 203.475585938 202 c 1
 156.475585938 202 l 2
 144.475585938 202 136.475585938 204 132.475585938 208 c 0
 130.475585938 210 127.475585938 214 127.475585938 217 c 0
 127.475585938 218 128.475585938 221 128.475585938 223 c 0
 130.475585938 232 135.475585938 241 142.475585938 247 c 0
 149.475585938 253 161.475585938 257 174.475585938 257 c 0
 179.475585938 257 186.475585938 258 196.475585938 258 c 0
 206.475585938 258 215.475585938 260 226.475585938 260 c 1
 308.475585938 456 l 1
 289.475585938 456 l 1
 251.475585938 455 l 1
 247.475585938 455 l 2
 237.475585938 455 230.475585938 457 227.475585938 461 c 0
 225.475585938 464 224.475585938 468 224.475585938 473 c 2
 224.475585938 480 l 2
 225.475585938 489 230.475585938 497 238.475585938 503 c 0
 246.475585938 509 256.475585938 514 269.475585938 514 c 2
 270.475585938 514 l 2
 282.475585938 514 301.475585938 515 325.475585938 515 c 2
 332.475585938 515 l 1
 398.475585938 677 l 2
 405.475585938 692 415.475585938 702 424.475585938 707 c 0
 431.475585938 710 436.475585938 712 441.475585938 712 c 0
 443.475585938 712 448.475585938 711 450.475585938 711 c 0
 459.475585938 709 465.475585938 705 467.475585938 698 c 0
 468.475585938 696 469.475585938 692 469.475585938 689 c 0
 469.475585938 683 466.475585938 675 462.475585938 666 c 2
 399.475585938 517 l 1
 533.475585938 517 l 1
 594.475585938 670 l 2
 601.475585938 685 609.475585938 695 619.475585938 700 c 0
 625.475585938 703 631.475585938 705 637.475585938 705 c 0
 639.475585938 705 642.475585938 704 645.475585938 704 c 0
 654.475585938 702 661.475585938 698 663.475585938 691 c 0
 663.475585938 689 664.475585938 686 664.475585938 684 c 0
 664.475585938 677 663.475585938 669 658.475585938 659 c 0
 645.475585938 633 625.475585938 586 599.475585938 519 c 1
 618.475585938 519 l 1
 628.475585938 519 l 2
 639.475585938 519 649.475585938 515 654.475585938 509 c 0
 659.475585938 504 661.475585938 500 661.475585938 495 c 0
 661.475585938 494 660.475585938 492 660.475585938 491 c 0
 658.475585938 482 652.475585938 473 645.475585938 467 c 0
 638.475585938 461 629.475585938 457 617.475585938 457 c 2
 574.475585938 457 l 1
 498.475585938 262 l 1
 555.475585938 262 l 2
 565.475585938 262 571.475585938 260 572.475585938 258 c 0
 574.475585938 254 575.475585938 248 574.475585938 239 c 0
 572.475585938 228 566.475585938 219 561.475585938 214 c 0
 555.475585938 208 547.475585938 205 536.475585938 205 c 2
 475.475585938 205 l 1
 444.475585938 124 423.475585938 70 411.475585938 43 c 0
 404.475585938 31 394.475585938 22 382.475585938 16 c 0
 374.475585938 12 367.475585938 10 361.475585938 10 c 0
 359.475585938 10 354.475585938 11 351.475585938 12 c 0
 345.475585938 13 342.475585938 18 341.475585938 25 c 0
 341.475585938 28 340.475585938 32 340.475585938 34 c 0
 340.475585938 43 343.475585938 52 348.475585938 63 c 0
 361.475585938 90 381.475585938 137 408.475585938 204 c 1
 389.475585938 204 l 1
 279.475585938 203 l 1
509.475585938 457 m 1
 375.475585938 457 l 1
 293.475585938 261 l 1
 331.475585938 262 375.475585938 263 423.475585938 263 c 2
 431.475585938 263 l 1
 456.475585938 323 482.475585938 387 509.475585938 457 c 1
EndSplineSet
Validated: 1
EndChar

StartChar: dollar
Encoding: 36 36 14
Width: 640
GlyphClass: 2
Flags: HMW
HStem: -17 60<264.847 298.847 274.847 298.847 278.847 298.847>
VStem: 243.847 63 509.847 69<235 287>
LayerCount: 2
Fore
SplineSet
220.84765625 -8 m 0
 203.84765625 -2 190.84765625 4 179.84765625 13 c 0
 158.84765625 31 144.84765625 52 137.84765625 76 c 0
 136.84765625 82 135.84765625 89 135.84765625 95 c 0
 135.84765625 101 137.84765625 107 139.84765625 112 c 0
 143.84765625 121 149.84765625 127 158.84765625 131 c 0
 165.84765625 134 171.84765625 137 174.84765625 137 c 0
 177.84765625 137 181.84765625 138 182.84765625 138 c 2
 187.84765625 138 l 2
 188.84765625 138 190.84765625 135 192.84765625 133 c 0
 194.84765625 131 198.84765625 125 201.84765625 118 c 0
 210.84765625 96 221.84765625 77 236.84765625 64 c 0
 251.84765625 50 271.84765625 43 296.84765625 43 c 2
 298.84765625 43 l 1
 306.84765625 43 l 1
 333.84765625 161 356.84765625 268 376.84765625 365 c 1
 365.84765625 366 356.84765625 368 350.84765625 369 c 0
 344.84765625 370 338.84765625 371 334.84765625 371 c 0
 316.84765625 373 301.84765625 378 288.84765625 387 c 0
 275.84765625 396 265.84765625 406 258.84765625 419 c 0
 248.84765625 438 243.84765625 458 243.84765625 480 c 0
 243.84765625 487 244.84765625 494 246.84765625 503 c 0
 251.84765625 526 259.84765625 548 270.84765625 569 c 0
 280.84765625 590 293.84765625 610 309.84765625 628 c 0
 325.84765625 646 345.84765625 661 367.84765625 674 c 0
 389.84765625 687 414.84765625 697 441.84765625 702 c 2
 448.84765625 704 l 1
 453.84765625 725 459.84765625 747 464.84765625 769 c 0
 467.84765625 784 472.84765625 795 478.84765625 803 c 0
 484.84765625 811 490.84765625 815 499.84765625 815 c 2
 501.84765625 815 l 2
 508.84765625 815 513.84765625 814 515.84765625 811 c 0
 517.84765625 808 518.84765625 803 518.84765625 797 c 0
 518.84765625 791 516.84765625 785 515.84765625 778 c 2
 501.84765625 711 l 1
 514.84765625 710 l 2
 527.84765625 710 545.84765625 706 567.84765625 700 c 0
 589.84765625 694 605.84765625 689 616.84765625 684 c 0
 623.84765625 681 628.84765625 676 630.84765625 670 c 0
 630.84765625 668 631.84765625 664 631.84765625 660 c 0
 631.84765625 656 629.84765625 651 627.84765625 644 c 0
 626.84765625 639 624.84765625 634 620.84765625 631 c 0
 616.84765625 628 612.84765625 626 609.84765625 626 c 2
 600.84765625 626 l 2
 594.84765625 626 588.84765625 627 582.84765625 629 c 0
 577.84765625 630 571.84765625 634 564.84765625 638 c 0
 557.84765625 642 548.84765625 646 537.84765625 649 c 0
 526.84765625 652 512.84765625 655 497.84765625 655 c 2
 488.84765625 656 l 1
 475.84765625 596 457.84765625 518 436.84765625 421 c 1
 448.84765625 419 l 2
 472.84765625 415 492.84765625 408 509.84765625 399 c 0
 527.84765625 389 540.84765625 378 550.84765625 366 c 0
 560.84765625 354 567.84765625 341 571.84765625 326 c 0
 575.84765625 311 578.84765625 295 578.84765625 279 c 0
 578.84765625 263 576.84765625 247 571.84765625 227 c 0
 564.84765625 198 554.84765625 170 538.84765625 144 c 0
 522.84765625 118 505.84765625 96 485.84765625 76 c 0
 465.84765625 56 444.84765625 40 421.84765625 26 c 0
 398.84765625 12 374.84765625 1 349.84765625 -6 c 2
 343.84765625 -8 l 1
 334.84765625 -52 328.84765625 -82 326.84765625 -96 c 0
 322.84765625 -107 316.84765625 -117 308.84765625 -123 c 0
 300.84765625 -129 292.84765625 -132 283.84765625 -132 c 2
 282.84765625 -132 l 2
 280.84765625 -132 277.84765625 -131 275.84765625 -131 c 0
 272.84765625 -129 270.84765625 -125 270.84765625 -118 c 0
 270.84765625 -113 271.84765625 -106 273.84765625 -97 c 0
 278.84765625 -81 284.84765625 -54 292.84765625 -17 c 1
 278.84765625 -17 l 1
 274.84765625 -17 l 2
 254.84765625 -17 237.84765625 -14 220.84765625 -8 c 0
320.84765625 468 m 0
 333.84765625 450 352.84765625 437 378.84765625 429 c 2
 389.84765625 426 l 1
 401.84765625 480 417.84765625 555 437.84765625 651 c 1
 419.84765625 645 l 2
 391.84765625 636 367.84765625 623 347.84765625 603 c 0
 327.84765625 583 314.84765625 560 309.84765625 533 c 0
 307.84765625 526 306.84765625 520 306.84765625 513 c 0
 306.84765625 496 311.84765625 481 320.84765625 468 c 0
509.84765625 241 m 0
 509.84765625 253 507.84765625 266 502.84765625 281 c 0
 498.84765625 294 490.84765625 306 478.84765625 317 c 0
 466.84765625 328 451.84765625 338 432.84765625 346 c 2
 420.84765625 352 l 1
 417.84765625 338 l 1
 417.84765625 338 406.84765625 287 385.84765625 188 c 0
 373.84765625 133 363.84765625 88 355.84765625 53 c 1
 375.84765625 62 l 2
 407.84765625 76 435.84765625 95 459.84765625 120 c 0
 483.84765625 145 498.84765625 173 505.84765625 205 c 0
 507.84765625 217 509.84765625 229 509.84765625 241 c 0
EndSplineSet
Validated: 1
EndChar

StartChar: percent
Encoding: 37 37 15
Width: 640
GlyphClass: 2
Flags: HMW
HStem: -16 52<410.432 445.932 418.932 445.932> 184 49<473.432 474.432> 444 51<278.432 312.932 286.932 312.932> 645 48<342.432 346.932>
VStem: 221.932 41<522.5 546.5> 353.932 41<63.5 86.5> 384.932 41<589.5 628> 515.932 35<99 143> 515.932 45<129.5 169>
LayerCount: 2
Fore
SplineSet
244.932617188 461 m 0xfa
 233.932617188 472 225.932617188 486 223.932617188 503 c 0
 222.932617188 510 221.932617188 518 221.932617188 527 c 0
 221.932617188 536 222.932617188 548 225.932617188 561 c 0
 234.932617188 600 250.932617188 631 273.932617188 656 c 0
 296.932617188 681 325.932617188 693 358.932617188 693 c 0
 384.932617188 693 403.932617188 683 415.932617188 664 c 0
 422.932617188 653 425.932617188 638 425.932617188 618 c 0
 425.932617188 601 422.932617188 581 416.932617188 559 c 0
 407.932617188 521 391.932617188 493 370.932617188 473 c 0
 349.932617188 453 322.932617188 444 287.932617188 444 c 2
 286.932617188 444 l 2
 269.932617188 444 255.932617188 450 244.932617188 461 c 0xfa
121.932617188 12 m 0
 143.932617188 44 187.932617188 104 252.932617188 192 c 2
 447.932617188 470 l 2
 513.932617188 563 559.932617188 629 585.932617188 670 c 0
 593.932617188 680 602.932617188 686 612.932617188 688 c 0
 615.932617188 688 619.932617188 689 621.932617188 689 c 0
 626.932617188 689 630.932617188 687 635.932617188 684 c 0
 638.932617188 683 640.932617188 681 641.932617188 680 c 0
 642.932617188 679 643.932617188 675 643.932617188 673 c 0
 643.932617188 665 639.932617188 654 628.932617188 641 c 0
 595.932617188 600 519.932617188 497 401.932617188 330 c 0
 286.932617188 163 207.932617188 51 165.932617188 -9 c 0
 156.932617188 -21 148.932617188 -29 141.932617188 -34 c 0
 136.932617188 -37 131.932617188 -39 127.932617188 -39 c 0
 123.932617188 -39 120.932617188 -38 117.932617188 -36 c 0
 114.932617188 -34 110.932617188 -31 109.932617188 -29 c 0
 108.932617188 -27 107.932617188 -24 107.932617188 -21 c 0
 107.932617188 -12 112.932617188 -1 121.932617188 12 c 0
310.932617188 495 m 2
 312.932617188 495 l 2
 329.932617188 495 343.932617188 501 354.932617188 514 c 0
 365.932617188 527 374.932617188 543 380.932617188 563 c 0
 382.932617188 574 384.932617188 585 384.932617188 594 c 0
 384.932617188 605 383.932617188 615 378.932617188 623 c 0
 369.932617188 638 356.932617188 645 336.932617188 645 c 0
 319.932617188 645 304.932617188 638 292.932617188 623 c 0
 281.932617188 610 272.932617188 592 266.932617188 570 c 0
 264.932617188 560 262.932617188 551 262.932617188 542 c 0
 262.932617188 533 263.932617188 526 266.932617188 519 c 0
 273.932617188 505 288.932617188 497 310.932617188 495 c 2
376.932617188 1 m 0
 365.932617188 12 358.932617188 26 355.932617188 43 c 0
 354.932617188 50 353.932617188 59 353.932617188 68 c 0xfc80
 353.932617188 77 355.932617188 88 357.932617188 101 c 0
 365.932617188 140 382.932617188 171 405.932617188 196 c 0
 428.932617188 221 456.932617188 233 489.932617188 233 c 0
 502.932617188 233 514.932617188 231 523.932617188 226 c 0
 533.932617188 221 542.932617188 214 549.932617188 204 c 0
 556.932617188 194 560.932617188 179 560.932617188 159 c 0
 560.932617188 142 557.932617188 122 550.932617188 100 c 1xfd
 550.932617188 99 l 1
 539.932617188 61 523.932617188 32 502.932617188 12 c 0
 481.932617188 -7 454.932617188 -16 421.932617188 -16 c 2
 418.932617188 -16 l 2
 401.932617188 -16 387.932617188 -10 376.932617188 1 c 0
442.932617188 36 m 2
 445.932617188 36 l 2
 461.932617188 36 475.932617188 42 486.932617188 55 c 0
 497.932617188 68 506.932617188 83 511.932617188 103 c 0
 513.932617188 114 515.932617188 125 515.932617188 134 c 0
 515.932617188 152 511.932617188 165 500.932617188 174 c 0
 491.932617188 181 480.932617188 184 467.932617188 184 c 0
 450.932617188 184 436.932617188 176 424.932617188 162 c 0
 412.932617188 149 403.932617188 131 398.932617188 110 c 0
 396.932617188 100 394.932617188 91 394.932617188 82 c 0
 394.932617188 73 396.932617188 66 399.932617188 59 c 0
 406.932617188 45 420.932617188 37 442.932617188 36 c 2
EndSplineSet
Validated: 1
EndChar

StartChar: ampersand
Encoding: 38 38 16
Width: 640
GlyphClass: 2
Flags: HMW
HStem: -29 69 657 55
VStem: 118.865 71<105.001 142.501> 296.866 64<541.001 542.001> 463.866 71<8.00098 34>
LayerCount: 2
Fore
SplineSet
530.866210938 5 m 0
 525.866210938 -11 518.866210938 -20.9990234375 510.866210938 -23.9990234375 c 0
 505.866210938 -25.9990234375 501.866210938 -27.9990234375 497.866210938 -27.9990234375 c 0
 492.866210938 -27.9990234375 488.866210938 -25.9990234375 484.866210938 -23.9990234375 c 0
 475.866210938 -17.9990234375 468.866210938 -6.9990234375 463.866210938 8.0009765625 c 0
 463.866210938 12.0009765625 461.866210938 22.0009765625 459.866210938 38.0009765625 c 0
 457.866210938 54.0009765625 455.866210938 65.0009765625 453.866210938 73.0009765625 c 2
 448.866210938 97.0009765625 l 1
 432.866210938 79.0009765625 l 2
 430.866210938 77.0009765625 425.866210938 70.0009765625 417.866210938 62.0009765625 c 2
 399.866210938 44.0009765625 l 2
 380.866210938 25.0009765625 367.866210938 13.0009765625 359.866210938 8.0009765625 c 0
 353.866210938 4.0009765625 345.866210938 0.0009765625 336.866210938 -5.9990234375 c 0
 327.866210938 -11.9990234375 318.866210938 -16.9990234375 310.866210938 -18.9990234375 c 0
 302.866210938 -20.9990234375 293.866210938 -23.9990234375 282.866210938 -25.9990234375 c 0
 271.866210938 -27.9990234375 261.866210938 -28.9990234375 251.866210938 -28.9990234375 c 0
 219.866210938 -28.9990234375 192.866210938 -19.9990234375 170.866210938 -2.9990234375 c 0
 148.866210938 14.0009765625 132.866210938 37.0009765625 124.866210938 66.0009765625 c 0
 120.866210938 81.0009765625 118.866210938 97.0009765625 118.866210938 113.000976562 c 0
 118.866210938 129.000976562 120.866210938 145.000976562 124.866210938 162.000976562 c 0
 152.866210938 284.000976562 217.866210938 367.000976562 321.866210938 411.000976562 c 2
 332.866210938 416.000976562 l 1
 316.866210938 460.000976562 307.866210938 486.000976562 305.866210938 491.000976562 c 0
 303.866210938 497.000976562 301.866210938 505.000976562 299.866210938 513.000976562 c 0
 297.866210938 521.000976562 296.866210938 528.000976562 296.866210938 533.000976562 c 0
 296.866210938 551.000976562 298.866210938 569.000976562 302.866210938 587.000976562 c 0
 307.866210938 609.000976562 318.866210938 632.000976562 336.866210938 653.000976562 c 0
 345.866210938 664.000976562 356.866210938 675.000976562 368.866210938 683.000976562 c 0
 380.866210938 691.000976562 395.866210938 698.000976562 413.866210938 704.000976562 c 0
 431.866210938 710.000976562 449.866210938 712.000976562 470.866210938 712.000976562 c 0
 487.866210938 712.000976562 503.866210938 710.000976562 517.866210938 704.000976562 c 0
 531.866210938 698.000976562 543.866210938 690.000976562 553.866210938 680.000976562 c 0
 563.866210938 670.000976562 569.866210938 657.000976562 573.866210938 640.000976562 c 0
 575.754882812 631.974609375 576.751953125 623.279296875 576.751953125 614.020507812 c 0
 576.751953125 603.668945312 575.505859375 592.61328125 572.866210938 581 c 0
 567.866210938 561 560.866210938 542 551.866210938 525 c 0
 542.866210938 508 533.866210938 493 523.866210938 481 c 0
 513.866210938 469 501.866210938 458 487.866210938 447 c 0
 473.866210938 436 460.866210938 427 449.866210938 421 c 0
 438.866210938 415 426.866210938 409 411.866210938 402 c 2
 402.866210938 397 l 1
 405.866210938 387 l 2
 412.866210938 366 424.866210938 335 441.866210938 294 c 0
 458.866210938 253 469.866210938 227 474.866210938 214 c 2
 482.866210938 191 l 1
 497.866210938 213 509.866210938 232 517.866210938 244 c 0
 525.866210938 256 532.866210938 266 537.866210938 273 c 0
 542.866210938 280 546.866210938 286 548.866210938 289 c 0
 562.866210938 305 573.866210938 315 582.866210938 318 c 0
 584.866210938 319 588.866210938 320 590.866210938 320 c 0
 594.866210938 320 598.866210938 318 603.866210938 316 c 0
 608.866210938 313 610.866210938 307 610.866210938 300 c 0
 610.866210938 287 603.866210938 272 592.866210938 255 c 0
 588.866210938 249 576.866210938 236 556.866210938 215 c 0
 536.866210938 194 517.866210938 174 500.866210938 153 c 1
 505.866210938 137 512.866210938 116 519.866210938 93 c 0
 526.866210938 70 530.866210938 55 531.866210938 50 c 0
 532.866210938 45 534.866210938 38 534.866210938 30 c 0
 534.866210938 22 532.866210938 14 530.866210938 5 c 0
449.866210938 657.000976562 m 0
 424.866210938 657.000976562 404.866210938 648.000976562 389.866210938 631.000976562 c 0
 377.866210938 617.000976562 368.866210938 598.000976562 363.866210938 575.000976562 c 0
 361.866210938 566.000976562 360.866210938 556.000976562 360.866210938 546.000976562 c 0
 360.866210938 536.000976562 361.866210938 526.000976562 363.866210938 515.000976562 c 0
 366.866210938 493.000976562 373.866210938 474.000976562 382.866210938 458.000976562 c 2
 387.866210938 450.000976562 l 1
 397.866210938 453.000976562 l 2
 412.866210938 458.000976562 426.866210938 463.000976562 437.866210938 468.000976562 c 0
 448.866210938 473.000976562 459.866210938 480.000976562 470.866210938 489.000976562 c 0
 481.866210938 498.000976562 491.866210938 508.000976562 498.866210938 521.000976562 c 0
 505.866210938 534.000976562 511.866210938 550.000976562 515.866210938 567.000976562 c 0
 517.866210938 576.000976562 519.866210938 585.000976562 519.866210938 593.000976562 c 0
 519.866210938 610.000976562 514.866210938 623.000976562 505.866210938 634.000976562 c 0
 491.866210938 649.000976562 472.866210938 657.000976562 449.866210938 657.000976562 c 0
202.866210938 82.0009765625 m 0
 217.866210938 54.0009765625 242.866210938 40.0009765625 275.866210938 40.0009765625 c 0
 290.866210938 40.0009765625 307.866210938 43.0009765625 327.866210938 49.0009765625 c 0
 334.866210938 51.0009765625 342.866210938 56.0009765625 350.866210938 61.0009765625 c 0
 358.866210938 66.0009765625 363.866210938 69.0009765625 368.866210938 72.0009765625 c 0
 373.866210938 75.0009765625 378.866210938 80.0009765625 385.866210938 87.0009765625 c 0
 392.866210938 94.0009765625 398.866210938 99.0009765625 400.866210938 102.000976562 c 0
 402.866210938 105.000976562 407.866210938 109.000976562 413.866210938 116.000976562 c 0
 419.866210938 123.000976562 423.866210938 127.000976562 424.866210938 128.000976562 c 2
 429.866210938 133.000976562 l 1
 423.866210938 163.000976562 418.866210938 186.000976562 414.866210938 201.000976562 c 0
 409.866210938 217.000976562 399.866210938 242.000976562 385.866210938 277.000976562 c 0
 371.866210938 312.000976562 361.866210938 337.000976562 355.866210938 354.000976562 c 2
 350.866210938 366.000976562 l 1
 338.866210938 361.000976562 l 2
 317.866210938 352.000976562 298.866210938 341.000976562 281.866210938 327.000976562 c 0
 264.866210938 313.000976562 250.866210938 298.000976562 239.866210938 282.000976562 c 0
 228.866210938 266.000976562 219.866210938 249.000976562 212.866210938 232.000976562 c 0
 205.866210938 215.000976562 200.866210938 197.000976562 195.866210938 177.000976562 c 0
 191.866210938 162.000976562 189.866210938 149.000976562 189.866210938 136.000976562 c 0
 189.866210938 115.000976562 193.866210938 97.0009765625 202.866210938 82.0009765625 c 0
EndSplineSet
Validated: 1
EndChar

StartChar: quotesingle
Encoding: 39 39 17
Width: 640
GlyphClass: 2
Flags: HMW
HStem: 458 302<407.354 486.354 407.354 486.354>
LayerCount: 2
Fore
SplineSet
487.353515625 760 m 2
 495.353515625 760 502.353515625 758 508.353515625 754 c 0
 509.353515625 753 511.353515625 750 512.353515625 746 c 0
 513.353515625 742 512.353515625 737 511.353515625 730 c 0
 505.353515625 704 496.353515625 663 482.353515625 608 c 0
 468.353515625 553 457.353515625 513 449.353515625 490 c 0
 445.353515625 479 439.353515625 470 431.353515625 465 c 0
 423.353515625 460 416.353515625 458 409.353515625 458 c 2
 407.353515625 458 l 2
 397.353515625 459 389.353515625 463 384.353515625 468 c 0
 382.353515625 470 381.353515625 473 381.353515625 477 c 0
 381.353515625 481 382.353515625 484 383.353515625 489 c 0
 393.353515625 524 403.353515625 563 413.353515625 609 c 0
 423.353515625 655 432.353515625 696 439.353515625 731 c 0
 439.353515625 737 441.353515625 743 445.353515625 747 c 0
 449.353515625 751 453.353515625 754 457.353515625 755 c 0
 466.353515625 758 474.353515625 760 481.353515625 760 c 2
 486.353515625 760 l 1
 487.353515625 760 l 2
EndSplineSet
Validated: 1
EndChar

StartChar: parenleft
Encoding: 40 40 18
Width: 640
GlyphClass: 2
Flags: HMW
HStem: -119 60<359.692 402.192> 745 57<567.692 600.692>
VStem: 232.192 71<140.5 147.5>
LayerCount: 2
Fore
SplineSet
398.192382812 -59 m 0
 406.192382812 -59 411.192382812 -61 413.192382812 -64 c 0
 414.192382812 -65 416.192382812 -67 416.192382812 -71 c 0
 416.192382812 -75 414.192382812 -81 413.192382812 -90 c 0
 411.192382812 -98 407.192382812 -104 399.192382812 -110 c 0
 391.192382812 -116 384.192382812 -119 378.192382812 -119 c 0
 341.192382812 -119 310.192382812 -105 286.192382812 -76 c 0
 261.192382812 -45 245.192382812 -3 237.192382812 52 c 0
 234.192382812 77 232.192382812 103 232.192382812 130 c 0
 232.192382812 165 234.192382812 203 240.192382812 244 c 0
 247.192382812 293 263.192382812 356 287.192382812 433 c 0
 311.192382812 510 337.192382812 574 366.192382812 623 c 0
 379.192382812 644 394.192382812 666 412.192382812 687 c 0
 430.192382812 708 449.192382812 727 470.192382812 744 c 0
 491.192382812 761 513.192382812 775 535.192382812 786 c 0
 557.192382812 797 577.192382812 802 597.192382812 802 c 0
 604.192382812 802 609.192382812 801 611.192382812 799 c 0
 613.192382812 797 615.192382812 793 615.192382812 788 c 0
 615.192382812 785 615.192382812 781 614.192382812 776 c 0
 612.192382812 765 607.192382812 757 600.192382812 752 c 0
 593.192382812 747 586.192382812 745 577.192382812 745 c 0
 558.192382812 745 541.192382812 740 523.192382812 729 c 0
 505.192382812 718 488.192382812 703 473.192382812 685 c 0
 444.192382812 651 419.192382812 609 397.192382812 558 c 0
 380.192382812 523 363.192382812 475 346.192382812 414 c 0
 329.192382812 353 318.192382812 304 312.192382812 268 c 0
 306.192382812 232 303.192382812 197 303.192382812 164 c 0
 303.192382812 117 308.192382812 76 317.192382812 41 c 0
 324.192382812 12 335.192382812 -11 348.192382812 -29 c 0
 363.192382812 -49 379.192382812 -59 398.192382812 -59 c 0
EndSplineSet
Validated: 1
EndChar

StartChar: parenright
Encoding: 41 41 19
Width: 640
GlyphClass: 2
Flags: HMW
HStem: -119 60<201.056 205.056> 745 57<383.056 413.056>
VStem: 485.556 65<551.5 571>
LayerCount: 2
Fore
SplineSet
550.555664062 571 m 0
 550.555664062 532 546.555664062 488 539.555664062 438 c 0
 528.555664062 361 514.555664062 298 498.555664062 250 c 0
 475.555664062 177 447.555664062 113 413.555664062 57 c 0
 379.555664062 1 343.555664062 -42 303.555664062 -73 c 0
 263.555664062 -104 224.555664062 -119 185.555664062 -119 c 0
 180.555664062 -119 175.555664062 -117 171.555664062 -112 c 0
 169.555664062 -110 168.555664062 -106 168.555664062 -102 c 2
 168.555664062 -96 l 2
 171.555664062 -81 176.555664062 -71 182.555664062 -66 c 0
 188.555664062 -61 196.555664062 -59 205.555664062 -59 c 0
 222.555664062 -59 242.555664062 -50 264.555664062 -31 c 0
 285.555664062 -14 305.555664062 10 326.555664062 38 c 0
 347.555664062 66 366.555664062 99 386.555664062 139 c 0
 406.555664062 179 421.555664062 218 434.555664062 259 c 0
 446.555664062 297 458.555664062 348 469.555664062 410 c 0
 480.555664062 472 485.555664062 522 485.555664062 560 c 0
 485.555664062 582 484.555664062 603 481.555664062 624 c 0
 478.555664062 645 473.555664062 663 466.555664062 682 c 0
 459.555664062 701 449.555664062 716 435.555664062 728 c 0
 421.555664062 740 405.555664062 745 386.555664062 745 c 0
 379.555664062 745 373.555664062 747 369.555664062 751 c 0
 367.555664062 753 366.555664062 755 366.555664062 759 c 0
 366.555664062 763 367.555664062 768 368.555664062 773 c 0
 369.555664062 778 372.555664062 784 375.555664062 788 c 0
 378.555664062 792 381.555664062 795 383.555664062 796 c 0
 390.555664062 800 396.555664062 802 403.555664062 802 c 0
 422.555664062 802 440.555664062 797 457.555664062 787 c 0
 474.555664062 777 488.555664062 764 500.555664062 747 c 0
 512.555664062 730 523.555664062 711 531.555664062 690 c 0
 539.555664062 669 545.555664062 648 547.555664062 627 c 0
 549.555664062 610 550.555664062 592 550.555664062 571 c 0
EndSplineSet
Validated: 1
EndChar

StartChar: asterisk
Encoding: 42 42 20
Width: 640
GlyphClass: 2
Flags: HMW
HStem: 305 80<191.901 214.401> 313 71<580.401 600.901> 319 52<483.901 493.901 442.401 511.401>
VStem: 310.401 62 410.401 66<145 173>
LayerCount: 2
Fore
SplineSet
436.400390625 129 m 0x98
 429.400390625 129 423.400390625 131 418.400390625 134 c 0
 416.400390625 135 413.400390625 137 412.400390625 139 c 0
 411.400390625 141 410.400390625 144 410.400390625 146 c 0
 409.400390625 173 402.400390625 213 389.400390625 264 c 2
 382.400390625 290 l 1
 367.400390625 268 l 2
 323.400390625 206 295.400390625 165 284.400390625 145 c 0
 281.400390625 139 276.400390625 134 271.400390625 131 c 0
 266.400390625 129 260.400390625 126 255.400390625 126 c 2
 249.400390625 126 l 2
 247.400390625 126 243.400390625 126 239.400390625 127 c 0
 235.400390625 128 230.400390625 130 228.400390625 132 c 0
 226.400390625 134 223.400390625 137 222.400390625 141 c 0
 221.400390625 145 220.400390625 148 220.400390625 151 c 2
 220.400390625 159 l 2
 220.400390625 166 224.400390625 173 230.400390625 182 c 2
 334.400390625 312 l 1
 307.400390625 311 l 2
 256.400390625 307 218.400390625 305 194.400390625 305 c 0
 189.400390625 305 184.400390625 307 181.400390625 308 c 0
 178.400390625 309 175.400390625 312 173.400390625 315 c 0
 170.400390625 320 168.400390625 325 168.400390625 331 c 2
 170.400390625 341 l 2
 170.400390625 346 172.400390625 351 174.400390625 356 c 0
 181.400390625 369 188.400390625 378 197.400390625 382 c 0
 202.400390625 384 206.400390625 385 211.400390625 385 c 2
 214.400390625 385 l 2
 242.400390625 383 289.400390625 379 356.400390625 374 c 1
 350.400390625 391 l 2
 335.400390625 440 321.400390625 477 310.400390625 503 c 0
 308.400390625 509 307.400390625 515 307.400390625 521 c 0
 307.400390625 527 308.400390625 534 310.400390625 540 c 0
 314.400390625 551 320.400390625 559 328.400390625 562 c 0
 334.400390625 566 340.400390625 568 346.400390625 568 c 0
 351.400390625 568 357.400390625 566 362.400390625 562 c 0
 367.400390625 558 371.400390625 552 372.400390625 545 c 0
 375.400390625 529 386.400390625 483 406.400390625 406 c 1
 422.400390625 426 l 2
 457.400390625 471 485.400390625 509 505.400390625 540 c 0
 510.400390625 549 517.400390625 556 524.400390625 560 c 0
 531.400390625 564 538.400390625 566 543.400390625 566 c 0
 548.400390625 566 553.400390625 564 556.400390625 561 c 2
 557.400390625 561 l 2
 559.400390625 560 562.400390625 557 563.400390625 552 c 0
 563.400390625 550 564.400390625 546 564.400390625 543 c 0
 564.400390625 530 560.400390625 518 550.400390625 507 c 0
 523.400390625 476 491.400390625 437 456.400390625 390 c 2
 442.400390625 371 l 1x38
 466.400390625 371 l 2
 521.400390625 371 562.400390625 375 588.400390625 382 c 0
 592.400390625 383 596.400390625 384 598.400390625 384 c 0x58
 603.400390625 384 607.400390625 381 609.400390625 378 c 0
 613.400390625 373 616.400390625 367 616.400390625 362 c 0
 616.400390625 357 614.400390625 350 610.400390625 341 c 0
 603.400390625 328 596.400390625 319 588.400390625 315 c 0
 586.400390625 314 583.400390625 313 581.400390625 313 c 0
 579.400390625 313 577.400390625 314 576.400390625 314 c 0
 560.400390625 317 532.400390625 319 490.400390625 319 c 0x38
 477.400390625 319 458.400390625 318 433.400390625 318 c 1
 474.400390625 187 l 2
 475.400390625 182 476.400390625 176 476.400390625 170 c 0
 476.400390625 164 475.400390625 159 473.400390625 154 c 0
 470.400390625 145 465.400390625 138 459.400390625 134 c 0
 453.400390625 130 445.400390625 129 436.400390625 129 c 0x98
EndSplineSet
Validated: 1
EndChar

StartChar: plus
Encoding: 43 43 21
Width: 640
GlyphClass: 2
Flags: HMW
HStem: 370 59<354.64 383.64 354.64 383.64>
LayerCount: 2
Fore
SplineSet
260.639648438 369 m 2
 249.639648438 369 241.639648438 371 239.639648438 376 c 0
 237.639648438 379 235.639648438 383 235.639648438 388 c 0
 235.639648438 390 236.639648438 394 236.639648438 397 c 0
 238.639648438 407 243.639648438 415 250.639648438 422 c 0
 257.639648438 428 265.639648438 431 276.639648438 431 c 2
 279.639648438 431 l 2
 322.639648438 430 353.639648438 429 373.639648438 429 c 2
 383.639648438 429 l 1
 392.639648438 469 401.639648438 508 408.639648438 547 c 0
 409.639648438 557 413.639648438 565 418.639648438 570 c 0
 425.639648438 577 434.639648438 580 446.639648438 580 c 2
 449.639648438 580 l 2
 456.639648438 580 462.639648438 578 466.639648438 575 c 0
 467.639648438 574 468.639648438 571 468.639648438 567 c 0
 468.639648438 563 467.639648438 559 465.639648438 553 c 0
 454.639648438 514 444.639648438 472 433.639648438 427 c 1
 551.639648438 427 l 2
 561.639648438 427 567.639648438 425 568.639648438 423 c 0
 569.639648438 421 571.639648438 418 571.639648438 413 c 0
 571.639648438 406 569.639648438 398 566.639648438 391 c 0
 564.639648438 387 561.639648438 383 558.639648438 379 c 0
 553.639648438 373 546.639648438 370 537.639648438 370 c 2
 537.639648438 370 535.639648438 371 533.639648438 371 c 0
 523.639648438 371 509.639648438 372 489.639648438 372 c 0
 469.639648438 372 446.639648438 371 419.639648438 371 c 1
 414.639648438 347 408.639648438 323 403.639648438 298 c 0
 398.639648438 273 394.639648438 258 393.639648438 253 c 0
 390.639648438 240 385.639648438 232 380.639648438 227 c 0
 374.639648438 223 367.639648438 220 359.639648438 220 c 0
 352.639648438 220 347.639648438 221 344.639648438 223 c 0
 341.639648438 225 340.639648438 229 340.639648438 235 c 0
 340.639648438 239 340.639648438 243 341.639648438 248 c 2
 369.639648438 370 l 1
 354.639648438 370 l 1
 260.639648438 369 l 2
EndSplineSet
Validated: 1
EndChar

StartChar: comma
Encoding: 44 44 22
Width: 640
GlyphClass: 2
Flags: HMW
VStem: 196.297 234
LayerCount: 2
Fore
SplineSet
196.296875 -185 m 2
 196.296875 -182 l 2
 196.296875 -176 199.296875 -169 206.296875 -161 c 0
 224.296875 -140 253.296875 -95 292.296875 -27 c 0
 331.296875 41 356.296875 89 367.296875 116 c 0
 369.296875 123 375.296875 129 381.296875 133 c 0
 387.296875 137 393.296875 139 398.296875 139 c 2
 399.296875 139 l 2
 405.296875 139 411.296875 138 416.296875 137 c 0
 421.296875 135 426.296875 131 428.296875 125 c 0
 429.296875 123 430.296875 120 430.296875 117 c 0
 430.296875 114 428.296875 108 426.296875 101 c 0
 413.296875 68 388.296875 19 352.296875 -48 c 0
 316.296875 -115 291.296875 -157 277.296875 -172 c 0
 265.296875 -185 252.296875 -195 237.296875 -200 c 0
 229.296875 -202 222.296875 -204 216.296875 -204 c 0
 213.296875 -204 209.296875 -203 207.296875 -202 c 0
 204.296875 -201 201.296875 -198 199.296875 -196 c 0
 197.296875 -193 196.296875 -189 196.296875 -185 c 2
EndSplineSet
Validated: 1
EndChar

StartChar: hyphen
Encoding: 45 45 23
Width: 640
GlyphClass: 2
Flags: HMW
HStem: 255 62<262.372 302.372> 264 56<471.872 499.372>
LayerCount: 2
Fore
SplineSet
284.872070312 317 m 0x80
 319.872070312 317 361.872070312 317 410.872070312 318 c 0
 459.872070312 319 487.872070312 320 494.872070312 320 c 0x40
 503.872070312 320 509.872070312 318 511.872070312 316 c 0
 513.872070312 312 514.872070312 306 513.872070312 298 c 0
 511.872070312 287 505.872070312 278 500.872070312 273 c 0
 494.872070312 267 486.872070312 264 475.872070312 264 c 0
 467.872070312 264 435.872070312 262 380.872070312 259 c 0
 325.872070312 256 286.872070312 255 265.872070312 255 c 0
 258.872070312 255 252.872070312 256 249.872070312 258 c 0
 246.872070312 260 245.872070312 264 245.872070312 270 c 0
 245.872070312 274 246.872070312 278 247.872070312 283 c 0
 248.872070312 294 252.872070312 303 257.872070312 308 c 0
 264.872070312 314 273.872070312 317 284.872070312 317 c 0x80
EndSplineSet
Validated: 1
EndChar

StartChar: period
Encoding: 46 46 24
Width: 640
GlyphClass: 2
Flags: HMW
HStem: -2 130<300.475 364.475 307.975 364.475>
VStem: 267.975 131<37.5 90.5>
LayerCount: 2
Fore
SplineSet
398.974609375 85 m 0
 398.974609375 80 397.974609375 74 396.974609375 68 c 0
 392.974609375 49 384.974609375 34 369.974609375 21 c 0
 354.974609375 8 336.974609375 0 315.974609375 -2 c 2
 307.974609375 -2 l 2
 292.974609375 -2 282.974609375 3 275.974609375 13 c 0
 270.974609375 22 267.974609375 32 267.974609375 43 c 0
 267.974609375 49 268.974609375 55 269.974609375 61 c 0
 273.974609375 79 284.974609375 94 301.974609375 107 c 0
 320.974609375 121 337.974609375 128 356.974609375 128 c 0
 371.974609375 128 383.974609375 123 390.974609375 113 c 0
 395.974609375 105 398.974609375 96 398.974609375 85 c 0
EndSplineSet
Validated: 1
EndChar

StartChar: slash
Encoding: 47 47 25
Width: 640
GlyphClass: 2
Flags: W
LayerCount: 2
Fore
SplineSet
86.94140625 -31 m 0
 86.94140625 -28 87.94140625 -24 87.94140625 -20 c 0
 89.94140625 -3 97.94140625 12 108.94140625 27 c 0
 236.94140625 187 346.94140625 329 439.94140625 454 c 0
 498.94140625 530 561.94140625 617 628.94140625 714 c 0
 635.94140625 723 641.94140625 730 649.94140625 734 c 0
 657.94140625 738 664.94140625 741 670.94140625 741 c 0
 676.94140625 741 681.94140625 739 687.94140625 737 c 0
 693.94140625 733 697.94140625 727 697.94140625 719 c 0
 697.94140625 710 690.94140625 698 681.94140625 683 c 0
 657.94140625 649 593.94140625 566 488.94140625 433 c 0
 383.94140625 300 319.94140625 218 296.94140625 185 c 0
 281.94140625 164 257.94140625 129 223.94140625 80 c 0
 189.94140625 31 168.94140625 1 160.94140625 -10 c 0
 147.94140625 -27 132.94140625 -38 117.94140625 -45 c 0
 110.94140625 -47 105.94140625 -49 101.94140625 -49 c 0
 97.94140625 -49 93.94140625 -48 91.94140625 -46 c 2
 90.94140625 -46 l 2
 88.94140625 -44 86.94140625 -38 86.94140625 -31 c 0
EndSplineSet
Validated: 1
EndChar

StartChar: zero
Encoding: 48 48 26
Width: 640
GlyphClass: 2
Flags: HMW
HStem: -12 60<306.334 306.834> 649 57<465.334 466.334>
VStem: 158.334 77<133.5 211>
LayerCount: 2
Fore
SplineSet
169.333984375 211 m 0
 170.333984375 218 173.333984375 235 179.333984375 261 c 0
 185.333984375 287 190.333984375 308 194.333984375 324 c 0
 198.333984375 340 204.333984375 361 211.333984375 388 c 0
 218.333984375 415 225.333984375 438 231.333984375 458 c 0
 237.333984375 478 245.333984375 500 255.333984375 522 c 0
 265.333984375 544 274.333984375 565 283.333984375 582 c 0
 305.333984375 623 333.333984375 653 368.333984375 674 c 0
 403.333984375 695 443.333984375 706 487.333984375 706 c 0
 509.333984375 706 530.333984375 702 548.333984375 693 c 0
 566.333984375 684 581.333984375 671 593.333984375 655 c 0
 605.333984375 639 613.333984375 618 618.333984375 591 c 0
 620.333984375 578 621.333984375 564 621.333984375 548 c 0
 621.333984375 532 619.333984375 516 617.333984375 496 c 0
 612.333984375 463 604.333984375 425 595.333984375 383 c 0
 586.333984375 341 575.333984375 298 563.333984375 256 c 0
 551.333984375 214 540.333984375 181 529.333984375 159 c 0
 509.333984375 117 489.333984375 82 469.333984375 57 c 0
 460.333984375 45 452.333984375 34 441.333984375 26 c 0
 430.333984375 18 420.333984375 11 410.333984375 6 c 0
 400.333984375 1 389.333984375 -3 377.333984375 -5 c 0
 365.333984375 -7 353.333984375 -10 341.333984375 -11 c 0
 329.333984375 -12 315.333984375 -12 298.333984375 -12 c 0
 273.333984375 -12 250.333984375 -7 229.333984375 3 c 0
 208.333984375 13 193.333984375 27 181.333984375 46 c 0
 169.333984375 65 161.333984375 88 159.333984375 116 c 0
 159.333984375 123 158.333984375 130 158.333984375 137 c 0
 158.333984375 159 162.333984375 184 169.333984375 211 c 0
371.333984375 616 m 0
 348.333984375 594 327.333984375 559 307.333984375 511 c 0
 300.333984375 494 293.333984375 473 287.333984375 451 c 0
 281.333984375 429 274.333984375 402 267.333984375 370 c 0
 260.333984375 338 255.333984375 315 253.333984375 302 c 2
 239.333984375 232 l 2
 239.333984375 230 237.333984375 226 237.333984375 221 c 0
 237.333984375 216 235.333984375 212 235.333984375 210 c 2
 220.333984375 160 l 1
 256.333984375 198 l 1
 358.333984375 321 453.333984375 447 544.333984375 576 c 1
 549.333984375 581 l 1
 546.333984375 588 l 2
 537.333984375 608 525.333984375 622 509.333984375 633 c 0
 494.333984375 644 476.333984375 649 456.333984375 649 c 0
 423.333984375 649 394.333984375 638 371.333984375 616 c 0
359.333984375 53 m 0
 372.333984375 56 386.333984375 61 399.333984375 70 c 0
 426.333984375 86 449.333984375 117 470.333984375 162 c 0
 474.333984375 171 481.333984375 194 491.333984375 230 c 0
 502.333984375 266 514.333984375 307 526.333984375 354 c 0
 538.333984375 401 546.333984375 446 553.333984375 489 c 2
 561.333984375 542 l 1
 531.333984375 498 l 1
 438.333984375 352 341.333984375 230 237.333984375 131 c 1
 232.333984375 127 l 1
 233.333984375 120 l 2
 238.333984375 93 249.333984375 74 266.333984375 62 c 0
 279.333984375 53 296.333984375 48 316.333984375 48 c 0
 332.333984375 48 346.333984375 50 359.333984375 53 c 0
EndSplineSet
Validated: 1
EndChar

StartChar: one
Encoding: 49 49 27
Width: 640
GlyphClass: 2
Flags: HMW
HStem: 3 67
LayerCount: 2
Fore
SplineSet
530.346679688 47 m 2
 530.346679688 40 l 2
 528.346679688 29 523.346679688 21 516.346679688 14 c 0
 509.346679688 7 498.346679688 3 483.346679688 3 c 0
 280.346679688 5 165.346679688 7 143.346679688 7 c 0
 134.346679688 7 129.346679688 9 127.346679688 13 c 0
 125.346679688 16 123.346679688 19 123.346679688 23 c 0
 123.346679688 27 125.346679688 31 125.346679688 35 c 0
 127.346679688 46 130.346679688 55 137.346679688 62 c 0
 144.346679688 69 153.346679688 72 164.346679688 72 c 0
 192.346679688 72 240.346679688 71 307.346679688 70 c 1
 314.346679688 103 320.346679688 129 322.346679688 146 c 0
 322.346679688 151 325.346679688 168 331.346679688 197 c 2
 345.346679688 262 l 2
 347.346679688 275 354.346679688 300 362.346679688 336 c 0
 370.346679688 372 377.346679688 399 381.346679688 417 c 0
 396.346679688 481 411.346679688 549 431.346679688 620 c 1
 404.346679688 598 l 2
 357.346679688 558 323.346679688 534 303.346679688 525 c 0
 301.346679688 524 299.346679688 523 297.346679688 523 c 0
 293.346679688 523 288.346679688 527 284.346679688 532 c 0
 279.346679688 539 278.346679688 545 278.346679688 551 c 0
 278.346679688 553 279.346679688 555 279.346679688 557 c 0
 280.346679688 566 283.346679688 574 288.346679688 581 c 0
 293.346679688 588 300.346679688 595 311.346679688 604 c 0
 330.346679688 619 349.346679688 636 370.346679688 653 c 2
 417.346679688 692 l 2
 428.346679688 699 438.346679688 705 447.346679688 710 c 0
 456.346679688 715 463.346679688 718 468.346679688 718 c 0
 477.346679688 718 486.346679688 713 495.346679688 704 c 0
 502.346679688 697 507.346679688 691 507.346679688 686 c 2
 507.346679688 685 l 1
 507.346679688 685 493.346679688 633 466.346679688 529 c 0
 439.346679688 430 424.346679688 373 421.346679688 357 c 0
 407.346679688 290 395.346679688 234 386.346679688 190 c 0
 381.346679688 165 373.346679688 124 364.346679688 67 c 1
 389.346679688 67 423.346679688 66 463.346679688 65 c 0
 485.346679688 65 500.346679688 64 506.346679688 64 c 0
 512.346679688 64 518.346679688 63 521.346679688 62 c 0
 524.346679688 61 527.346679688 59 527.346679688 58 c 0
 529.346679688 56 530.346679688 52 530.346679688 47 c 2
EndSplineSet
Validated: 1
EndChar

StartChar: two
Encoding: 50 50 28
Width: 640
GlyphClass: 2
Flags: HMW
HStem: -5 59 0 64<485.989 491.989> 650 60<465.489 477.489>
VStem: 557.989 68<578.5 582>
LayerCount: 2
Fore
SplineSet
307.989257812 -5 m 0xb0
 280.989257812 -6 251.989257812 -7 220.989257812 -7 c 0
 189.989257812 -7 165.989257812 -6 148.989257812 -4 c 0
 144.989257812 -4 142.989257812 -1 140.989257812 1 c 0
 137.989257812 5 134.989257812 12 134.989257812 23 c 0
 134.989257812 38 139.989257812 57 144.989257812 81 c 0
 151.989257812 108 162.989257812 137 180.989257812 167 c 0
 198.989257812 197 221.989257812 227 250.989257812 256 c 0
 277.989257812 284 304.989257812 307 333.989257812 324 c 0
 402.989257812 365 449.989257812 393 470.989257812 409 c 0
 499.989257812 431 521.989257812 456 534.989257812 482 c 0
 541.989257812 496 548.989257812 514 553.989257812 536 c 0
 555.989257812 549 557.989257812 560 557.989257812 571 c 0
 557.989257812 593 551.989257812 610 539.989257812 623 c 0
 522.989257812 641 494.989257812 650 459.989257812 650 c 0
 435.989257812 650 412.989257812 642 387.989257812 625 c 0
 362.989257812 608 342.989257812 590 326.989257812 569 c 0
 313.989257812 553 303.989257812 544 297.989257812 544 c 2
 293.989257812 544 l 2
 292.989257812 544 290.989257812 544 288.989257812 545 c 0
 286.989257812 546 281.989257812 549 276.989257812 551 c 0
 271.989257812 554 270.989257812 559 270.989257812 566 c 0
 270.989257812 572 276.989257812 584 285.989257812 603 c 0
 292.989257812 615 302.989257812 627 315.989257812 639 c 0
 328.989257812 651 343.989257812 662 360.989257812 673 c 0
 377.989257812 684 396.989257812 693 416.989257812 700 c 0
 436.989257812 707 455.989257812 710 474.989257812 710 c 0
 536.989257812 710 578.989257812 695 603.989257812 664 c 0
 618.989257812 645 625.989257812 620 625.989257812 588 c 0
 625.989257812 569 623.989257812 548 618.989257812 525 c 0
 605.989257812 472 582.989257812 430 550.989257812 398 c 0
 526.989257812 374 488.989257812 347 437.989257812 318 c 0
 421.989257812 308 401.989257812 296 374.989257812 281 c 0
 344.989257812 265 317.989257812 246 295.989257812 223 c 0
 273.989257812 200 256.989257812 176 243.989257812 151 c 0
 230.989257812 127 218.989257812 101 210.989257812 73 c 2
 206.989257812 58 l 1
 253.989257812 56 293.989257812 54 326.989257812 54 c 0
 351.989257812 54 370.989257812 55 386.989257812 56 c 0
 402.989257812 57 415.989257812 58 426.989257812 59 c 0
 437.989257812 60 456.989257812 62 485.989257812 64 c 2x70
 494.989257812 64 l 2
 498.989257812 64 502.989257812 65 506.989257812 65 c 0
 510.989257812 65 514.989257812 64 516.989257812 64 c 0
 517.989257812 63 519.989257812 61 521.989257812 60 c 2
 521.989257812 56 l 1
 521.989257812 52 l 2
 521.989257812 45 519.989257812 37 516.989257812 29 c 0
 513.989257812 21 507.989257812 14 501.989257812 8 c 0
 497.989257812 3 493.989257812 0 489.989257812 0 c 0
 449.989257812 0 390.989257812 -1 307.989257812 -5 c 0xb0
EndSplineSet
Validated: 1
EndChar

StartChar: three
Encoding: 51 51 29
Width: 640
GlyphClass: 2
Flags: HMW
HStem: -12 60<315.957 337.957> 330 76<345.957 366.457> 650 60<443.957 457.957>
VStem: 483.457 74<214.5 271> 545.457 69<584.5 585.5>
LayerCount: 2
Fore
SplineSet
550.45703125 201 m 0xf0
 535.45703125 136 505.45703125 84 461.45703125 45 c 0
 419.45703125 7 368.45703125 -12 307.45703125 -12 c 0
 288.45703125 -12 270.45703125 -9 252.45703125 -2 c 0
 234.45703125 4 219.45703125 12 206.45703125 22 c 0
 193.45703125 32 182.45703125 44 173.45703125 56 c 0
 164.45703125 68 158.45703125 80 156.45703125 91 c 0
 155.45703125 96 154.45703125 101 154.45703125 107 c 0
 154.45703125 113 156.45703125 119 158.45703125 125 c 0
 163.45703125 135 169.45703125 142 177.45703125 146 c 0
 185.45703125 150 192.45703125 152 197.45703125 152 c 0
 199.45703125 152 202.45703125 151 204.45703125 151 c 0
 211.45703125 149 216.45703125 143 221.45703125 132 c 0
 230.45703125 110 244.45703125 90 264.45703125 73 c 0
 282.45703125 56 303.45703125 48 328.45703125 48 c 0
 364.45703125 48 396.45703125 60 424.45703125 84 c 0
 452.45703125 108 471.45703125 140 479.45703125 179 c 0
 481.45703125 194 483.45703125 208 483.45703125 221 c 0
 483.45703125 248 477.45703125 271 462.45703125 289 c 0
 440.45703125 316 397.45703125 330 335.45703125 330 c 0
 332.45703125 330 328.45703125 332 326.45703125 333 c 0
 324.45703125 334 321.45703125 337 319.45703125 341 c 0
 316.45703125 346 314.45703125 352 314.45703125 359 c 0
 314.45703125 361 315.45703125 365 315.45703125 368 c 0
 317.45703125 380 322.45703125 389 328.45703125 396 c 0
 334.45703125 403 341.45703125 406 350.45703125 406 c 0
 399.45703125 406 440.45703125 418 473.45703125 442 c 0
 509.45703125 466 532.45703125 501 541.45703125 546 c 0
 543.45703125 557 545.45703125 566 545.45703125 575 c 0xe8
 545.45703125 596 538.45703125 612 523.45703125 625 c 0
 503.45703125 642 476.45703125 650 439.45703125 650 c 0
 427.45703125 650 414.45703125 647 400.45703125 642 c 0
 395.45703125 640 389.45703125 636 383.45703125 632 c 0
 377.45703125 628 372.45703125 624 369.45703125 622 c 0
 366.45703125 620 362.45703125 614 356.45703125 608 c 2
 343.45703125 595 l 2
 341.45703125 593 337.45703125 587 332.45703125 580 c 0
 321.45703125 567 312.45703125 560 305.45703125 558 c 0
 303.45703125 558 301.45703125 557 299.45703125 557 c 0
 294.45703125 557 290.45703125 559 285.45703125 562 c 0
 283.45703125 564 280.45703125 566 279.45703125 568 c 0
 278.45703125 570 278.45703125 574 278.45703125 577 c 0
 278.45703125 588 283.45703125 600 292.45703125 615 c 0
 307.45703125 640 328.45703125 662 354.45703125 680 c 0
 367.45703125 689 383.45703125 697 400.45703125 702 c 0
 417.45703125 707 434.45703125 710 453.45703125 710 c 0
 517.45703125 710 563.45703125 695 589.45703125 666 c 0
 606.45703125 648 614.45703125 624 614.45703125 593 c 0
 614.45703125 576 611.45703125 556 606.45703125 535 c 0
 602.45703125 516 596.45703125 500 588.45703125 485 c 0
 580.45703125 470 571.45703125 458 561.45703125 448 c 0
 551.45703125 438 540.45703125 429 527.45703125 421 c 0
 514.45703125 413 502.45703125 408 490.45703125 403 c 0
 479.45703125 398 467.45703125 394 454.45703125 392 c 2
 406.45703125 381 l 1
 454.45703125 368 l 2
 475.45703125 363 492.45703125 356 506.45703125 348 c 0
 520.45703125 340 532.45703125 330 541.45703125 317 c 0
 552.45703125 302 557.45703125 283 557.45703125 259 c 0
 557.45703125 242 555.45703125 222 550.45703125 201 c 0xf0
EndSplineSet
Validated: 1
EndChar

StartChar: four
Encoding: 52 52 30
Width: 640
GlyphClass: 2
Flags: HMW
HStem: 236 55<348.087 452.587 439.587 440.587>
VStem: 396.587 50 396.587 63<17 62 19 62>
LayerCount: 2
Fore
SplineSet
403.586914062 -1 m 0xa0
 398.586914062 5 396.586914062 11 396.586914062 17 c 2
 396.586914062 19 l 1
 401.586914062 40 409.586914062 78 420.586914062 134 c 2
 440.586914062 236 l 1
 388.586914062 236 l 2
 307.586914062 236 247.586914062 232 206.586914062 223 c 0
 202.586914062 223 198.586914062 222 195.586914062 222 c 0
 192.586914062 222 188.586914062 222 186.586914062 223 c 0
 182.586914062 225 179.586914062 228 177.586914062 231 c 0
 175.586914062 238 173.586914062 246 173.586914062 255 c 0
 173.586914062 260 175.586914062 266 176.586914062 274 c 0
 177.586914062 282 180.586914062 290 184.586914062 297 c 0
 195.586914062 315 218.586914062 345 255.586914062 387 c 0
 290.586914062 429 332.586914062 480 382.586914062 542 c 0
 432.586914062 604 470.586914062 650 494.586914062 679 c 0
 504.586914062 690 514.586914062 699 524.586914062 705 c 0
 534.586914062 711 543.586914062 713 550.586914062 713 c 2
 551.586914062 713 l 1
 557.586914062 713 l 2
 564.586914062 713 571.586914062 711 576.586914062 708 c 0
 581.586914062 705 583.586914062 699 583.586914062 691 c 2
 583.586914062 691 582.586914062 689 582.586914062 688 c 0
 581.586914062 665 575.586914062 629 566.586914062 581 c 0
 557.586914062 533 549.586914062 491 542.586914062 458 c 2
 506.586914062 291 l 1
 527.586914062 291 544.586914062 290 557.586914062 290 c 0
 567.586914062 290 573.586914062 287 575.586914062 285 c 0
 577.586914062 281 577.586914062 275 576.586914062 267 c 0
 574.586914062 256 569.586914062 247 564.586914062 242 c 0
 558.586914062 235 550.586914062 232 538.586914062 232 c 0
 526.586914062 232 511.586914062 233 494.586914062 234 c 1
 472.586914062 129 459.586914062 69 459.586914062 55 c 0
 459.586914062 36 454.586914062 20 446.586914062 7 c 0xc0
 439.586914062 -5 431.586914062 -11 422.586914062 -11 c 0
 415.586914062 -11 409.586914062 -8 403.586914062 -1 c 0xa0
521.586914062 640 m 1
 493.586914062 610 l 1
 384.586914062 481 306.586914062 380 260.586914062 308 c 2
 246.586914062 287 l 1
 271.586914062 289 l 2
 303.586914062 291 342.586914062 292 386.586914062 292 c 0
 404.586914062 292 426.586914062 291 452.586914062 291 c 1
 481.586914062 423 501.586914062 526 514.586914062 600 c 2
 521.586914062 640 l 1
EndSplineSet
Validated: 1
EndChar

StartChar: five
Encoding: 53 53 31
Width: 640
GlyphClass: 2
Flags: HMW
HStem: -6 60<304.027 321.027> 433 64<425.527 486.027> 633 62<593.027 651.027 635.527 651.027> 639 61
VStem: 518.527 70<327 379.5>
LayerCount: 2
Fore
SplineSet
581.526367188 299 m 0xd8
 570.526367188 250 554.526367188 207 534.526367188 168 c 0
 515.526367188 129 493.526367188 97 470.526367188 72 c 0
 447.526367188 47 421.526367188 27 393.526367188 14 c 0
 365.526367188 1 336.526367188 -6 305.526367188 -6 c 0
 281.526367188 -6 258.526367188 -3 238.526367188 3 c 0
 217.526367188 9 201.526367188 17 189.526367188 26 c 0
 177.526367188 35 169.526367188 45 162.526367188 56 c 0
 155.526367188 67 149.526367188 78 146.526367188 89 c 0
 145.526367188 96 145.526367188 102 145.526367188 108 c 0
 145.526367188 114 145.526367188 121 147.526367188 126 c 0
 151.526367188 134 158.526367188 140 167.526367188 145 c 0
 178.526367188 150 186.526367188 152 190.526367188 152 c 0
 191.526367188 152 193.526367188 151 195.526367188 151 c 0
 197.526367188 151 200.526367188 150 201.526367188 148 c 0
 203.526367188 144 206.526367188 138 209.526367188 131 c 0
 220.526367188 103 236.526367188 83 257.526367188 70 c 0
 274.526367188 59 293.526367188 54 314.526367188 54 c 0
 359.526367188 54 401.526367188 75 437.526367188 117 c 0
 472.526367188 159 497.526367188 213 512.526367188 282 c 0
 516.526367188 302 518.526367188 319 518.526367188 335 c 0
 518.526367188 356 514.526367188 374 507.526367188 389 c 0
 500.526367188 405 490.526367188 417 475.526367188 424 c 0
 463.526367188 430 449.526367188 433 433.526367188 433 c 0
 417.526367188 433 400.526367188 430 383.526367188 426 c 0
 373.526367188 424 361.526367188 418 345.526367188 409 c 0
 341.526367188 407 335.526367188 403 328.526367188 398 c 0
 321.526367188 393 316.526367188 389 314.526367188 387 c 0
 312.526367188 385 303.526367188 376 288.526367188 363 c 0
 277.526367188 354 264.526367188 348 250.526367188 347 c 0
 249.526367188 347 248.526367188 346 247.526367188 346 c 0
 242.526367188 346 237.526367188 348 232.526367188 350 c 0
 225.526367188 353 222.526367188 364 222.526367188 383 c 0
 222.526367188 396 224.526367188 412 228.526367188 432 c 0
 232.526367188 452 237.526367188 473 243.526367188 494 c 0
 249.526367188 515 256.526367188 538 263.526367188 563 c 0
 270.526367188 588 274.526367188 606 276.526367188 619 c 1
 275.526367188 623 l 2
 273.526367188 627 272.526367188 632 272.526367188 638 c 0
 272.526367188 640 273.526367188 644 273.526367188 646 c 0
 273.526367188 656 276.526367188 665 280.526367188 673 c 0
 284.526367188 681 288.526367188 687 294.526367188 692 c 0
 300.526367188 697 306.526367188 700 311.526367188 700 c 0
 332.526367188 700 380.526367188 699 458.526367188 698 c 0
 539.526367188 697 602.526367188 696 646.526367188 696 c 0
 647.526367188 696 649.526367188 695 650.526367188 695 c 0xe8
 651.526367188 695 652.526367188 693 652.526367188 692 c 0
 654.526367188 687 656.526367188 682 656.526367188 676 c 2
 656.526367188 672 l 2
 656.526367188 664 653.526367188 657 651.526367188 650 c 0
 650.526367188 647 648.526367188 644 647.526367188 642 c 0
 646.526367188 640 644.526367188 637 642.526367188 636 c 0
 640.526367188 635 638.526367188 633 636.526367188 633 c 0
 634.526367188 633 630.526367188 631 627.526367188 631 c 2
 620.526367188 631 l 2
 619.526367188 631 615.526367188 632 610.526367188 632 c 0
 605.526367188 632 600.526367188 633 595.526367188 633 c 0
 590.526367188 633 577.526367188 634 556.526367188 636 c 0
 535.526367188 638 516.526367188 640 500.526367188 641 c 0
 484.526367188 642 463.526367188 643 434.526367188 643 c 0
 405.526367188 643 371.526367188 641 334.526367188 639 c 1
 331.526367188 626 326.526367188 604 318.526367188 572 c 0
 310.526367188 540 305.526367188 517 302.526367188 502 c 0
 299.526367188 487 293.526367188 454 283.526367188 403 c 1
 308.526367188 430 l 2
 328.526367188 450 351.526367188 465 380.526367188 478 c 0
 409.526367188 491 441.526367188 497 474.526367188 497 c 0
 497.526367188 497 517.526367188 492 533.526367188 482 c 0
 551.526367188 473 562.526367188 459 571.526367188 442 c 0
 582.526367188 421 588.526367188 395 588.526367188 364 c 0
 588.526367188 343 586.526367188 321 581.526367188 299 c 0xd8
EndSplineSet
Validated: 1
EndChar

StartChar: six
Encoding: 54 54 32
Width: 640
GlyphClass: 2
Flags: HMW
HStem: -10 60<301.332 335.832> 405 64<399.332 466.332>
VStem: 167.832 58<186.5 192> 510.832 71<299 358>
LayerCount: 2
Fore
SplineSet
569.83203125 248 m 0
 561.83203125 213 547.83203125 178 528.83203125 146 c 0
 509.83203125 114 488.83203125 86 465.83203125 64 c 0
 444.83203125 42 421.83203125 23 395.83203125 10 c 0
 369.83203125 -3 343.83203125 -10 317.83203125 -10 c 0
 284.83203125 -10 255.83203125 -3 232.83203125 12 c 0
 209.83203125 27 193.83203125 48 183.83203125 75 c 0
 173.83203125 102 167.83203125 134 167.83203125 171 c 0
 167.83203125 213 174.83203125 260 187.83203125 313 c 0
 200.83203125 370 217.83203125 421 238.83203125 465 c 0
 259.83203125 509 281.83203125 547 303.83203125 578 c 0
 324.83203125 609 348.83203125 635 374.83203125 656 c 0
 400.83203125 677 428.83203125 693 456.83203125 704 c 0
 486.83203125 715 519.83203125 722 556.83203125 725 c 2
 563.83203125 725 l 2
 572.83203125 725 580.83203125 723 585.83203125 720 c 0
 587.83203125 719 588.83203125 716 589.83203125 714 c 0
 590.83203125 712 591.83203125 709 591.83203125 708 c 2
 591.83203125 704 l 2
 591.83203125 699 586.83203125 692 577.83203125 684 c 0
 568.83203125 676 560.83203125 670 551.83203125 668 c 0
 544.83203125 667 533.83203125 664 518.83203125 661 c 0
 503.83203125 658 490.83203125 654 479.83203125 651 c 0
 469.83203125 648 457.83203125 643 444.83203125 637 c 0
 417.83203125 624 387.83203125 601 356.83203125 567 c 0
 340.83203125 549 324.83203125 525 307.83203125 494 c 0
 290.83203125 463 277.83203125 436 268.83203125 412 c 2
 250.83203125 362 l 1
 288.83203125 399 l 2
 309.83203125 422 334.83203125 440 362.83203125 452 c 0
 390.83203125 464 421.83203125 469 453.83203125 469 c 0
 478.83203125 469 500.83203125 466 519.83203125 458 c 0
 538.83203125 450 551.83203125 438 562.83203125 421 c 0
 575.83203125 401 581.83203125 375 581.83203125 341 c 0
 581.83203125 314 577.83203125 283 569.83203125 248 c 0
326.83203125 378 m 0
 297.83203125 360 270.83203125 337 246.83203125 309 c 2
 244.83203125 307 l 1
 236.83203125 276 230.83203125 251 228.83203125 232 c 0
 226.83203125 221 225.83203125 209 225.83203125 197 c 0
 225.83203125 176 228.83203125 156 234.83203125 136 c 0
 239.83203125 120 245.83203125 105 254.83203125 92 c 0
 263.83203125 79 274.83203125 69 289.83203125 61 c 0
 302.83203125 54 317.83203125 50 333.83203125 50 c 2
 335.83203125 50 l 2
 357.83203125 50 381.83203125 59 403.83203125 78 c 0
 425.83203125 97 445.83203125 119 462.83203125 147 c 0
 481.83203125 175 493.83203125 203 500.83203125 232 c 0
 507.83203125 262 510.83203125 288 510.83203125 310 c 0
 510.83203125 335 505.83203125 355 495.83203125 369 c 0
 485.83203125 382 473.83203125 392 460.83203125 397 c 0
 447.83203125 402 432.83203125 405 413.83203125 405 c 0
 384.83203125 405 355.83203125 396 326.83203125 378 c 0
EndSplineSet
Validated: 1
EndChar

StartChar: seven
Encoding: 55 55 33
Width: 640
GlyphClass: 2
Flags: HMW
HStem: 634 68
LayerCount: 2
Fore
SplineSet
642.108398438 631 m 0
 629.108398438 611 606.108398438 581 574.108398438 541 c 0
 543.108398438 501 510.108398438 459 479.108398438 417 c 0
 448.108398438 375 408.108398438 319 361.108398438 249 c 0
 314.108398438 179 267.108398438 107 220.108398438 33 c 0
 209.108398438 16 198.108398438 4 186.108398438 -3 c 0
 177.108398438 -8 170.108398438 -11 163.108398438 -11 c 2
 158.108398438 -11 l 2
 154.108398438 -10 150.108398438 -7 148.108398438 -4 c 0
 146.108398438 -1 145.108398438 3 145.108398438 9 c 0
 145.108398438 15 148.108398438 24 154.108398438 37 c 0
 201.108398438 105 250.108398438 173 299.108398438 241 c 0
 346.108398438 309 386.108398438 362 417.108398438 403 c 0
 448.108398438 444 475.108398438 483 502.108398438 522 c 0
 529.108398438 561 550.108398438 592 563.108398438 616 c 2
 571.108398438 633 l 1
 551.108398438 634 l 2
 526.108398438 634.5 500.608398438 634.75 474.233398438 634.75 c 0
 447.858398438 634.75 420.608398438 634.5 392.108398438 634 c 0
 335.108398438 633 297.108398438 629 277.108398438 624 c 0
 275.108398438 624 273.108398438 623 272.108398438 623 c 0
 271.108398438 623 269.108398438 624 268.108398438 624 c 0
 266.108398438 625 263.108398438 628 262.108398438 630 c 0
 260.108398438 637 258.108398438 646 259.108398438 658 c 0
 261.108398438 666 266.108398438 673 271.108398438 679 c 0
 276.108398438 685 283.108398438 690 296.108398438 692 c 0
 327.108398438 699 379.108398438 702 449.108398438 702 c 0
 471.108398438 702 516.108398438 700 582.108398438 697 c 0
 614.108398438 696 631.108398438 695 633.108398438 695 c 0
 643.108398438 695 650.108398438 691 655.108398438 682 c 0
 656.108398438 680 658.108398438 676 658.108398438 673 c 0
 658.108398438 670 657.108398438 667 657.108398438 665 c 0
 656.108398438 656 651.108398438 644 642.108398438 631 c 0
EndSplineSet
Validated: 1
EndChar

StartChar: eight
Encoding: 56 56 34
Width: 640
GlyphClass: 2
Flags: HMW
HStem: -16 61<316.405 320.905> 658 48<433.405 473.405 447.905 473.405>
VStem: 148.905 58<122.5 164> 255.905 60 505.905 67<217.5 249.5> 544.905 62<550 586>
LayerCount: 2
Fore
SplineSet
572.905273438 244 m 0xf8
 572.905273438 233 570.905273438 221 567.905273438 207 c 0
 557.905273438 163 537.905273438 122 506.905273438 85 c 0
 489.905273438 65 473.905273438 49 454.905273438 34 c 0
 435.905273438 19 413.905273438 7 387.905273438 -2 c 0
 361.905273438 -11 334.905273438 -16 306.905273438 -16 c 0
 277.905273438 -16 251.905273438 -12 230.905273438 -3 c 0
 209.905273438 6 192.905273438 16 181.905273438 29 c 0
 170.905273438 42 161.905273438 58 156.905273438 77 c 0
 151.905273438 96 148.905273438 113 148.905273438 132 c 0
 148.905273438 151 150.905273438 172 155.905273438 194 c 0
 160.905273438 215 170.905273438 237 186.905273438 262 c 0
 202.905273438 287 223.905273438 310 247.905273438 331 c 0
 269.905273438 353 293.905273438 368 315.905273438 376 c 2
 339.905273438 384 l 1
 317.905273438 398 l 2
 293.905273438 413 276.905273438 432 266.905273438 457 c 0
 259.905273438 473 255.905273438 489 255.905273438 505 c 0
 255.905273438 514 256.905273438 523 258.905273438 531 c 0
 260.905273438 539 263.905273438 547 266.905273438 556 c 0
 268.905273438 565 273.905273438 574 279.905273438 586 c 0
 285.905273438 598 290.905273438 609 297.905273438 620 c 0
 304.905273438 631 314.905273438 641 325.905273438 652 c 0
 336.905273438 663 347.905273438 672 360.905273438 680 c 0
 373.905273438 688 388.905273438 694 406.905273438 699 c 0
 424.905273438 704 442.905273438 706 462.905273438 706 c 0
 483.905273438 706 501.905273438 704 519.905273438 699 c 0
 537.905273438 694 551.905273438 688 561.905273438 681 c 0
 571.905273438 674 579.905273438 664 586.905273438 654 c 0
 593.905273438 644 599.905273438 634 601.905273438 624 c 0
 604.905273438 611 606.905273438 595 606.905273438 577 c 0xf4
 606.905273438 563 604.905273438 548 601.905273438 533 c 0
 600.905273438 526 597.905273438 519 594.905273438 512 c 0
 591.905273438 505 587.905273438 499 583.905273438 493 c 0
 579.905273438 487 573.905273438 481 567.905273438 475 c 0
 561.905273438 469 555.905273438 464 550.905273438 459 c 0
 542.905273438 452 526.905273438 441 503.905273438 426 c 2
 458.905273438 396 l 1
 476.905273438 386 l 2
 495.905273438 376 511.905273438 365 524.905273438 352 c 0
 537.905273438 339 547.905273438 327 554.905273438 315 c 0
 561.905273438 303 566.905273438 292 568.905273438 279 c 0
 570.905273438 266 572.905273438 255 572.905273438 244 c 0xf8
504.905273438 638 m 0
 487.905273438 651 469.905273438 658 448.905273438 658 c 2
 447.905273438 658 l 2
 418.905273438 658 392.905273438 646 366.905273438 622 c 0
 340.905273438 598 324.905273438 570 318.905273438 541 c 0
 316.905273438 534 315.905273438 527 315.905273438 521 c 0
 315.905273438 502 321.905273438 486 333.905273438 471 c 0
 348.905273438 453 374.905273438 435 411.905273438 417 c 2
 415.905273438 415 l 1
 419.905273438 416 l 1
 446.905273438 428 471.905273438 444 495.905273438 465 c 0
 522.905273438 486 537.905273438 506 541.905273438 526 c 0
 543.905273438 535 544.905273438 545 544.905273438 555 c 0
 544.905273438 565 542.905273438 576 539.905273438 587 c 0
 533.905273438 608 521.905273438 625 504.905273438 638 c 0
216.905273438 114 m 0
 227.905273438 92 242.905273438 74 263.905273438 63 c 0
 283.905273438 51 304.905273438 45 327.905273438 45 c 0
 344.905273438 45 361.905273438 49 379.905273438 55 c 0
 397.905273438 61 414.905273438 70 430.905273438 81 c 0
 446.905273438 92 460.905273438 107 473.905273438 126 c 0
 486.905273438 145 495.905273438 165 500.905273438 186 c 0
 503.905273438 199 505.905273438 212 505.905273438 223 c 0xf8
 505.905273438 233 503.905273438 244 500.905273438 257 c 0
 497.905273438 270 492.905273438 282 484.905273438 294 c 0
 477.905273438 306 466.905273438 318 452.905273438 330 c 0
 438.905273438 342 421.905273438 353 400.905273438 363 c 2
 397.905273438 365 l 1
 393.905273438 364 l 2
 349.905273438 351 310.905273438 328 277.905273438 295 c 0
 241.905273438 262 218.905273438 227 209.905273438 189 c 0
 207.905273438 179 206.905273438 169 206.905273438 159 c 0
 206.905273438 143 209.905273438 128 216.905273438 114 c 0
EndSplineSet
Validated: 1
EndChar

StartChar: nine
Encoding: 57 57 35
Width: 640
GlyphClass: 2
Flags: HMW
HStem: 248 64<334.433 398.433> 667 60<442.433 487.933 453.433 487.933>
VStem: 214.433 68<412.5 427> 563.433 57<522.5 530.5>
LayerCount: 2
Fore
SplineSet
597.432617188 382 m 0
 584.432617188 330 567.432617188 283 546.432617188 241 c 0
 525.432617188 199 501.432617188 162 477.432617188 133 c 0
 454.432617188 104 428.432617188 79 400.432617188 58 c 0
 372.432617188 37 343.432617188 22 313.432617188 11 c 0
 281.432617188 0 247.432617188 -7 210.432617188 -10 c 0
 208.432617188 -10 206.432617188 -11 204.432617188 -11 c 0
 195.432617188 -11 188.432617188 -8 182.432617188 -5 c 0
 180.432617188 -4 177.432617188 -2 176.432617188 0 c 0
 175.432617188 2 175.432617188 6 175.432617188 10 c 0
 175.432617188 16 180.432617188 22 188.432617188 30 c 0
 196.432617188 38 206.432617188 44 215.432617188 46 c 0
 222.432617188 48 233.432617188 51 249.432617188 55 c 0
 265.432617188 59 281.432617188 62 294.432617188 65 c 0
 305.432617188 68 319.432617188 73 334.432617188 79 c 0
 367.432617188 92 397.432617188 114 426.432617188 145 c 0
 444.432617188 165 460.432617188 188 477.432617188 214 c 0
 494.432617188 241 508.432617188 265 517.432617188 286 c 2
 539.432617188 341 l 1
 497.432617188 300 l 2
 478.432617188 280 457.432617188 266 433.432617188 259 c 0
 409.432617188 252 380.432617188 248 345.432617188 248 c 0
 323.432617188 248 302.432617188 253 284.432617188 266 c 0
 264.432617188 279 249.432617188 295 238.432617188 316 c 0
 227.432617188 337 219.432617188 362 216.432617188 390 c 0
 215.432617188 399 214.432617188 408 214.432617188 417 c 0
 214.432617188 437 216.432617188 456 221.432617188 476 c 0
 230.432617188 512 242.432617188 546 261.432617188 577 c 0
 280.432617188 608 300.432617188 635 322.432617188 657 c 0
 343.432617188 679 366.432617188 696 392.432617188 708 c 0
 418.432617188 720 446.432617188 727 473.432617188 727 c 0
 502.432617188 727 527.432617188 721 548.432617188 710 c 0
 574.432617188 696 593.432617188 673 605.432617188 642 c 0
 615.432617188 615 620.432617188 583 620.432617188 546 c 0
 620.432617188 499 612.432617188 444 597.432617188 382 c 0
554.432617188 581 m 0
 549.432617188 597 543.432617188 611 534.432617188 624 c 0
 525.432617188 637 513.432617188 647 498.432617188 655 c 0
 485.432617188 663 470.432617188 667 454.432617188 667 c 2
 453.432617188 667 l 2
 431.432617188 667 407.432617188 659 384.432617188 642 c 0
 361.432617188 625 342.432617188 603 325.432617188 577 c 0
 308.432617188 551 296.432617188 523 290.432617188 494 c 0
 284.432617188 468 282.432617188 445 282.432617188 425 c 0
 282.432617188 400 287.432617188 378 296.432617188 361 c 0
 313.432617188 328 343.432617188 312 385.432617188 312 c 0
 411.432617188 312 438.432617188 319 465.432617188 333 c 0
 493.432617188 347 517.432617188 366 539.432617188 391 c 1
 542.432617188 393 l 1
 547.432617188 415 552.432617188 445 559.432617188 485 c 0
 561.432617188 496 563.432617188 508 563.432617188 520 c 0
 563.432617188 541 560.432617188 561 554.432617188 581 c 0
EndSplineSet
Validated: 1
EndChar

StartChar: colon
Encoding: 58 58 36
Width: 640
GlyphClass: 2
Flags: HMW
HStem: 52 131<317.271 361.771 321.771 361.771> 319 131<386.771 422.771 386.771 422.771>
VStem: 287.771 108<80 151.5 84 151.5> 348.771 109<343 424 351 424>
LayerCount: 2
Fore
SplineSet
348.771484375 351 m 2xd0
 350.771484375 369 356.771484375 392 363.771484375 419 c 0
 364.771484375 426 367.771484375 432 371.771484375 436 c 0
 375.771484375 440 381.771484375 443 387.771484375 445 c 0
 397.771484375 448 406.771484375 450 415.771484375 450 c 2
 422.771484375 450 l 2
 432.771484375 450 441.771484375 448 449.771484375 443 c 0
 454.771484375 440 457.771484375 433 457.771484375 424 c 2
 457.771484375 419 l 1
 453.771484375 398 445.771484375 376 434.771484375 352 c 0
 429.771484375 341 422.771484375 332 412.771484375 327 c 0
 402.771484375 322 395.771484375 319 388.771484375 319 c 2
 386.771484375 319 l 2
 374.771484375 320 365.771484375 323 358.771484375 327 c 0
 354.771484375 329 351.771484375 331 350.771484375 334 c 0
 349.771484375 337 348.771484375 340 348.771484375 343 c 2
 348.771484375 351 l 2xd0
287.771484375 80 m 2xe0
 287.771484375 84 l 1
 292.771484375 110 l 2
 292.771484375 112 295.771484375 117 296.771484375 122 c 0
 297.771484375 127 300.771484375 137 305.771484375 152 c 0
 306.771484375 158 309.771484375 163 313.771484375 167 c 0
 317.771484375 171 322.771484375 175 327.771484375 177 c 0
 338.771484375 181 347.771484375 183 355.771484375 183 c 2
 361.771484375 183 l 2
 367.771484375 183 373.771484375 182 378.771484375 180 c 0
 383.771484375 178 386.771484375 175 390.771484375 170 c 0
 394.771484375 165 396.771484375 160 396.771484375 153 c 2
 396.771484375 153 395.771484375 152 395.771484375 151 c 0
 394.771484375 129 387.771484375 106 376.771484375 83 c 0
 371.771484375 73 363.771484375 65 352.771484375 60 c 0
 341.771484375 55 332.771484375 52 324.771484375 52 c 2
 321.771484375 52 l 2
 312.771484375 52 303.771484375 56 295.771484375 62 c 0
 290.771484375 67 287.771484375 73 287.771484375 80 c 2xe0
EndSplineSet
Validated: 1
EndChar

StartChar: semicolon
Encoding: 59 59 37
Width: 640
GlyphClass: 2
Flags: HMW
HStem: 277 131<408.863 442.863 408.863 442.863>
VStem: 369.863 109<306 382 310 382>
LayerCount: 2
Fore
SplineSet
442.86328125 408 m 2
 451.86328125 408 461.86328125 406 470.86328125 401 c 0
 472.86328125 400 475.86328125 398 476.86328125 394 c 0
 477.86328125 390 478.86328125 386 478.86328125 382 c 2
 478.86328125 377 l 1
 474.86328125 356 466.86328125 334 455.86328125 310 c 0
 450.86328125 299 442.86328125 290 433.86328125 285 c 0
 424.86328125 280 416.86328125 277 409.86328125 277 c 2
 408.86328125 277 l 2
 392.86328125 279 380.86328125 285 373.86328125 294 c 0
 371.86328125 297 369.86328125 301 369.86328125 306 c 2
 369.86328125 310 l 2
 371.86328125 328 376.86328125 351 383.86328125 378 c 0
 385.86328125 384 389.86328125 390 393.86328125 394 c 0
 397.86328125 398 403.86328125 401 409.86328125 403 c 0
 415.86328125 405 420.86328125 407 425.86328125 407 c 0
 430.86328125 407 435.86328125 408 437.86328125 408 c 2
 442.86328125 408 l 2
390.86328125 77 m 0
 384.86328125 56 344.86328125 -30 270.86328125 -182 c 0
 265.86328125 -193 258.86328125 -201 250.86328125 -206 c 0
 242.86328125 -211 235.86328125 -213 228.86328125 -213 c 2
 226.86328125 -213 l 2
 217.86328125 -213 209.86328125 -210 203.86328125 -204 c 0
 201.86328125 -202 199.86328125 -198 199.86328125 -194 c 0
 199.86328125 -190 200.86328125 -187 201.86328125 -183 c 0
 206.86328125 -168 221.86328125 -129 247.86328125 -67 c 0
 273.86328125 -5 293.86328125 41 308.86328125 74 c 0
 312.86328125 83 315.86328125 90 319.86328125 95 c 0
 323.86328125 100 328.86328125 103 330.86328125 104 c 0
 337.86328125 106 343.86328125 107 348.86328125 107 c 0
 349.86328125 107 352.86328125 106 354.86328125 106 c 0
 365.86328125 106 375.86328125 104 384.86328125 99 c 0
 389.86328125 97 392.86328125 92 392.86328125 87 c 0
 392.86328125 85 391.86328125 81 390.86328125 77 c 0
EndSplineSet
Validated: 1
EndChar

StartChar: less
Encoding: 60 60 38
Width: 640
GlyphClass: 2
Flags: HMW
HStem: 680 20G<650.046 656.046>
LayerCount: 2
Fore
SplineSet
679.045898438 669 m 0
 679.045898438 663 676.045898438 657 671.045898438 650 c 0
 662.045898438 639 645.045898438 626 622.045898438 611 c 0
 582.045898438 585 519.045898438 543 435.045898438 483 c 0
 351.045898438 423 292.045898438 383 261.045898438 362 c 1
 271.045898438 352 l 2
 291.045898438 332 312.045898438 307 335.045898438 279 c 0
 358.045898438 251 378.045898438 226 395.045898438 203 c 0
 412.045898438 180 430.045898438 155 451.045898438 131 c 0
 472.045898438 107 491.045898438 88 508.045898438 74 c 0
 528.045898438 58 537.045898438 45 537.045898438 35 c 0
 537.045898438 32 535.045898438 27 532.045898438 20 c 0
 529.045898438 15 525.045898438 10 519.045898438 7 c 0
 513.045898438 4 505.045898438 1 496.045898438 0 c 2
 490.045898438 0 l 2
 483.045898438 0 475.045898438 2 466.045898438 5 c 0
 453.045898438 10 438.045898438 21 420.045898438 38 c 0
 402.045898438 55 383.045898438 77 362.045898438 102 c 0
 341.045898438 127 322.045898438 152 302.045898438 178 c 0
 282.045898438 204 260.045898438 230 237.045898438 258 c 0
 214.045898438 286 195.045898438 308 178.045898438 324 c 0
 175.045898438 327 173.045898438 333 173.045898438 341 c 0
 173.045898438 351 175.045898438 361 180.045898438 370 c 0
 185.045898438 379 190.045898438 385 197.045898438 389 c 0
 239.045898438 418 289.045898438 454 346.045898438 496 c 0
 403.045898438 538 456.045898438 576 503.045898438 610 c 0
 550.045898438 644 591.045898438 671 626.045898438 691 c 0
 637.045898438 697 646.045898438 700 654.045898438 700 c 0
 658.045898438 700 662.045898438 700 664.045898438 698 c 0
 672.045898438 692 677.045898438 684 678.045898438 675 c 0
 678.045898438 673 679.045898438 671 679.045898438 669 c 0
EndSplineSet
Validated: 1
EndChar

StartChar: equal
Encoding: 61 61 39
Width: 640
GlyphClass: 2
Flags: HMW
HStem: 259 50 259 58 455 61<291.581 296.581>
LayerCount: 2
Fore
SplineSet
297.081054688 516 m 2x20
 299.081054688 516.000976562 l 2
 335.399414062 514.829101562 375.149414062 514.34375 418.331054688 514.34375 c 0
 448.865234375 514.34375 481.115234375 514.5859375 515.081054688 515 c 0
 547.081054688 515 565.081054688 516 572.081054688 516 c 0
 582.081054688 516 589.081054688 515 590.081054688 513 c 0
 591.081054688 511 592.081054688 507 592.081054688 502 c 0
 592.081054688 495 590.081054688 487 587.081054688 479 c 0
 583.081054688 470 578.081054688 463 571.081054688 461 c 0
 568.081054688 460 565.081054688 459 563.081054688 459 c 2
 556.081054688 459 l 2
 542.081054688 459 529.081054688 460 517.081054688 460 c 2
 483.081054688 460 l 1
 380.081054688 457 l 2
 338.081054688 456 307.081054688 455 286.081054688 455 c 0
 275.081054688 455 266.081054688 458 261.081054688 463 c 0
 258.081054688 466 256.081054688 470 256.081054688 475 c 0
 256.081054688 477 257.081054688 480 257.081054688 482 c 0
 259.081054688 492 265.081054688 500 272.081054688 507 c 0
 279.081054688 513 286.081054688 516 297.081054688 516 c 2x20
257.081054688 317.000976562 m 2x60
 277.081054688 317.000976562 300.081054688 316.000976562 328.081054688 316.000976562 c 0
 356.081054688 316.000976562 389.081054688 318.000976562 429.081054688 318.000976562 c 2
 527.081054688 320.000976562 l 2
 538.081054688 320.000976562 544.081054688 318.000976562 545.081054688 316.000976562 c 0
 547.081054688 313.000976562 547.081054688 307.000976562 546.081054688 298.000976562 c 0
 544.081054688 288.000976562 541.081054688 280.000976562 536.081054688 273.000976562 c 0
 534.081054688 269.000976562 530.081054688 266.000976562 526.081054688 265.000976562 c 0
 522.081054688 264.000976562 519.081054688 264.000976562 517.081054688 264.000976562 c 2
 510.081054688 264.000976562 l 2
 495.081054688 264.000976562 478.081054688 265.000976562 458.081054688 265.000976562 c 0
 438.081054688 265.000976562 397.081054688 263.000976562 333.081054688 261.000976562 c 0
 289.081054688 260.000976562 256.081054688 259.000976562 236.081054688 259.000976562 c 0
 225.081054688 259.000976562 217.081054688 261.000976562 214.081054688 266.000976562 c 0
 212.081054688 269.000976562 211.081054688 273.000976562 211.081054688 278.000976562 c 0
 211.081054688 281.000976562 212.081054688 285.000976562 212.081054688 288.000976562 c 0
 213.081054688 296.000976562 218.081054688 303.000976562 226.081054688 309.000976562 c 0xa0
 234.081054688 315.000976562 243.081054688 317.000976562 255.081054688 317.000976562 c 2
 257.081054688 317.000976562 l 2x60
EndSplineSet
Validated: 1
EndChar

StartChar: greater
Encoding: 62 62 40
Width: 640
GlyphClass: 2
Flags: HMW
HStem: 687 20G<291.654 297.654 297.654 301.154>
LayerCount: 2
Fore
SplineSet
297.654296875 707 m 2
 304.654296875 707 312.654296875 705 321.654296875 702 c 0
 334.654296875 697 349.654296875 686 368.654296875 669 c 0
 387.654296875 652 405.654296875 631 425.654296875 606 c 0
 445.654296875 581 465.654296875 555 485.654296875 529 c 0
 505.654296875 503 527.654296875 477 549.654296875 449 c 0
 571.654296875 421 592.654296875 399 609.654296875 383 c 0
 612.654296875 380 614.654296875 374 614.654296875 366 c 0
 614.654296875 356 612.654296875 346 607.654296875 337 c 0
 602.654296875 328 597.654296875 322 590.654296875 318 c 0
 548.654296875 290 498.654296875 254 441.654296875 212 c 0
 384.654296875 170 332.654296875 131 285.654296875 97 c 0
 238.654296875 63 196.654296875 36 161.654296875 16 c 0
 150.654296875 10 141.654296875 7 133.654296875 7 c 0
 128.654296875 7 125.654296875 7 123.654296875 9 c 0
 119.654296875 12 115.654296875 16 113.654296875 20 c 0
 111.654296875 24 109.654296875 26 109.654296875 30 c 0
 109.654296875 34 108.654296875 37 108.654296875 38 c 0
 108.654296875 44 111.654296875 50 116.654296875 57 c 0
 125.654296875 68 141.654296875 81 165.654296875 96 c 0
 206.654296875 122 269.654296875 164 353.654296875 224 c 0
 437.654296875 284 496.654296875 324 527.654296875 345 c 1
 516.654296875 355 l 2
 496.654296875 375 476.654296875 400 453.654296875 428 c 0
 430.654296875 456 410.654296875 481 393.654296875 504 c 0
 376.654296875 527 357.654296875 552 336.654296875 576 c 0
 315.654296875 600 297.654296875 619 279.654296875 633 c 0
 259.654296875 649 250.654296875 662 250.654296875 672 c 0
 250.654296875 677 252.654296875 682 255.654296875 687 c 0
 258.654296875 692 263.654296875 697 269.654296875 700 c 0
 275.654296875 703 282.654296875 706 291.654296875 707 c 2
 297.654296875 707 l 2
EndSplineSet
Validated: 1
EndChar

StartChar: question
Encoding: 63 63 41
Width: 640
GlyphClass: 2
Flags: HMW
HStem: -2 130<269.602 333.602 277.102 333.602> 650 60<453.102 466.102>
VStem: 236.102 132<37.5 90.5> 549.102 69<578.5 582>
LayerCount: 2
Fore
SplineSet
618.102539062 588 m 0
 618.102539062 569 615.102539062 548 610.102539062 525 c 0
 606.102539062 508 599.102539062 493 591.102539062 479 c 0
 583.102539062 465 574.102539062 453 564.102539062 443 c 0
 554.102539062 433 542.102539062 424 529.102539062 415 c 0
 516.102539062 406 503.102539062 396 489.102539062 387 c 0
 475.102539062 378 463.102539062 368 450.102539062 357 c 0
 437.102539062 346 426.102539062 333 414.102539062 318 c 0
 402.102539062 303 393.102539062 286 386.102539062 267 c 0
 380.102539062 252 372.102539062 240 363.102539062 232 c 0
 358.102539062 227 352.102539062 225 345.102539062 225 c 0
 343.102539062 225 339.102539062 227 334.102539062 227 c 0
 329.102539062 228 324.102539062 231 321.102539062 233 c 0
 316.102539062 237 314.102539062 242 314.102539062 249 c 0
 314.102539062 259 318.102539062 272 325.102539062 287 c 0
 333.102539062 304 343.102539062 320 355.102539062 335 c 0
 367.102539062 350 377.102539062 364 389.102539062 375 c 0
 401.102539062 386 414.102539062 397 427.102539062 407 c 0
 440.102539062 417 453.102539062 427 465.102539062 436 c 0
 477.102539062 445 489.102539062 454 500.102539062 464 c 0
 511.102539062 474 520.102539062 485 528.102539062 497 c 0
 536.102539062 509 542.102539062 522 545.102539062 535 c 0
 548.102539062 548 549.102539062 560 549.102539062 571 c 0
 549.102539062 593 543.102539062 610 531.102539062 623 c 0
 513.102539062 641 485.102539062 650 447.102539062 650 c 0
 437.102539062 650 427.102539062 648 416.102539062 643 c 0
 405.102539062 638 395.102539062 633 387.102539062 627 c 0
 379.102539062 621 370.102539062 613 360.102539062 604 c 0
 350.102539062 595 342.102539062 587 337.102539062 581 c 0
 332.102539062 575 325.102539062 567 317.102539062 558 c 0
 304.102539062 543 294.102539062 534 287.102539062 534 c 0
 286.102539062 534 283.102539062 533 282.102539062 533 c 0
 281.102539062 533 278.102539062 534 276.102539062 535 c 0
 274.102539062 536 269.102539062 538 264.102539062 540 c 0
 259.102539062 543 256.102539062 548 256.102539062 555 c 0
 256.102539062 564 261.102539062 576 272.102539062 592 c 0
 292.102539062 619 318.102539062 645 349.102539062 669 c 0
 365.102539062 681 383.102539062 691 403.102539062 699 c 0
 423.102539062 707 443.102539062 710 463.102539062 710 c 0
 526.102539062 710 570.102539062 695 595.102539062 664 c 0
 610.102539062 645 618.102539062 620 618.102539062 588 c 0
368.102539062 85 m 0
 368.102539062 80 367.102539062 74 366.102539062 68 c 0
 362.102539062 49 353.102539062 34 338.102539062 21 c 0
 323.102539062 8 305.102539062 0 285.102539062 -2 c 2
 277.102539062 -2 l 2
 262.102539062 -2 252.102539062 3 245.102539062 13 c 0
 239.102539062 22 236.102539062 32 236.102539062 43 c 0
 236.102539062 48 237.102539062 54 238.102539062 61 c 0
 243.102539062 79 253.102539062 94 270.102539062 107 c 0
 288.102539062 121 306.102539062 128 326.102539062 128 c 0
 341.102539062 128 353.102539062 123 360.102539062 113 c 0
 365.102539062 105 368.102539062 96 368.102539062 85 c 0
EndSplineSet
Validated: 1
EndChar

StartChar: at
Encoding: 64 64 42
Width: 640
GlyphClass: 2
Flags: HMW
HStem: -117 61<262.823 310.323 277.823 310.323> 114 53<476.323 507.323> 130 56<341.323 349.323> 394 52<409.823 439.323 409.823 439.323> 625 65<462.323 498.823 475.823 491.823>
VStem: 123.822 60<100 118.5> 254.823 53<198 229> 439.823 33 590.823 51<460 533.5>
LayerCount: 2
Fore
SplineSet
513.823242188 49 m 2xdf80
 513.823242188 47 511.823242188 42 509.823242188 36 c 0
 507.823242188 30 503.823242188 22 497.823242188 12 c 0
 492.823242188 3 487.823242188 -6 482.823242188 -13 c 0
 477.823242188 -20 471.823242188 -28 463.823242188 -38 c 0
 455.823242188 -48 447.823242188 -55 439.823242188 -62 c 0
 431.823242188 -69 422.823242188 -77 410.823242188 -84 c 0
 398.823242188 -91 386.823242188 -97 374.823242188 -102 c 0
 362.823242188 -107 347.823242188 -111 331.823242188 -113 c 0
 315.823242188 -115 299.823242188 -117 282.823242188 -117 c 2
 277.823242188 -117 l 2
 247.823242188 -117 220.823242188 -109 198.823242188 -93 c 0
 176.823242188 -77 158.823242188 -55 145.823242188 -26 c 0
 130.823242188 8 123.823242188 50 123.823242188 99 c 0
 123.823242188 138 127.823242188 180 138.823242188 225 c 0
 152.823242188 283 169.823242188 338 189.823242188 388 c 0
 209.823242188 438 230.823242188 481 253.823242188 518 c 0
 276.823242188 555 303.823242188 586 329.823242188 612 c 0
 355.823242188 638 382.823242188 658 409.823242188 671 c 0
 436.823242188 684 462.823242188 690 488.823242188 690 c 0
 508.823242188 690 526.823242188 689 541.823242188 686 c 0
 556.823242188 683 571.823242188 677 583.823242188 669 c 0
 595.823242188 661 605.823242188 652 613.823242188 640 c 0
 621.823242188 628 628.823242188 611 633.823242188 591 c 0
 638.823242188 571 641.823242188 547 641.823242188 520 c 0
 641.823242188 463 630.823242188 388 609.823242188 295 c 0
 598.823242188 248 582.823242188 206 561.823242188 171 c 0
 550.823242188 153 538.823242188 139 525.823242188 129 c 0
 512.823242188 119 498.823242188 114 484.823242188 114 c 0
 467.823242188 114 455.823242188 119 448.823242188 128 c 0
 442.823242188 136 439.823242188 148 439.823242188 163 c 0
 439.823242188 169 439.823242188 176 440.823242188 184 c 2
 449.823242188 251 l 1
 417.823242188 192 l 2
 395.823242188 150 366.823242188 130 331.823242188 130 c 0xbf80
 299.823242188 130 277.823242188 140 265.823242188 161 c 0
 258.823242188 173 254.823242188 188 254.823242188 208 c 0
 254.823242188 225 257.823242188 245 262.823242188 268 c 0
 267.823242188 291 275.823242188 312 285.823242188 333 c 0
 295.823242188 354 305.823242188 370 317.823242188 384 c 0
 329.823242188 398 342.823242188 410 355.823242188 420 c 0
 368.823242188 430 382.823242188 436 395.823242188 440 c 0
 408.823242188 444 420.823242188 446 431.823242188 446 c 0
 446.823242188 446 461.823242188 443 475.823242188 436 c 0
 486.823242188 431 494.823242188 425 499.823242188 417 c 0
 500.823242188 414 501.823242188 411 501.823242188 409 c 0
 501.823242188 407 500.823242188 405 499.823242188 403 c 0
 493.823242188 394 487.823242188 389 481.823242188 387 c 0
 476.823242188 386 471.823242188 385 468.823242188 385 c 0
 463.823242188 385 452.823242188 387 436.823242188 392 c 0
 429.823242188 393 423.823242188 394 419.823242188 394 c 2
 409.823242188 394 l 2
 399.823242188 393 389.823242188 389 379.823242188 383 c 0
 369.823242188 377 360.823242188 371 352.823242188 362 c 0
 344.823242188 353 336.823242188 343 329.823242188 329 c 0
 322.823242188 315 317.823242188 300 313.823242188 283 c 0
 309.823242188 266 307.823242188 252 307.823242188 241 c 2
 307.823242188 229 l 2
 307.823242188 217 311.823242188 207 317.823242188 199 c 0
 324.823242188 190 334.823242188 186 347.823242188 186 c 0
 370.823242188 186 389.823242188 195 404.823242188 215 c 0
 417.823242188 233 429.823242188 261 439.823242188 301 c 0
 440.823242188 307 448.823242188 313 461.823242188 318 c 0
 471.823242188 322 479.823242188 324 486.823242188 324 c 0
 490.823242188 324 494.823242188 323 496.823242188 322 c 2
 497.823242188 321 l 1
 497.823242188 321 496.823242188 319 496.823242188 317 c 0
 484.823242188 281 476.823242188 253 474.823242188 232 c 0
 473.823242188 222 472.823242188 213 472.823242188 205 c 0
 472.823242188 197 473.823242188 191 475.823242188 186 c 0
 477.823242188 179 482.823242188 174 487.823242188 171 c 0
 492.823242188 169 497.823242188 167 502.823242188 167 c 0xdf80
 511.823242188 167 520.823242188 173 528.823242188 186 c 0xbf80
 534.823242188 196 540.823242188 208 545.823242188 223 c 0
 554.823242188 248 561.823242188 272 566.823242188 293 c 0
 573.823242188 327 580.823242188 360 584.823242188 391 c 0
 588.823242188 422 590.823242188 449 590.823242188 471 c 0
 590.823242188 489 588.823242188 506 585.823242188 522 c 0
 582.823242188 538 579.823242188 552 575.823242188 563 c 0
 571.823242188 574 565.823242188 584 557.823242188 592 c 0
 549.823242188 600 542.823242188 607 535.823242188 611 c 0
 528.823242188 615 521.823242188 619 512.823242188 621 c 0
 503.823242188 623 496.823242188 625 491.823242188 625 c 2
 475.823242188 625 l 2
 448.823242188 625 421.823242188 617 394.823242188 599 c 0
 367.823242188 581 341.823242188 557 317.823242188 526 c 0
 293.823242188 495 271.823242188 457 251.823242188 413 c 0
 231.823242188 369 215.823242188 320 203.823242188 267 c 0
 190.823242188 208 183.823242188 156 183.823242188 112 c 0
 183.823242188 88 185.823242188 68 189.823242188 51 c 0
 195.823242188 27 204.823242188 6 215.823242188 -11 c 0
 226.823242188 -28 239.823242188 -39 253.823242188 -46 c 0
 267.823242188 -53 284.823242188 -56 301.823242188 -56 c 0
 318.823242188 -56 335.823242188 -54 350.823242188 -51 c 0
 365.823242188 -48 377.823242188 -43 388.823242188 -38 c 0
 399.823242188 -33 409.823242188 -26 420.823242188 -18 c 0
 431.823242188 -10 439.823242188 -1 445.823242188 6 c 0
 451.823242188 13 459.823242188 22 467.823242188 32 c 0
 472.823242188 39 476.823242188 44 480.823242188 48 c 0
 485.823242188 54 489.823242188 58 491.823242188 59 c 0
 493.823242188 59 495.823242188 61 497.823242188 62 c 0
 499.823242188 63 502.823242188 63 504.823242188 62 c 0
 506.823242188 61 509.823242188 59 510.823242188 58 c 0
 511.823242188 57 513.823242188 53 513.823242188 51 c 2
 513.823242188 49 l 2xdf80
497.823242188 321 m 1024
EndSplineSet
Validated: 1
EndChar

StartChar: A
Encoding: 65 65 43
Width: 640
GlyphClass: 2
Flags: HMW
HStem: 276 43<480.267 480.267 480.267 490.267>
VStem: 485.267 72<66 126> 490.267 57 504.267 62
LayerCount: 2
Fore
SplineSet
477.266601562 276 m 1xa0
 402.266601562 273 332.266601562 265 270.266601562 253 c 1
 237.266601562 196 203.266601562 131 168.266601562 58 c 0
 159.266601562 40 150.266601562 28 139.266601562 23 c 0
 134.266601562 21 128.266601562 19 124.266601562 19 c 0
 120.266601562 19 117.266601562 20 114.266601562 21 c 0
 111.266601562 22 108.266601562 25 107.266601562 28 c 0
 106.266601562 31 105.266601562 35 105.266601562 39 c 0
 105.266601562 49 110.266601562 63 118.266601562 81 c 0
 127.266601562 102 157.266601562 157 211.266601562 245 c 1
 209.266601562 256 206.266601562 258 204.266601562 252 c 1
 199.266601562 255 197.266601562 259 197.266601562 263 c 0
 197.266601562 264 198.266601562 266 198.266601562 268 c 0
 199.266601562 275 203.266601562 282 212.266601562 289 c 0
 221.266601562 296 232.266601562 301 243.266601562 305 c 1
 244.266601562 314 246.266601562 315 247.266601562 307 c 1
 356.266601562 499 437.266601562 627 490.266601562 691 c 0
 501.266601562 704 511.266601562 712 518.266601562 717 c 0
 525.266601562 722 532.266601562 725 538.266601562 725 c 2
 539.266601562 725 l 1
 543.266601562 725 l 2
 550.266601562 725 555.266601562 723 560.266601562 720 c 0
 564.266601562 718 566.266601562 712 566.266601562 705 c 2x90
 566.266601562 700 l 1
 559.266601562 617 555.266601562 500 551.266601562 348 c 0
 549.266601562 289 547.266601562 241 547.266601562 201 c 0xa0
 547.266601562 137 550.266601562 98 554.266601562 84 c 0
 556.266601562 78 557.266601562 72 557.266601562 68 c 0xc0
 557.266601562 64 556.266601562 60 555.266601562 56 c 0
 552.266601562 47 546.266601562 41 541.266601562 35 c 0
 536.266601562 29 530.266601562 24 523.266601562 22 c 0
 518.266601562 20 515.266601562 19 512.266601562 19 c 0
 508.266601562 19 503.266601562 20 500.266601562 22 c 0
 493.266601562 26 488.266601562 37 486.266601562 54 c 0
 486.266601562 62 485.266601562 81 485.266601562 111 c 0
 485.266601562 141 488.266601562 197 490.266601562 276 c 1
 486.266601562 285 482.266601562 285 477.266601562 276 c 1xa0
481.266601562 610 m 2
 444.266601562 565 388.266601562 470 313.266601562 324 c 1
 303.266601562 303 l 1
 325.266601562 306 l 2
 383.266601562 313 434.266601562 318 480.266601562 319 c 2
 492.266601562 320 l 1
 504.266601562 637 l 1
 481.266601562 610 l 2
EndSplineSet
Validated: 1
EndChar

StartChar: B
Encoding: 66 66 44
Width: 640
GlyphClass: 2
Flags: HMW
HStem: 310 47<334.212 338.212 338.212 339.212> 642 43<410.212 427.212 427.212 430.212>
VStem: 494.212 72<211 215.5 211 215.5> 536.212 62<533.5 538.5>
LayerCount: 2
Fore
SplineSet
564.211914062 201 m 2xd0
 559.211914062 177 548.211914062 153 531.211914062 130 c 0
 514.211914062 107 492.211914062 85 467.211914062 65 c 0
 443.211914062 45 413.211914062 28 379.211914062 14 c 0
 345.211914062 0 309.211914062 -10 270.211914062 -14 c 1
 264.024414062 -19.0625 257.836914062 -21.59375 251.649414062 -21.59375 c 2
 237.211914062 -17 l 1
 231.024414062 -22.0625 225.153320312 -24.59375 219.243164062 -24.59375 c 0
 214.645507812 -24.59375 210.024414062 -23.0625 205.211914062 -20 c 0
 185.211914062 -22 171.211914062 -23 161.211914062 -23 c 0
 155.211914062 -23 149.211914062 -22 143.211914062 -21 c 2
 141.211914062 -21 l 1
 138.211914062 -21 l 2
 130.211914062 -21 124.211914062 -18 121.211914062 -13 c 0
 119.211914062 -11 118.211914062 -7 118.211914062 -2 c 0
 118.211914062 3 119.211914062 8 121.211914062 14 c 0
 130.211914062 42 143.211914062 95 160.211914062 174 c 0
 177.211914062 253 194.211914062 335 210.211914062 419 c 0
 219.211914062 463 226.211914062 493 229.211914062 508 c 0
 232.211914062 523 237.211914062 544 244.211914062 570 c 0
 249.211914062 579 253.211914062 597 258.211914062 623 c 0
 261.211914062 639 267.211914062 651 275.211914062 658 c 0
 283.211914062 665 291.211914062 669 300.211914062 669 c 2
 304.211914062 669 l 1
 305.211914062 669 l 2
 316.211914062 672 326.211914062 675 336.211914062 677 c 0
 355.211914062 681 372.211914062 684 389.211914062 684 c 0
 398.211914062 684 405.211914062 685 410.211914062 685 c 2
 427.211914062 685 l 1
 437.211914062 685 l 2
 474.211914062 685 506.211914062 678 533.211914062 662 c 0
 560.211914062 646 578.211914062 624 589.211914062 595 c 0
 595.211914062 578 598.211914062 561 598.211914062 541 c 0
 598.211914062 526 596.211914062 509 592.211914062 492 c 0
 584.211914062 455 569.211914062 423 547.211914062 397 c 0
 525.211914062 371 499.211914062 352 470.211914062 340 c 1
 461.211914062 329 453.211914062 325 444.211914062 329 c 1
 450.671875 320.38671875 456.6171875 315.89453125 462.786132812 315.89453125 c 0
 465.211914062 315.89453125 467.671875 316.588867188 470.211914062 318 c 0
 487.211914062 311 504.211914062 300 520.211914062 287 c 0
 536.211914062 274 548.211914062 259 557.211914062 242 c 0
 563.211914062 231 566.211914062 220 566.211914062 211 c 2xe0
 564.211914062 201 l 2xd0
324.211914062 629 m 2
 318.211914062 627 l 1
 300.211914062 553 288.211914062 501 281.211914062 470 c 0
 274.211914062 439 267.211914062 402 258.211914062 360 c 1
 293.211914062 358 322.211914062 357 346.211914062 357 c 0
 364.211914062 357 381.211914062 359 396.211914062 362 c 0
 411.211914062 365 425.211914062 369 436.211914062 375 c 0
 447.211914062 381 458.211914062 388 468.211914062 397 c 0
 478.211914062 406 487.211914062 414 494.211914062 423 c 0
 501.211914062 432 507.211914062 441 512.211914062 451 c 0
 517.211914062 461 521.211914062 471 524.211914062 479 c 0
 527.211914062 487 531.211914062 496 533.211914062 506 c 0
 535.211914062 516 536.211914062 525 536.211914062 534 c 0xd0
 536.211914062 543 535.211914062 550 534.211914062 557 c 0
 531.211914062 574 525.211914062 587 516.211914062 598 c 0
 507.211914062 609 497.211914062 617 484.211914062 624 c 0
 464.211914062 636 442.211914062 642 418.211914062 642 c 0
 387.211914062 642 355.211914062 638 324.211914062 629 c 2
462.211914062 261 m 0
 451.211914062 271 435.211914062 280 414.211914062 289 c 0
 393.211914062 298 368.211914062 305 339.211914062 310 c 1
 338.211914062 310 l 2
 296.211914062 310 267.211914062 308 248.211914062 308 c 1
 226.211914062 194 209.211914062 109 198.211914062 54 c 1
 215.211914062 55 231.211914062 56 246.211914062 56 c 0
 261.211914062 56 272.211914062 57 279.211914062 57 c 0
 306.211914062 58 332.211914062 64 358.211914062 74 c 0
 384.211914062 84 406.211914062 94 424.211914062 108 c 0
 442.211914062 122 457.211914062 137 469.211914062 152 c 0
 482.211914062 167 490.211914062 182 493.211914062 196 c 0
 493.211914062 199 494.211914062 203 494.211914062 206 c 0xe0
 494.211914062 225 483.211914062 243 462.211914062 261 c 0
EndSplineSet
Validated: 1
EndChar

StartChar: C
Encoding: 67 67 45
Width: 640
GlyphClass: 2
Flags: HMW
HStem: -31 67<271.505 321.505 282.505 321.505> 654 59<534.505 539.005> 701 21G
VStem: 136.505 77<126.5 190.5>
LayerCount: 2
Fore
SplineSet
289.504882812 -31 m 2xd0
 282.504882812 -31 l 2
 260.504882812 -31 240.504882812 -27 221.504882812 -18 c 0
 202.504882812 -9 187.504882812 2 175.504882812 17 c 0
 163.504882812 32 154.504882812 49 147.504882812 70 c 0
 140.504882812 91 136.504882812 114 136.504882812 139 c 0
 136.504882812 159 138.504882812 179 143.504882812 200 c 0
 154.504882812 249 169.504882812 297 189.504882812 343 c 0
 209.504882812 389 230.504882812 432 254.504882812 469 c 0
 276.504882812 506 300.504882812 540 326.504882812 571 c 0
 352.504882812 602 378.504882812 627 403.504882812 648 c 0
 428.504882812 669 454.504882812 685 478.504882812 696 c 0
 502.504882812 707 524.504882812 713 544.504882812 713 c 0
 565.504882812 713 583.504882812 710 600.504882812 705 c 1
 603.504882812 711 607.504882812 710 610.504882812 701 c 1xb0
 612.504882812 712 614.504882812 716 615.504882812 711 c 1
 619.504882812 720 624.504882812 727 631.504882812 732 c 0
 638.504882812 737 644.504882812 740 651.504882812 740 c 2
 656.504882812 741 l 2
 661.504882812 741 666.504882812 739 671.504882812 735 c 0
 677.504882812 730 680.504882812 723 680.504882812 713 c 0
 680.504882812 697 678.504882812 678 674.504882812 656 c 0
 673.504882812 647 671.504882812 635 667.504882812 621 c 0
 663.504882812 607 660.504882812 598 660.504882812 596 c 0
 658.504882812 583 650.504882812 570 639.504882812 557 c 0
 628.504882812 544 619.504882812 537 612.504882812 537 c 2
 607.504882812 537 l 2
 600.504882812 537 594.504882812 539 589.504882812 544 c 0
 585.504882812 547 583.504882812 552 583.504882812 558 c 0
 583.504882812 559 584.504882812 562 584.504882812 565 c 0
 585.504882812 571 590.504882812 588 597.504882812 616 c 0
 596.504882812 623 594.504882812 625 592.504882812 621 c 1
 589.504882812 623 583.504882812 629 574.504882812 637 c 0
 572.504882812 639 568.504882812 642 563.504882812 645 c 0
 554.504882812 651 544.504882812 654 533.504882812 654 c 0
 513.504882812 654 490.504882812 647 466.504882812 632 c 0
 442.504882812 617 418.504882812 596 394.504882812 570 c 0
 370.504882812 544 345.504882812 514 323.504882812 481 c 0
 301.504882812 448 280.504882812 409 262.504882812 367 c 0
 242.504882812 325 228.504882812 281 219.504882812 239 c 0
 215.504882812 219 213.504882812 200 213.504882812 181 c 0
 213.504882812 169 214.504882812 157 216.504882812 145 c 0
 220.504882812 114 230.504882812 88 248.504882812 68 c 0
 265.504882812 47 286.504882812 36 311.504882812 36 c 0
 331.504882812 36 349.504882812 38 369.504882812 43 c 0
 389.504882812 48 406.504882812 54 422.504882812 62 c 0
 438.504882812 70 452.504882812 76 464.504882812 84 c 0
 476.504882812 92 487.504882812 100 498.504882812 109 c 0
 506.504882812 114 513.504882812 119 518.504882812 121 c 0
 523.504882812 123 528.504882812 125 533.504882812 125 c 0
 536.504882812 125 539.504882812 124 541.504882812 122 c 0
 545.504882812 117 547.504882812 113 547.504882812 108 c 0
 547.504882812 97 539.504882812 82 522.504882812 64 c 0
 462.504882812 1 385.504882812 -31 289.504882812 -31 c 2xd0
EndSplineSet
Validated: 1
EndChar

StartChar: D
Encoding: 68 68 46
Width: 640
GlyphClass: 2
Flags: HMW
HStem: -31 61<319.56 366.06 332.06 366.06> 712 21G<316.06 320.06 316.06 316.06>
VStem: 316.06 4<688 688 712 712> 535.06 65<341 379>
LayerCount: 2
Fore
SplineSet
320.059570312 712 m 1
 316.059570312 712 l 1
 317.059570312 726 319.059570312 732 320.059570312 730 c 2
 320.059570312 712 l 1
320.059570312 687 m 1
 331.059570312 686 344.059570312 683 357.059570312 680 c 0
 374.059570312 676 390.059570312 671 407.059570312 664 c 0
 424.059570312 657 441.059570312 647 460.059570312 635 c 0
 479.059570312 623 496.059570312 609 513.059570312 593 c 0
 530.059570312 577 544.059570312 557 558.059570312 533 c 0
 572.059570312 509 582.059570312 484 589.059570312 457 c 0
 596.059570312 430 600.059570312 398 600.059570312 363 c 0
 600.059570312 319 595.059570312 272 583.059570312 222 c 0
 577.059570312 200 569.059570312 176 558.059570312 153 c 0
 547.059570312 130 534.059570312 107 517.059570312 85 c 0
 500.059570312 63 483.059570312 43 464.059570312 26 c 0
 446.059570312 9 426.059570312 -6 405.059570312 -16 c 0
 384.059570312 -26 361.059570312 -31 340.059570312 -31 c 2
 332.059570312 -31 l 2
 307.059570312 -31 282.059570312 -29 257.059570312 -27 c 0
 232.059570312 -25 212.059570312 -21 196.059570312 -17 c 0
 180.059570312 -13 165.059570312 -9 152.059570312 -5 c 0
 139.059570312 -1 131.059570312 0 128.059570312 0 c 0
 120.059570312 0 114.059570312 3 111.059570312 8 c 0
 109.059570312 10 108.059570312 15 108.059570312 20 c 0
 108.059570312 25 109.059570312 30 111.059570312 36 c 0
 120.059570312 68 134.059570312 125 153.059570312 207 c 0
 172.059570312 289 189.059570312 377 208.059570312 472 c 0
 215.059570312 509 221.059570312 533 224.059570312 545 c 0
 227.059570312 557 231.059570312 575 237.059570312 600 c 0
 243.059570312 625 247.059570312 640 248.059570312 645 c 0
 251.059570312 660 257.059570312 672 265.059570312 679 c 0
 273.059570312 686 281.059570312 690 290.059570312 690 c 0
 298.059570312 690 307.059570312 689 316.059570312 688 c 1
 311.059570312 654 305.059570312 628 299.059570312 611 c 0
 278.059570312 525 259.059570312 433 242.059570312 338 c 0
 234.059570312 287 226.059570312 243 217.059570312 208 c 0
 205.059570312 151 196.059570312 104 189.059570312 69 c 0
 191.059570312 60 195.059570312 58 197.059570312 65 c 1
 220.059570312 52 244.059570312 43 269.059570312 38 c 0
 294.059570312 33 324.059570312 30 357.059570312 30 c 0
 375.059570312 30 393.059570312 36 411.059570312 50 c 0
 429.059570312 64 445.059570312 81 459.059570312 102 c 0
 473.059570312 123 485.059570312 145 497.059570312 169 c 0
 509.059570312 193 518.059570312 218 523.059570312 241 c 0
 531.059570312 275 535.059570312 307 535.059570312 337 c 0
 535.059570312 421 506.059570312 489 446.059570312 540 c 0
 421.059570312 562 382.059570312 586 331.059570312 611 c 1
 331.059570312 616 l 1
 328.059570312 616 l 1
 328.059570312 617 l 1
 326.059570312 617 l 1
 326.059570312 618 l 1
 324.059570312 618 l 1
 324.059570312 619 l 1
 320.059570312 619 l 1
 320.059570312 687 l 1
EndSplineSet
Validated: 1
EndChar

StartChar: E
Encoding: 69 69 47
Width: 640
GlyphClass: 2
Flags: HMW
HStem: -20 63<195.7 276.2> -6 66<465.2 511.7 471.7 511.7> 312 62<252.7 290.7> 332 57<544.2 573.7> 615 59<496.7 518.2 472.7 524.7>
VStem: 117.7 77<27.5 74.5>
LayerCount: 2
Fore
SplineSet
483.700195312 -6 m 2x4c
 471.700195312 -6 l 2
 458.700195312 -6 437.700195312 -7 406.700195312 -9 c 0
 311.700195312 -16 243.700195312 -20 205.700195312 -20 c 0xac
 185.700195312 -20 171.700195312 -19 158.700195312 -18 c 0
 147.700195312 -18 138.700195312 -11 129.700195312 0 c 0
 122.700195312 9 117.700195312 21 117.700195312 34 c 0
 117.700195312 47 124.700195312 81 137.700195312 136 c 0
 147.700195312 180 158.700195312 228 171.700195312 279 c 0
 184.700195312 330 195.700195312 388 208.700195312 451 c 0
 216.700195312 491 222.700195312 517 225.700195312 530 c 0
 228.700195312 543 233.700195312 562 240.700195312 587 c 0
 247.700195312 612 250.700195312 627 251.700195312 634 c 0
 255.700195312 649 261.700195312 660 269.700195312 668 c 0
 277.700195312 676 286.700195312 680 295.700195312 680 c 1
 296.700195312 672 298.700195312 672 299.700195312 680 c 0
 303.700195312 680 306.700195312 679 309.700195312 678 c 0
 312.700195312 677 315.700195312 674 316.700195312 670 c 0
 317.700195312 659 319.700195312 656 320.700195312 661 c 1
 322.700195312 654 325.700195312 654 327.700195312 663 c 1
 375.700195312 670 436.700195312 674 508.700195312 674 c 0
 527.700195312 674 543.700195312 673 560.700195312 673 c 0
 596.700195312 672 624.700195312 669 645.700195312 667 c 0
 656.700195312 665 663.700195312 662 665.700195312 659 c 0
 665.700195312 658 666.700195312 655 666.700195312 653 c 0
 666.700195312 651 665.700195312 647 665.700195312 643 c 0
 665.700195312 639 663.700195312 634 661.700195312 630 c 0
 656.700195312 621 651.700195312 614 644.700195312 612 c 0
 641.700195312 610 638.700195312 609 636.700195312 609 c 0
 634.700195312 609 632.700195312 610 630.700195312 610 c 0
 587.700195312 613 545.700195312 615 503.700195312 615 c 0
 489.700195312 615 474.700195312 614 459.700195312 614 c 0
 404.700195312 613 357.700195312 609 315.700195312 602 c 1
 313.700195312 593 309.700195312 593 307.700195312 601 c 1
 287.700195312 526 271.700195312 450 255.700195312 373 c 1
 260.700195312 366 264.700195312 366 269.700195312 374 c 1
 311.700195312 374 370.700195312 376 443.700195312 381 c 0
 517.700195312 386 558.700195312 389 568.700195312 389 c 0x1c
 578.700195312 389 584.700195312 386 586.700195312 384 c 0
 588.700195312 380 588.700195312 374 587.700195312 366 c 0
 585.700195312 355 580.700195312 346 575.700195312 341 c 0
 569.700195312 335 560.700195312 332 549.700195312 332 c 0
 538.700195312 332 492.700195312 329 413.700195312 322 c 0
 334.700195312 315 281.700195312 312 252.700195312 312 c 1xac
 249.700195312 303 244.700195312 303 242.700195312 311 c 1
 232.700195312 267 224.700195312 225 215.700195312 184 c 0
 201.700195312 122 194.700195312 82 194.700195312 67 c 0
 194.700195312 63 195.700195312 57 195.700195312 50 c 0
 197.700195312 41 200.700195312 41 202.700195312 48 c 1
 207.700195312 46 214.700195312 44 224.700195312 44 c 0
 233.700195312 44 247.700195312 43 266.700195312 43 c 0
 285.700195312 43 311.700195312 44 343.700195312 45 c 0
 418.700195312 49 468.700195312 53 491.700195312 58 c 0
 499.700195312 59 505.700195312 60 509.700195312 60 c 0
 513.700195312 60 517.700195312 59 519.700195312 58 c 0
 521.700195312 57 523.700195312 55 524.700195312 54 c 0
 525.700195312 53 526.700195312 50 526.700195312 47 c 0
 526.700195312 44 527.700195312 41 527.700195312 39 c 0
 527.700195312 37 526.700195312 33 526.700195312 31 c 0
 524.700195312 20 519.700195312 11 511.700195312 3 c 0
 506.700195312 -4 498.700195312 -7 489.700195312 -7 c 0
 487.700195312 -7 485.700195312 -6 483.700195312 -6 c 2x4c
EndSplineSet
Validated: 1
EndChar

StartChar: F
Encoding: 70 70 48
Width: 640
GlyphClass: 2
Flags: HMW
HStem: 323 60<351.53 364.53> 619 63
LayerCount: 2
Fore
SplineSet
648.530273438 677 m 0
 659.530273438 676 665.530273438 673 666.530273438 671 c 0
 668.530273438 668 669.530273438 662 668.530273438 654 c 0
 666.530273438 645 660.530273438 636 653.530273438 629 c 0
 647.530273438 622 639.530273438 619 628.530273438 619 c 2
 626.530273438 619 l 2
 593.530273438 621 559.530273438 622 524.530273438 622 c 0
 459.530273438 622 387.530273438 618 308.530273438 611 c 1
 292.530273438 544 281.530273438 498 275.530273438 472 c 0
 269.530273438 446 262.530273438 414 254.530273438 376 c 1
 259.530273438 369 265.530273438 369 270.530273438 378 c 1
 295.530273438 381 322.530273438 383 351.530273438 383 c 2
 372.530273438 383 l 2
 409.530273438 382 442.530273438 379 472.530273438 376 c 0
 502.530273438 373 525.530273438 370 542.530273438 367 c 0
 548.530273438 366 552.530273438 363 555.530273438 362 c 0
 558.530273438 361 561.530273438 359 561.530273438 359 c 2
 562.530273438 357 563.530273438 354 563.530273438 350 c 2
 563.530273438 344 l 2
 561.530273438 335 556.530273438 326 550.530273438 319 c 0
 546.530273438 313 539.530273438 310 530.530273438 310 c 2
 528.530273438 310 l 2
 511.530273438 313 485.530273438 317 453.530273438 319 c 0
 421.530273438 321 384.530273438 323 344.530273438 323 c 0
 306.530273438 323 275.530273438 320 249.530273438 316 c 1
 247.530273438 307 244.530273438 307 242.530273438 315 c 1
 222.530273438 207 202.530273438 107 182.530273438 15 c 0
 178.530273438 4 171.530273438 -5 161.530273438 -12 c 0
 151.530273438 -19 141.530273438 -22 131.530273438 -22 c 0
 130.530273438 -22 128.530273438 -21 128.530273438 -21 c 2
 120.530273438 -21 114.530273438 -18 111.530273438 -13 c 0
 109.530273438 -11 108.530273438 -7 108.530273438 -2 c 0
 108.530273438 3 109.530273438 8 111.530273438 14 c 0
 120.530273438 43 132.530273438 100 151.530273438 183 c 0
 170.530273438 266 188.530273438 352 205.530273438 440 c 0
 214.530273438 484 221.530273438 515 224.530273438 530 c 0
 227.530273438 545 231.530273438 565 238.530273438 591 c 0
 243.530273438 601 248.530273438 619 253.530273438 645 c 0
 256.530273438 660 262.530273438 672 270.530273438 679 c 0
 278.530273438 686 287.530273438 690 296.530273438 690 c 2
 300.530273438 690 l 2
 305.530273438 690 308.530273438 689 311.530273438 688 c 0
 314.530273438 687 317.530273438 684 318.530273438 680 c 0
 318.530273438 669 320.530273438 667 321.530273438 672 c 1
 397.530273438 679 468.530273438 682 534.530273438 682 c 0
 579.530273438 682 617.530273438 680 648.530273438 677 c 0
EndSplineSet
Validated: 1
EndChar

StartChar: G
Encoding: 71 71 49
Width: 640
GlyphClass: 2
Flags: HMW
HStem: -31 67<269.646 318.646 280.646 318.646> 289 59<531.146 571.646> 666 58<536.146 540.146>
VStem: 134.646 78<126.5 190.5>
LayerCount: 2
Fore
SplineSet
656.645507812 687 m 0
 664.645507812 682 669.645507812 677 671.645507812 674 c 0
 674.645507812 669 675.645507812 664 675.645507812 658 c 0
 675.645507812 650 673.645507812 640 667.645507812 629 c 0
 665.645507812 623 658.645507812 618 651.645507812 615 c 0
 647.645507812 614 644.645507812 613 642.645507812 613 c 0
 640.645507812 613 636.645507812 615 632.645507812 615 c 0
 629.645507812 616 622.645507812 621 611.645507812 630 c 0
 600.645507812 639 587.645507812 647 573.645507812 654 c 0
 559.645507812 662 546.645507812 666 533.645507812 666 c 0
 513.645507812 666 491.645507812 658 467.645507812 643 c 0
 443.645507812 628 419.645507812 607 394.645507812 580 c 0
 369.645507812 553 344.645507812 522 322.645507812 487 c 0
 300.645507812 452 279.645507812 413 261.645507812 370 c 0
 241.645507812 327 226.645507812 283 217.645507812 239 c 0
 213.645507812 219 212.645507812 200 212.645507812 181 c 0
 212.645507812 169 212.645507812 157 214.645507812 145 c 0
 218.645507812 114 230.645507812 89 247.645507812 68 c 0
 265.645507812 47 285.645507812 36 310.645507812 36 c 0
 326.645507812 36 342.645507812 42 360.645507812 54 c 0
 378.645507812 66 396.645507812 80 411.645507812 97 c 0
 426.645507812 114 441.645507812 132 456.645507812 153 c 0
 471.645507812 174 484.645507812 195 495.645507812 215 c 0
 506.645507812 235 516.645507812 253 523.645507812 270 c 0
 525.645507812 275 528.645507812 281 530.645507812 289 c 1
 523.645507812 287 517.645507812 287 511.645507812 288 c 0
 474.645507812 286 438.645507812 282 401.645507812 276 c 0
 364.645507812 270 338.645507812 263 322.645507812 254 c 0
 319.645507812 252 316.645507812 250 314.645507812 250 c 0
 312.645507812 250 310.645507812 251 308.645507812 253 c 0
 304.645507812 257 301.645507812 262 301.645507812 268 c 2
 301.645507812 270 l 2
 302.645507812 291 315.645507812 308 340.645507812 320 c 0
 357.645507812 329 393.645507812 337 446.645507812 342 c 0
 486.645507812 346 518.645507812 348 543.645507812 348 c 0
 569.645507812 348 584.645507812 347 590.645507812 345 c 2
 596.645507812 341 l 2
 598.645507812 339 600.645507812 336 600.645507812 331 c 2
 600.645507812 328 l 2
 599.645507812 318 596.645507812 310 592.645507812 304 c 0
 588.645507812 298 583.645507812 293 576.645507812 291 c 0
 574.645507812 289 572.645507812 289 570.645507812 289 c 0
 569.645507812 282 567.645507812 275 564.645507812 266 c 0
 561.645507812 257 559.645507812 249 558.645507812 244 c 0
 553.645507812 230 546.645507812 214 537.645507812 195 c 0
 528.645507812 176 516.645507812 157 502.645507812 136 c 0
 488.645507812 115 473.645507812 94 455.645507812 74 c 0
 437.645507812 54 419.645507812 36 400.645507812 20 c 0
 381.645507812 4 362.645507812 -9 341.645507812 -18 c 0
 320.645507812 -27 301.645507812 -31 282.645507812 -31 c 2
 280.645507812 -31 l 2
 258.645507812 -31 238.645507812 -27 219.645507812 -18 c 0
 200.645507812 -9 186.645507812 2 174.645507812 17 c 0
 162.645507812 32 153.645507812 49 146.645507812 70 c 0
 139.645507812 91 134.645507812 114 134.645507812 139 c 0
 134.645507812 159 137.645507812 179 142.645507812 200 c 0
 154.645507812 251 169.645507812 300 189.645507812 347 c 0
 209.645507812 394 230.645507812 437 254.645507812 475 c 0
 276.645507812 513 300.645507812 548 326.645507812 580 c 0
 352.645507812 612 377.645507812 638 403.645507812 659 c 0
 429.645507812 680 454.645507812 696 478.645507812 707 c 0
 502.645507812 718 525.645507812 724 546.645507812 724 c 0
 568.645507812 724 595.645507812 718 622.645507812 705 c 0
 637.645507812 698 648.645507812 692 656.645507812 687 c 0
EndSplineSet
Validated: 1
EndChar

StartChar: H
Encoding: 72 72 50
Width: 640
GlyphClass: 2
Flags: HMW
HStem: 312 62<258.897 301.397 258.897 301.397>
LayerCount: 2
Fore
SplineSet
258.896484375 312 m 1
 256.896484375 304 254.896484375 297 253.896484375 293 c 0
 252.896484375 289 250.896484375 285 250.896484375 282 c 0
 231.896484375 215 211.896484375 126 189.896484375 15 c 0
 185.896484375 4 178.896484375 -5 168.896484375 -12 c 0
 158.896484375 -19 147.896484375 -22 138.896484375 -22 c 0
 137.896484375 -22 135.896484375 -21 135.896484375 -21 c 2
 128.896484375 -21 122.896484375 -18 118.896484375 -13 c 0
 116.896484375 -11 115.896484375 -7 115.896484375 -2 c 0
 115.896484375 3 116.896484375 8 118.896484375 14 c 0
 123.896484375 31 134.896484375 76 151.896484375 148 c 0
 160.896484375 186 174.896484375 248 196.896484375 334 c 0
 207.896484375 376 215.896484375 407 220.896484375 428 c 0
 225.896484375 449 231.896484375 479 240.896484375 520 c 0
 247.896484375 554 252.896484375 573 252.896484375 577 c 0
 254.896484375 586 256.896484375 597 260.896484375 612 c 0
 264.896484375 627 266.896484375 638 268.896484375 645 c 0
 272.896484375 660 279.896484375 672 287.896484375 679 c 0
 295.896484375 686 304.896484375 690 313.896484375 690 c 1
 313.896484375 682 315.896484375 682 315.896484375 690 c 1
 323.896484375 690 329.896484375 688 333.896484375 683 c 0
 335.896484375 680 337.896484375 675 337.896484375 670 c 0
 337.896484375 665 336.896484375 659 335.896484375 653 c 0
 334.896484375 647 329.896484375 633 323.896484375 611 c 0
 317.896484375 589 312.896484375 569 308.896484375 550 c 0
 304.896484375 531 299.896484375 506 292.896484375 470 c 0
 285.896484375 434 279.896484375 402 272.896484375 373 c 1
 277.896484375 366 280.896484375 366 285.896484375 374 c 1
 316.896484375 374 348.896484375 375 381.896484375 379 c 0
 414.896484375 383 443.896484375 388 470.896484375 392 c 0
 497.896484375 396 518.896484375 399 533.896484375 400 c 1
 535.896484375 411 537.896484375 421 538.896484375 430 c 0
 539.896484375 439 542.896484375 445 543.896484375 450 c 0
 549.896484375 470 554.896484375 497 560.896484375 533 c 0
 563.896484375 546 569.896484375 566 576.896484375 594 c 0
 583.896484375 622 589.896484375 639 590.896484375 645 c 0
 594.896484375 660 600.896484375 672 609.896484375 679 c 0
 618.896484375 686 626.896484375 690 635.896484375 690 c 1
 635.896484375 682 637.896484375 682 638.896484375 690 c 1
 647.896484375 690 654.896484375 688 658.896484375 683 c 0
 660.896484375 680 662.896484375 675 662.896484375 670 c 0
 662.896484375 665 661.896484375 657 659.896484375 648 c 0
 657.896484375 639 651.896484375 616 641.896484375 576 c 0
 631.896484375 536 623.896484375 502 616.896484375 472 c 0
 609.896484375 442 600.896484375 399 588.896484375 343 c 0
 579.896484375 297 564.896484375 236 544.896484375 161 c 0
 525.896484375 85 514.896484375 36 509.896484375 15 c 0
 506.896484375 4 499.896484375 -5 490.896484375 -12 c 0
 481.896484375 -19 472.896484375 -22 463.896484375 -22 c 0
 462.896484375 -22 460.896484375 -21 460.896484375 -21 c 2
 453.896484375 -21 447.896484375 -18 444.896484375 -13 c 0
 443.896484375 -11 441.896484375 -7 441.896484375 -2 c 0
 441.896484375 3 442.896484375 8 444.896484375 14 c 0
 470.896484375 107 494.896484375 211 518.896484375 327 c 1
 518.896484375 325 521.896484375 330 522.896484375 343 c 1
 517.896484375 334 512.896484375 334 507.896484375 342 c 1
 497.896484375 342 460.896484375 337 398.896484375 327 c 0
 336.896484375 317 290.896484375 312 265.896484375 312 c 2
 258.896484375 312 l 1
EndSplineSet
Validated: 1
EndChar

StartChar: I
Encoding: 73 73 51
Width: 640
GlyphClass: 2
Flags: HMW
HStem: -14 56<128.327 151.327> -6 53<380.828 382.827 358.327 397.828> 625 59<293.827 295.327 295.327 300.327 293.827 338.327>
LayerCount: 2
Fore
SplineSet
421.327148438 -7 m 0x60
 417.327148438 -7 406.328125 -6 389.328125 -6 c 0
 372.328125 -6 350.328125 -7 321.328125 -8 c 1
 300.583984375 -13.333984375 279.83984375 -16.208984375 259.095703125 -16.208984375 c 2
 216.327148438 -12 l 1
 176.327148438 -13 149.327148438 -14 135.327148438 -14 c 0xa0
 121.327148438 -14 113.327148438 -12 109.327148438 -8 c 0
 107.327148438 -6 106.327148438 -2 106.327148438 1 c 0
 106.327148438 3 107.327148438 6 107.327148438 8 c 0
 108.327148438 17 112.327148438 26 119.327148438 32 c 0
 126.327148438 38 138.327148438 42 151.327148438 42 c 0
 178.327148438 43 225.327148438 45 293.327148438 47 c 1x60
 325.327148438 166 353.327148438 290 378.327148438 418 c 0
 384.327148438 448 387.327148438 465 387.327148438 470 c 0
 389.327148438 481 394.327148438 501 401.327148438 532 c 0
 403.327148438 541 406.327148438 555 411.327148438 575 c 0
 416.327148438 595 421.327148438 607 421.327148438 610 c 1
 421.327148438 607 423.327148438 611 424.327148438 624 c 1
 388.327148438 624 359.327148438 625 338.327148438 625 c 2
 295.327148438 625 l 2
 287.327148438 625 281.327148438 624 281.327148438 624 c 2
 271.327148438 624 264.327148438 626 261.327148438 631 c 0
 259.327148438 633 258.327148438 637 258.327148438 642 c 2
 258.327148438 649 l 2
 259.327148438 658 264.327148438 666 271.327148438 673 c 0
 278.327148438 680 287.327148438 684 300.327148438 684 c 0
 349.327148438 685 394.327148438 686 436.327148438 686 c 0
 519.327148438 686 589.327148438 683 647.327148438 676 c 0
 655.327148438 676 661.327148438 673 665.327148438 670 c 0
 669.327148438 667 671.327148438 663 671.327148438 657 c 0
 671.327148438 655 670.327148438 652 670.327148438 650 c 0
 668.327148438 641 662.327148438 631 654.327148438 622 c 0
 651.327148438 618 647.327148438 615 642.327148438 613 c 0
 639.327148438 612 636.327148438 611 634.327148438 611 c 0
 632.327148438 611 631.327148438 612 629.327148438 612 c 0
 612.327148438 614 564.327148438 618 487.327148438 623 c 1
 482.327148438 596 478.327148438 578 474.327148438 568 c 0
 458.327148438 504 443.327148438 436 430.327148438 365 c 0
 421.327148438 318 408.327148438 258 391.327148438 188 c 0
 374.327148438 118 363.327148438 71 358.327148438 47 c 1
 371.327148438 47 l 2
 394.327148438 47 441.327148438 46 510.327148438 46 c 0
 519.327148438 46 526.327148438 44 527.327148438 42 c 0xa0
 528.327148438 40 529.327148438 36 529.327148438 31 c 2
 529.327148438 23 l 2
 527.327148438 13 522.327148438 5 517.327148438 -2 c 0
 515.327148438 -6 512.327148438 -8 509.327148438 -9 c 0
 506.327148438 -10 503.327148438 -12 501.327148438 -12 c 0
 499.327148438 -12 496.327148438 -11 494.327148438 -11 c 0
 479.327148438 -9 456.327148438 -7 421.327148438 -7 c 0x60
EndSplineSet
Validated: 1
EndChar

StartChar: J
Encoding: 74 74 52
Width: 640
GlyphClass: 2
Flags: HMW
HStem: -35 77<294.767 302.267> 611 65<635.767 653.767> 625 59<298.767 302.767 302.767 304.767 298.767 360.767>
VStem: 137.767 63<150 170.5 159.5 161.5>
LayerCount: 2
Fore
SplineSet
325.766601562 52 m 0xb0
 331.766601562 59 337.766601562 69 344.766601562 83 c 0
 357.766601562 112 372.766601562 159 387.766601562 224 c 0
 390.766601562 237 401.766601562 284 417.766601562 366 c 0
 433.766601562 445 450.766601562 531 471.766601562 623 c 1
 424.766601562 625 388.766601562 625 360.766601562 625 c 2
 302.766601562 625 l 2
 291.766601562 625 286.766601562 624 286.766601562 624 c 2
 276.766601562 624 269.766601562 626 266.766601562 631 c 0
 264.766601562 633 261.766601562 637 261.766601562 642 c 0
 261.766601562 644 262.766601562 647 262.766601562 649 c 0
 263.766601562 658 268.766601562 666 275.766601562 673 c 0
 282.766601562 680 292.766601562 684 304.766601562 684 c 0
 353.766601562 685 398.766601562 686 439.766601562 686 c 0
 521.766601562 686 591.766601562 683 649.766601562 676 c 0xd0
 657.766601562 676 663.766601562 673 667.766601562 670 c 0
 671.766601562 667 672.766601562 663 672.766601562 657 c 0
 672.766601562 655 671.766601562 652 671.766601562 650 c 0
 669.766601562 641 664.766601562 631 656.766601562 622 c 0
 652.766601562 618 649.766601562 615 644.766601562 613 c 0
 642.766601562 612 638.766601562 611 636.766601562 611 c 0
 634.766601562 611 631.766601562 612 629.766601562 612 c 0
 608.766601562 615 574.766601562 619 523.766601562 621 c 1
 517.766601562 595 510.766601562 563 503.766601562 523 c 0
 497.766601562 479 490.766601562 443 483.766601562 416 c 0
 477.766601562 384 470.766601562 349 462.766601562 309 c 0
 454.766601562 269 446.766601562 235 438.766601562 206 c 0
 421.766601562 146 403.766601562 98 386.766601562 62 c 0
 369.766601562 26 354.766601562 0 339.766601562 -14 c 0
 324.766601562 -28 309.766601562 -35 294.766601562 -35 c 0
 276.766601562 -35 258.766601562 -31 242.766601562 -24 c 0
 225.766601562 -17 211.766601562 -7 200.766601562 5 c 0
 189.766601562 17 179.766601562 31 170.766601562 46 c 0
 161.766601562 61 155.766601562 76 150.766601562 91 c 0
 145.766601562 106 141.766601562 118 140.766601562 129 c 0
 139.766601562 140 137.766601562 146 137.766601562 150 c 2
 137.766601562 159 l 2
 137.766601562 164 139.766601562 170 141.766601562 177 c 0
 143.766601562 184 146.766601562 191 149.766601562 197 c 0
 152.766601562 203 156.766601562 209 162.766601562 213 c 0
 168.766601562 217 175.766601562 221 182.766601562 222 c 0
 185.766601562 222 188.766601562 223 190.766601562 223 c 0
 195.766601562 223 199.766601562 221 201.766601562 218 c 0
 203.766601562 215 205.766601562 210 205.766601562 205 c 0
 205.766601562 203 204.766601562 199 204.766601562 196 c 0
 202.766601562 187 200.766601562 176 200.766601562 165 c 0
 200.766601562 154 202.766601562 142 205.766601562 128 c 0
 208.766601562 114 213.766601562 100 220.766601562 87 c 0
 227.766601562 74 239.766601562 64 254.766601562 55 c 0
 268.766601562 46 284.766601562 42 304.766601562 42 c 0
 311.766601562 42 319.766601562 45 325.766601562 52 c 0xb0
EndSplineSet
Validated: 1
EndChar

StartChar: K
Encoding: 75 75 53
Width: 640
GlyphClass: 2
Flags: HMW
HStem: -22 21G<141.563 147.063> 695 20G<628.062 631.062>
LayerCount: 2
Fore
SplineSet
119.063476562 10 m 0
 119.063476562 13 120.0625 18 122.0625 23 c 0
 131.0625 53 144.0625 110 163.0625 193 c 0
 181.0625 277 198.0625 363 216.0625 452 c 0
 225.0625 496 232.0625 526 235.0625 541 c 0
 237.0625 556 243.0625 578 250.0625 607 c 0
 257.0625 635 262.0625 653 263.0625 660 c 0
 267.0625 678 273.0625 691 281.0625 700 c 0
 289.0625 709 297.0625 714 306.0625 714 c 1
 307.0625 722 309.0625 722 309.0625 714 c 1
 317.0625 714 323.0625 711 327.0625 703 c 0
 329.0625 698 330.0625 692 330.0625 683 c 0
 330.0625 678 329.0625 674 328.0625 669 c 0
 325.0625 653 317.0625 618 304.0625 564 c 0
 291.0625 509 278.0625 452 265.0625 391 c 1
 407.0625 530 l 2
 448.0625 573 488.0625 611 530.0625 642 c 0
 563.0625 670 584.0625 688 593.0625 695 c 0
 602.0625 704 611.0625 710 618.0625 712 c 0
 623.0625 714 627.0625 715 629.0625 715 c 0
 633.0625 715 637.0625 711 640.0625 703 c 0
 642.0625 698 643.0625 692 643.0625 685 c 0
 643.0625 676 634.0625 665 617.0625 651 c 0
 605.0625 639 565.0625 603 496.0625 542 c 1
 432.0625 478 372.0625 419 317.0625 366 c 1
 322.0625 357 l 2
 336.0625 334 361.0625 296 397.0625 245 c 0
 433.0625 191 463.0625 145 488.0625 106 c 0
 513.041015625 71.0302734375 528.041992188 48.0400390625 530.063476562 39.0234375 c 0
 529.948242188 28.3505859375 527.916015625 17.7333984375 523.063476562 9 c 0
 519.063476562 0 514.063476562 -8 507.063476562 -13 c 0
 500.063476562 -18 495.063476562 -21 490.063476562 -21 c 0
 482.063476562 -21 475.063476562 -13 469.063476562 4 c 0
 465.063476562 13 449.063476562 36 422.063476562 73 c 0
 395.063476562 110 366.063476562 152 335.063476562 196 c 0
 304.063476562 245 282.063476562 283 269.063476562 310 c 2
 255.063476562 337 l 1
 244.063476562 286 l 1
 193.063476562 24 l 2
 189.063476562 9 182.063476562 -2 172.063476562 -10 c 0
 162.063476562 -18 152.063476562 -22 142.063476562 -22 c 0
 141.063476562 -22 139.063476562 -21 139.063476562 -21 c 2
 131.063476562 -21 125.063476562 -17 122.063476562 -8 c 0
 120.063476562 -3 119.063476562 3 119.063476562 10 c 0
EndSplineSet
Validated: 1
EndChar

StartChar: L
Encoding: 76 76 54
Width: 640
GlyphClass: 2
Flags: HMW
HStem: -15 62.9962
LayerCount: 2
Fore
SplineSet
532.440429688 72 m 0
 535.440429688 63 536.439453125 54 535.439453125 44 c 0
 533.439453125 35 528.439453125 27 523.439453125 22 c 0
 518.439453125 17 508.439453125 12 494.439453125 10 c 0
 451.439453125 1 391.439453125 -5 314.439453125 -9 c 0
 235.439453125 -13 175.439453125 -15 135.439453125 -15 c 0
 127.439453125 -15 121.439453125 -12 118.439453125 -7 c 0
 116.439453125 -5 115.439453125 -1 115.439453125 4 c 0
 115.439453125 9 116.439453125 14 118.439453125 20 c 0
 131.439453125 51 143.439453125 89 156.439453125 135 c 0
 179.439453125 206 200.439453125 275 218.439453125 341 c 0
 227.439453125 372 239.439453125 427 254.439453125 506 c 0
 269.439453125 585 277.439453125 629 278.439453125 636 c 0
 282.439453125 652 288.439453125 664 296.439453125 671 c 0
 304.439453125 678 312.439453125 682 320.439453125 682 c 1
 321.439453125 674 323.439453125 674 323.439453125 682 c 1
 330.439453125 682 336.439453125 679 340.439453125 674 c 0
 342.439453125 672 343.439453125 668 343.439453125 662 c 0
 343.439453125 656 342.439453125 650 341.439453125 645 c 0
 337.439453125 626 332.439453125 600 324.439453125 567 c 0
 315.439453125 517 305.439453125 475 295.439453125 441 c 0
 284.439453125 389 274.439453125 345 264.439453125 309 c 0
 258.439453125 281 248.439453125 240 233.439453125 187 c 0
 217.439453125 134 206.439453125 92 199.439453125 62 c 0
 198.8515625 54.35546875 197.91796875 49.8232421875 197.044921875 47.99609375 c 1
 211.0859375 47.9287109375 219.62109375 47 224.440429688 47 c 0
 268.440429688 47 320.440429688 51 380.440429688 58 c 0
 444.440429688 65 490.440429688 72 515.440429688 78 c 1
 522.440429688 78 l 2
 527.440429688 78 530.440429688 76 532.440429688 72 c 0
EndSplineSet
Validated: 1
EndChar

StartChar: M
Encoding: 77 77 55
Width: 640
GlyphClass: 2
Flags: HMW
HStem: 664 20G
VStem: 114.735 1<-14.5 -10> 491.736 62<39 84 51.5 71>
LayerCount: 2
Fore
SplineSet
311.736328125 -7 m 1
 304.736328125 -7 299.736328125 -5 296.736328125 -1 c 0
 293.736328125 4 290.736328125 11 290.736328125 19 c 0
 290.736328125 51 295.736328125 124 304.736328125 239 c 0
 313.736328125 354 321.736328125 464 330.736328125 570 c 0
 332.736328125 610 337.736328125 648 340.736328125 684 c 1
 330.736328125 651 319.736328125 616 308.736328125 578 c 0
 293.736328125 529 278.736328125 470 260.736328125 403 c 0
 250.736328125 364 237.736328125 316 221.736328125 257 c 0
 212.736328125 224 203.736328125 194 195.736328125 167 c 0
 185.736328125 137 177.736328125 113 172.736328125 95 c 0
 167.736328125 78 162.736328125 65 161.736328125 58 c 0
 157.736328125 37 150.736328125 20 140.736328125 8 c 0
 131.736328125 -4 124.736328125 -10 115.736328125 -10 c 1
 115.736328125 -19 114.736328125 -19 114.736328125 -10 c 1
 113.736328125 -10 111.736328125 -8 110.736328125 -7 c 0
 106.736328125 -5 103.736328125 6 103.736328125 25 c 0
 103.736328125 33 106.736328125 44 109.736328125 58 c 0
 111.736328125 66 114.736328125 79 120.736328125 98 c 0
 126.736328125 118 135.736328125 144 146.736328125 178 c 0
 157.736328125 214 167.736328125 241 172.736328125 260 c 2
 219.736328125 412 l 2
 227.736328125 441 236.736328125 477 249.736328125 519 c 0
 273.736328125 601 291.736328125 649 302.736328125 666 c 0
 309.736328125 679 317.736328125 689 328.736328125 695 c 0
 339.736328125 701 349.736328125 704 357.736328125 704 c 2
 361.736328125 704 l 1
 362.736328125 704 l 2
 371.736328125 704 378.736328125 702 383.736328125 697 c 0
 388.736328125 691 389.736328125 681 389.736328125 667 c 2
 389.736328125 659 l 2
 389.736328125 606 378.736328125 483 356.736328125 291 c 0
 346.736328125 198 340.736328125 137 338.736328125 107 c 1
 345.736328125 97 353.736328125 95 360.736328125 102 c 1
 386.736328125 201 410.736328125 289 433.736328125 368 c 0
 450.736328125 425 469.736328125 482 490.736328125 539 c 0
 511.736328125 595 527.736328125 638 541.736328125 668 c 0
 545.736328125 678 551.736328125 686 558.736328125 692 c 0
 566.736328125 698 573.736328125 702 579.736328125 703 c 0
 585.736328125 703 591.736328125 704 594.736328125 704 c 2
 602.736328125 704 l 1
 606.736328125 704 l 1
 618.736328125 704 l 2
 620.736328125 704 625.736328125 703 629.736328125 702 c 0
 633.736328125 700 636.736328125 697 637.736328125 695 c 0
 638.736328125 693 639.736328125 689 640.736328125 683 c 0
 641.736328125 679 642.736328125 674 642.736328125 668 c 2
 642.736328125 665 l 2
 640.736328125 644 625.736328125 546 596.736328125 370 c 0
 568.736328125 195 553.736328125 96 553.736328125 72 c 0
 553.736328125 31 542.736328125 6 522.736328125 -4 c 0
 518.736328125 -6 515.736328125 -7 512.736328125 -7 c 0
 509.736328125 -7 504.736328125 -5 501.736328125 -2 c 0
 494.736328125 3 491.736328125 17 491.736328125 39 c 2
 491.736328125 44 l 2
 491.736328125 98 524.736328125 294 589.736328125 632 c 1
 582.736328125 642 573.736328125 644 565.736328125 639 c 1
 525.736328125 537 495.736328125 446 473.736328125 363 c 0
 451.736328125 286 429.736328125 212 406.736328125 143 c 0
 383.736328125 74 368.736328125 32 360.736328125 17 c 0
 353.736328125 1 337.736328125 -7 315.736328125 -7 c 1
 314.736328125 -15 312.736328125 -15 311.736328125 -7 c 1
EndSplineSet
Validated: 1
EndChar

StartChar: N
Encoding: 78 78 56
Width: 640
GlyphClass: 2
Flags: HMW
HStem: -12 21G<127.241 133.741> 685 20G<311.741 314.741 641.741 648.741>
LayerCount: 2
Fore
SplineSet
558.241210938 190 m 0
 544.241210938 133 533.241210938 90 525.241210938 63 c 0
 516.241210938 35 510.241210938 18 507.241210938 11 c 0
 500.241210938 -6 486.241210938 -14 464.241210938 -14 c 1
 463.241210938 -22 461.241210938 -22 460.241210938 -14 c 1
 453.241210938 -14 448.241210938 -12 445.241210938 -7 c 0
 441.241210938 -2 438.241210938 5 438.241210938 13 c 0
 436.241210938 26 429.241210938 56 416.241210938 101 c 2
 377.241210938 246 l 2
 364.241210938 295 350.241210938 349 337.241210938 410 c 0
 324.241210938 471 316.241210938 523 312.241210938 565 c 0
 310.241210938 595 306.241210938 624 304.241210938 653 c 1
 299.241210938 626 294.241210938 597 289.241210938 567 c 0
 277.241210938 494 264.241210938 425 250.241210938 362 c 0
 235.241210938 298 219.241210938 233 202.241210938 167 c 0
 185.241210938 103 175.241210938 63 173.241210938 49 c 0
 170.241210938 27 163.241210938 11 154.241210938 2 c 0
 146.241210938 -7 138.241210938 -12 129.241210938 -12 c 0
 125.241210938 -12 122.241210938 -10 120.241210938 -8 c 0
 118.241210938 -6 116.241210938 3 116.241210938 17 c 0
 116.241210938 25 118.241210938 35 121.241210938 48 c 0
 123.241210938 62 137.241210938 114 159.241210938 204 c 2
 218.241210938 443 l 2
 234.241210938 512 248.241210938 578 259.241210938 640 c 0
 261.241210938 653 264.241210938 664 269.241210938 673 c 0
 273.241210938 683 278.241210938 690 284.241210938 695 c 0
 291.241210938 699 296.241210938 702 301.241210938 703 c 0
 306.241210938 704 310.241210938 705 313.241210938 705 c 0
 316.241210938 705 320.241210938 704 322.241210938 704 c 0
 331.241210938 704 338.241210938 702 343.241210938 697 c 0
 347.241210938 692 350.241210938 682 350.241210938 668 c 0
 352.241210938 625 369.241210938 543 399.241210938 422 c 0
 428.241210938 301 454.241210938 204 476.241210938 130 c 0
 480.241210938 115 484.241210938 102 488.241210938 92 c 1
 491.241210938 103 495.241210938 116 498.241210938 132 c 0
 513.241210938 195 534.241210938 288 559.241210938 409 c 0
 586.241210938 530 601.241210938 609 605.241210938 649 c 0
 607.241210938 664 612.241210938 677 620.241210938 688 c 0
 629.241210938 699 637.241210938 705 646.241210938 705 c 0
 651.241210938 705 656.241210938 704 658.241210938 703 c 0
 660.241210938 702 663.241210938 700 664.241210938 698 c 0
 665.241210938 693 666.241210938 685 666.241210938 673 c 0
 666.241210938 671 665.241210938 664 664.241210938 654 c 0
 664.241210938 643 652.241210938 590 630.241210938 495 c 0
 609.241210938 397 585.241210938 295 558.241210938 190 c 0
EndSplineSet
Validated: 1
EndChar

StartChar: O
Encoding: 79 79 57
Width: 640
GlyphClass: 2
Flags: HMW
HStem: -24 72<294.379 295.379> 649 44<468.379 469.879>
VStem: 153.379 70<138.5 181.5> 560.379 65<517 533 517 534>
LayerCount: 2
Fore
SplineSet
600.37890625 367 m 0
 592.37890625 329 582.37890625 291 571.37890625 252 c 0
 560.37890625 213 549.37890625 183 538.37890625 161 c 0
 524.37890625 130 509.37890625 104 493.37890625 82 c 0
 478.37890625 61 462.37890625 43 447.37890625 29 c 0
 432.37890625 15 416.37890625 5 398.37890625 -3 c 0
 380.37890625 -11 362.37890625 -17 344.37890625 -20 c 0
 326.37890625 -23 306.37890625 -24 284.37890625 -24 c 0
 251.37890625 -24 222.37890625 -12 200.37890625 10 c 0
 178.37890625 32 163.37890625 62 156.37890625 101 c 0
 154.37890625 116 153.37890625 131 153.37890625 146 c 0
 153.37890625 161 157.37890625 189 164.37890625 231 c 0
 165.37890625 234 167.37890625 240 168.37890625 248 c 0
 175.37890625 278 180.37890625 302 185.37890625 320 c 0
 190.37890625 338 196.37890625 362 205.37890625 392 c 0
 222.37890625 448 244.37890625 501 273.37890625 551 c 0
 295.37890625 593 325.37890625 627 365.37890625 653 c 0
 405.37890625 679 447.37890625 693 489.37890625 693 c 0
 510.37890625 693 530.37890625 688 549.37890625 679 c 0
 568.37890625 670 583.37890625 657 596.37890625 639 c 0
 609.37890625 621 617.37890625 598 622.37890625 570 c 0
 624.37890625 556 625.37890625 541 625.37890625 525 c 0
 625.37890625 509 623.37890625 492 621.37890625 473 c 0
 616.37890625 440 608.37890625 405 600.37890625 367 c 0
349.37890625 55 m 0
 365.37890625 60 381.37890625 67 397.37890625 77 c 0
 413.37890625 87 427.37890625 101 441.37890625 118 c 0
 455.37890625 135 467.37890625 154 478.37890625 176 c 0
 483.37890625 184 490.37890625 204 499.37890625 237 c 0
 508.37890625 269 519.37890625 307 530.37890625 351 c 0
 541.37890625 395 550.37890625 439 557.37890625 481 c 0
 559.37890625 494 560.37890625 507 560.37890625 519 c 0
 560.37890625 549 555.37890625 576 542.37890625 598 c 0
 531.37890625 617 518.37890625 630 502.37890625 639 c 0
 491.37890625 646 477.37890625 649 462.37890625 649 c 0
 429.37890625 649 398.37890625 635 370.37890625 606 c 0
 343.37890625 579 320.37890625 541 300.37890625 492 c 0
 273.37890625 428 251.37890625 352 234.37890625 265 c 0
 227.37890625 225 223.37890625 194 223.37890625 169 c 0
 223.37890625 140 227.37890625 116 234.37890625 97 c 0
 239.37890625 83 248.37890625 71 260.37890625 62 c 0
 272.37890625 53 286.37890625 48 302.37890625 48 c 0
 318.37890625 48 333.37890625 50 349.37890625 55 c 0
EndSplineSet
Validated: 1
EndChar

StartChar: P
Encoding: 80 80 58
Width: 640
GlyphClass: 2
Flags: HMW
HStem: 230 69<329.42 352.42 327.42 365.42> 642 45<430.92 476.42>
VStem: 262.92 3 558.92 62<538.5 539.5>
LayerCount: 2
Fore
SplineSet
323.919921875 633 m 1
 319.919921875 614 313.919921875 587 304.919921875 551 c 0
 295.919921875 515 286.919921875 478 278.919921875 440 c 0
 270.919921875 402 261.919921875 361 252.919921875 319 c 1
 261.919921875 315 l 2
 283.919921875 304 310.919921875 299 343.919921875 299 c 0
 360.919921875 299 375.919921875 301 390.919921875 304 c 0
 405.919921875 307 418.919921875 311 430.919921875 316 c 0
 442.919921875 321 452.919921875 328 462.919921875 336 c 0
 472.919921875 344 482.919921875 352 489.919921875 360 c 0
 496.919921875 368 503.919921875 378 510.919921875 389 c 0
 517.919921875 400 522.919921875 409 526.919921875 418 c 0
 530.919921875 427 534.919921875 437 538.919921875 448 c 0
 542.919921875 459 546.919921875 469 548.919921875 476 c 0
 550.919921875 483 553.919921875 493 555.919921875 504 c 0
 557.919921875 515 558.919921875 526 558.919921875 535 c 0
 558.919921875 544 558.919921875 551 557.919921875 558 c 0
 554.919921875 575 547.919921875 588 538.919921875 599 c 0
 529.919921875 610 520.919921875 618 507.919921875 625 c 0
 496.919921875 632 484.919921875 637 473.919921875 639 c 0
 462.919921875 641 451.919921875 642 440.919921875 642 c 0
 420.919921875 642 382.919921875 639 323.919921875 633 c 1
161.919921875 141 m 0
 168.919921875 163 174.920898438 193 180.920898438 231 c 0
 187.920898438 258 195.920898438 294 202.920898438 337 c 0
 211.920898438 379 217.920898438 414 223.920898438 442 c 0
 234.706054688 490.04296875 248.375 547.69921875 264.927734375 614.96875 c 0
 264.279296875 615.579101562 263.456054688 618.640625 262.919921875 624 c 1
 261.919921875 617 259.919921875 619 259.919921875 628 c 0
 259.919921875 630 258.919921875 632 258.919921875 634 c 0
 258.919921875 636 259.919921875 640 260.919921875 642 c 0
 262.919921875 649 265.919921875 655 270.919921875 660 c 0
 275.919921875 665 280.919921875 668 284.919921875 669 c 0
 305.919921875 674 335.919921875 679 375.919921875 682 c 0
 415.919921875 685 442.919921875 687 457.919921875 687 c 0
 494.919921875 687 528.919921875 680 555.919921875 665 c 0
 582.919921875 650 601.919921875 627 612.919921875 598 c 0
 618.919921875 581 620.919921875 563 620.919921875 543 c 0
 620.919921875 534 619.919921875 516 615.919921875 489 c 0
 606.919921875 453 593.919921875 420 574.919921875 388 c 0
 555.919921875 356 535.919921875 328 511.919921875 305 c 0
 489.919921875 282 463.919921875 263 435.919921875 250 c 0
 407.919921875 237 379.919921875 230 350.919921875 230 c 0
 307.919921875 230 273.919921875 233 251.919921875 240 c 1
 246.919921875 233 243.919921875 235 239.919921875 244 c 1
 232.919921875 207 227.919921875 176 223.919921875 151 c 0
 219.919921875 126 212.919921875 81 201.919921875 14 c 0
 199.919921875 4 192.919921875 -4 182.919921875 -10 c 0
 172.919921875 -16 163.919921875 -19 153.919921875 -19 c 0
 143.919921875 -19 136.919921875 -16 131.919921875 -11 c 0
 129.919921875 -9 127.919921875 -5 127.919921875 -1 c 0
 127.919921875 3 129.919921875 7 131.919921875 14 c 0
 138.919921875 42 148.919921875 84 161.919921875 141 c 0
EndSplineSet
Validated: 1
EndChar

StartChar: Q
Encoding: 81 81 59
Width: 640
GlyphClass: 2
Flags: HMW
HStem: -39 20G -24 72 649 44
VStem: 156.617 71 328.617 46<146.5 196.5> 559.617 65
LayerCount: 2
Fore
SplineSet
332.6171875 48 m 1x7c
 346.6171875 48 l 1
 343.6171875 63 l 2
 336.6171875 92 331.6171875 115 329.6171875 132 c 0
 329.6171875 138 328.6171875 144 328.6171875 149 c 0
 328.6171875 174 335.6171875 193 350.6171875 204 c 0
 355.6171875 208 360.6171875 210 364.6171875 210 c 0
 366.6171875 210 367.6171875 210 369.6171875 208 c 0
 371.6171875 206 374.6171875 200 374.6171875 193 c 0
 376.6171875 160 385.6171875 123 397.6171875 82 c 2
 401.6171875 67 l 1
 412.6171875 75 l 2
 442.6171875 96 467.6171875 129 484.6171875 173 c 0
 489.6171875 183 495.6171875 203 503.6171875 234 c 0
 512.6171875 265 521.6171875 303 532.6171875 349 c 0
 543.6171875 395 551.6171875 439 556.6171875 481 c 0
 558.6171875 494 559.6171875 507 559.6171875 519 c 0
 559.6171875 552 553.6171875 579 540.6171875 601 c 0
 530.6171875 618 518.6171875 631 502.6171875 639 c 0
 491.6171875 646 477.6171875 649 462.6171875 649 c 0
 429.6171875 649 398.6171875 635 370.6171875 608 c 0
 342.6171875 581 320.6171875 543 300.6171875 494 c 0
 269.6171875 423 247.6171875 347 234.6171875 264 c 0
 230.6171875 240 227.6171875 218 227.6171875 197 c 0
 227.6171875 184 229.6171875 171 231.6171875 158 c 0
 236.6171875 125 245.6171875 99 261.6171875 79 c 0
 278.6171875 58 298.6171875 48 323.6171875 48 c 2
 332.6171875 48 l 1x7c
441.6171875 -211 m 0
 434.6171875 -209 429.618164062 -203.999023438 426.618164062 -194.999023438 c 0
 421.618164062 -182.999023438 412.618164062 -159.999023438 400.618164062 -127.999023438 c 0
 388.618164062 -95.9990234375 376.618164062 -59.9990234375 363.618164062 -18.9990234375 c 1xbc
 361.618164062 -27.9990234375 356.618164062 -27.9990234375 353.618164062 -20.9990234375 c 1
 338.618164062 -22.9990234375 322.618164062 -23.9990234375 305.618164062 -23.9990234375 c 0
 282.618164062 -23.9990234375 261.618164062 -19.9990234375 241.618164062 -10.9990234375 c 0
 221.618164062 -1.9990234375 206.618164062 10.0009765625 194.618164062 25.0009765625 c 0
 182.618164062 40.0009765625 172.618164062 60.0009765625 165.618164062 81.0009765625 c 0
 158.618164062 102.000976562 156.618164062 126.000976562 156.618164062 152.000976562 c 0
 156.618164062 178.000976562 158.618164062 205.000976562 163.618164062 232.000976562 c 0
 188.618164062 360.000976562 226.618164062 465.000976562 273.618164062 547.000976562 c 0
 295.618164062 589.000976562 326.618164062 623.000976562 366.618164062 651.000976562 c 0
 406.618164062 679.000976562 447.618164062 693.000976562 489.618164062 693.000976562 c 0
 534.618164062 693.000976562 569.618164062 677.000976562 594.618164062 644.000976562 c 0
 607.618164062 627.000976562 615.618164062 605.000976562 620.618164062 576.000976562 c 0
 622.618164062 561.000976562 624.618164062 545.000976562 624.618164062 528.000976562 c 0
 624.618164062 511.000976562 622.618164062 493.000976562 620.618164062 473.000976562 c 0
 614.618164062 427.000976562 603.618164062 372.000976562 587.618164062 307.000976562 c 0
 571.618164062 242.000976562 554.618164062 191.000976562 539.618164062 155.000976562 c 0
 511.618164062 86.0009765625 474.618164062 36.0009765625 427.618164062 7.0009765625 c 1
 425.044921875 -1.5751953125 421.736328125 -4.267578125 419.584960938 -0.4453125 c 1
 436.262695312 -42.5927734375 452.958984375 -83.77734375 470.6171875 -124 c 0
 475.6171875 -144 481.6171875 -155 486.6171875 -158 c 0
 486.6171875 -160 487.6171875 -163 487.6171875 -165 c 0
 487.6171875 -167 487.6171875 -170 486.6171875 -173 c 0
 484.6171875 -180 479.6171875 -187 474.6171875 -193 c 0
 469.6171875 -199 466.6171875 -205 462.6171875 -207 c 0
 457.6171875 -210 452.6171875 -212 447.6171875 -212 c 0
 445.6171875 -212 443.6171875 -211 441.6171875 -211 c 0
EndSplineSet
Validated: 1
EndChar

StartChar: R
Encoding: 82 82 60
Width: 640
GlyphClass: 2
Flags: HMW
VStem: 149.886 1<-21 -19> 329.886 3 332.886 4<682 682> 558.886 64<459.5 483>
LayerCount: 2
Fore
SplineSet
486.885742188 -17 m 0xd0
 480.885742188 -15 475.885742188 -9 471.885742188 0 c 0
 464.885742188 15 455.885742188 32 442.885742188 53 c 0
 429.885742188 74 414.885742188 97 395.885742188 122 c 0
 376.885742188 147 355.885742188 172 329.885742188 197 c 0
 303.885742188 222 278.885742188 242 252.885742188 257 c 0
 251.182617188 255.296875 249.595703125 254.40625 248.045898438 254.40625 c 0
 245.044921875 254.40625 242.182617188 257.74609375 238.885742188 265 c 1
 238.885742188 253.838867188 237.411132812 248.57421875 236.361328125 248.57421875 c 0
 236.188476562 248.57421875 236.02734375 248.716796875 235.885742188 249 c 1
 228.885742188 210 220.885742188 165 213.885742188 112 c 0
 206.885742188 59 202.885742188 27 200.885742188 14 c 0
 198.885742188 4 192.885742188 -4 182.885742188 -10 c 0
 172.885742188 -16 163.885742188 -19 152.885742188 -19 c 2
 150.885742188 -19 l 1
 150.885742188 -23 150.635742188 -25 150.385742188 -25 c 0
 150.135742188 -25 149.885742188 -23 149.885742188 -19 c 1
 140.885742188 -19 133.885742188 -16 129.885742188 -11 c 0
 128.885742188 -9 126.885742188 -5 126.885742188 -1 c 0
 126.885742188 3 127.885742188 8 129.885742188 14 c 0
 140.885742188 49 148.885742188 79 154.885742188 104 c 0
 160.885742188 129 174.885742188 189 195.885742188 284 c 0
 197.885742188 298 204.885742188 325 215.885742188 365 c 0
 226.885742188 407 236.885742188 446 243.885742188 483 c 0
 247.885742188 505 251.885742188 537 257.885742188 576 c 0
 263.885742188 615 267.885742188 638 269.885742188 645 c 1
 217.922851562 468.625 191.922851562 380.375 191.885742188 380.375 c 1
 191.885742188 380.375 217.848632812 468.875 269.885742188 646 c 1
 269.885742188 643.215820312 270.043945312 641.85546875 270.234375 641.85546875 c 0
 270.522460938 641.85546875 270.885742188 644.9765625 270.885742188 651 c 0
 271.885742188 661 276.885742188 670 285.885742188 678 c 0
 292.885742188 686 301.885742188 690 311.885742188 690 c 0
 320.885742188 690 326.885742188 688 329.885742188 685 c 0
 330.448242188 679.9375 331.327148438 677.40625 331.98828125 677.40625 c 0
 332.502929688 677.40625 332.885742188 678.9375 332.885742188 682 c 1
 333.385742188 678 334.135742188 676 334.885742188 676 c 0
 335.635742188 676 336.385742188 678 336.885742188 682 c 1xb0
 380.885742188 680 421.885742188 672 456.885742188 661 c 0
 491.885742188 649 521.885742188 635 543.885742188 619 c 0
 565.885742188 603 584.885742188 584 597.885742188 563 c 0
 610.885742188 542 619.885742188 523 621.885742188 502 c 0
 621.885742188 495 622.885742188 487 622.885742188 479 c 0
 622.885742188 466 620.885742188 453 618.885742188 440 c 0
 611.885742188 409 598.885742188 383 578.885742188 363 c 0
 569.885742188 354 558.885742188 345 545.885742188 337 c 0
 532.885742188 329 519.885742188 323 505.885742188 318 c 0
 492.885742188 313 477.885742188 308 460.885742188 304 c 0
 443.885742188 300 427.885742188 295 410.885742188 293 c 0
 393.885742188 291 374.885742188 289 353.885742188 287 c 1
 347.698242188 281.9375 341.510742188 279.40625 335.323242188 279.40625 c 2
 320.885742188 284 l 1
 329.249023438 270.060546875 338.4765625 263.893554688 346.961914062 263.893554688 c 0
 347.607421875 263.893554688 348.249023438 263.9296875 348.885742188 264 c 0
 397.885742188 230 437.885742188 190 470.885742188 146 c 0
 504.885742188 102 525.885742188 64 532.885742188 33 c 1
 532.885742188 30 l 2
 532.885742188 22 530.885742188 15 526.885742188 8 c 0
 521.885742188 -1 514.885742188 -7 507.885742188 -12 c 0
 501.885742188 -16 496.885742188 -18 491.885742188 -18 c 0
 490.885742188 -18 488.885742188 -17 486.885742188 -17 c 0xd0
478.885742188 368 m 0
 490.885742188 372 501.885742188 377 512.885742188 384 c 0
 534.885742188 397 549.885742188 417 555.885742188 442 c 0
 557.885742188 449 558.885742188 456 558.885742188 463 c 0
 558.885742188 477 555.885742188 491 548.885742188 504 c 0
 538.885742188 524 524.885742188 540 507.885742188 554 c 0
 491.885742188 568 472.885742188 581 451.885742188 592 c 0
 411.885742188 613 373.885742188 628 333.885742188 636 c 2
 323.885742188 638 l 1
 312.885742188 581 303.885742188 535 297.885742188 500 c 0
 296.885742188 493 293.885742188 480 288.885742188 462 c 0
 283.885742188 444 273.885742188 407 256.885742188 350 c 1
 268.885742188 347 l 2
 275.885742188 346 285.885742188 345 296.885742188 345 c 2
 299.885742188 345 l 2
 301.885742188 345 311.885742188 346 330.885742188 347 c 0
 400.885742188 350 449.885742188 357 478.885742188 368 c 0
EndSplineSet
Validated: 1
EndChar

StartChar: S
Encoding: 83 83 61
Width: 640
GlyphClass: 2
Flags: HMW
HStem: -29 62<286.911 290.911> 668 56<495.911 540.911>
VStem: 247.411 70<474 520.5> 511.411 71<234.5 287.5>
LayerCount: 2
Fore
SplineSet
150.411132812 117 m 0
 157.411132812 120 163.411132812 123 166.411132812 123 c 0
 169.411132812 123 173.411132812 124 174.411132812 124 c 2
 179.411132812 124 l 2
 180.411132812 124 182.411132812 122 184.411132812 119 c 0
 186.411132812 116 190.411132812 110 193.411132812 103 c 0
 201.411132812 82 214.411132812 65 234.411132812 52 c 0
 252.411132812 39 274.411132812 33 299.411132812 33 c 0
 314.411132812 33 330.411132812 36 347.411132812 41 c 0
 364.411132812 46 380.411132812 52 397.411132812 62 c 0
 414.411132812 72 430.411132812 84 445.411132812 97 c 0
 460.411132812 110 472.411132812 125 483.411132812 143 c 0
 494.411132812 161 502.411132812 180 506.411132812 200 c 0
 509.411132812 216 511.411132812 229 511.411132812 240 c 0
 511.411132812 259 508.411132812 275 501.411132812 290 c 0
 496.411132812 299 489.411132812 308 480.411132812 317 c 0
 471.411132812 326 461.411132812 334 448.411132812 341 c 0
 435.411132812 348 420.411132812 353 401.411132812 358 c 0
 382.411132812 363 361.411132812 368 338.411132812 371 c 0
 320.411132812 373 304.411132812 380 291.411132812 389 c 0
 278.411132812 398 269.411132812 409 262.411132812 422 c 0
 252.411132812 442 247.411132812 463 247.411132812 485 c 0
 247.411132812 492 247.411132812 499 249.411132812 508 c 0
 254.411132812 530 261.411132812 551 272.411132812 572 c 0
 283.411132812 593 297.411132812 612 314.411132812 631 c 0
 331.411132812 650 351.411132812 666 372.411132812 680 c 0
 393.411132812 694 418.411132812 704 446.411132812 712 c 0
 474.411132812 720 502.411132812 724 533.411132812 724 c 0
 548.411132812 724 570.411132812 722 597.411132812 719 c 0
 624.411132812 716 643.411132812 712 652.411132812 708 c 0
 659.411132812 706 664.411132812 701 666.411132812 694 c 0
 666.411132812 691 667.411132812 687 667.411132812 683 c 0
 667.411132812 679 666.411132812 673 664.411132812 667 c 0
 662.411132812 661 659.411132812 656 656.411132812 654 c 0
 653.411132812 652 649.411132812 649 645.411132812 649 c 0
 641.411132812 649 638.411132812 648 634.411132812 648 c 0
 630.411132812 648 626.411132812 649 621.411132812 650 c 0
 619.411132812 650 615.411132812 652 613.411132812 653 c 0
 602.411132812 656 594.411132812 660 587.411132812 661 c 0
 580.411132812 662 570.411132812 664 556.411132812 665 c 0
 542.411132812 667 526.411132812 668 509.411132812 668 c 0
 482.411132812 668 455.411132812 663 429.411132812 653 c 0
 403.411132812 643 379.411132812 628 358.411132812 608 c 0
 337.411132812 588 325.411132812 566 320.411132812 540 c 0
 318.411132812 532 317.411132812 524 317.411132812 517 c 0
 317.411132812 495 325.411132812 476 338.411132812 460 c 0
 355.411132812 439 383.411132812 428 421.411132812 426 c 0
 451.411132812 424 477.411132812 418 498.411132812 409 c 0
 519.411132812 400 536.411132812 389 547.411132812 376 c 0
 559.411132812 363 568.411132812 348 574.411132812 331 c 0
 580.411132812 314 582.411132812 296 582.411132812 279 c 0
 582.411132812 262 581.411132812 243 576.411132812 223 c 0
 569.411132812 192 558.411132812 164 543.411132812 137 c 0
 528.411132812 110 512.411132812 87 492.411132812 67 c 0
 472.411132812 47 451.411132812 30 428.411132812 15 c 0
 405.411132812 0 379.411132812 -11 354.411132812 -18 c 0
 329.411132812 -25 303.411132812 -29 278.411132812 -29 c 0
 238.411132812 -29 206.411132812 -20 179.411132812 -2 c 0
 152.411132812 16 135.411132812 36 129.411132812 60 c 0
 128.411132812 67 127.411132812 74 127.411132812 80 c 0
 127.411132812 86 129.411132812 92 131.411132812 97 c 0
 135.411132812 106 141.411132812 112 150.411132812 117 c 0
EndSplineSet
Validated: 1
EndChar

StartChar: T
Encoding: 84 84 62
Width: 640
GlyphClass: 2
Flags: HMW
HStem: 612 64<620.9 648.4 620.9 648.4>
LayerCount: 2
Fore
SplineSet
361.900390625 303 m 0
 389.900390625 459 407.900390625 560 416.900390625 606 c 1
 416.900390625 603 418.900390625 607 419.900390625 620 c 1
 335.900390625 625 288.900390625 628 276.900390625 630 c 0
 256.900390625 633 246.900390625 640 246.900390625 649 c 0
 246.900390625 651 247.900390625 653 247.900390625 655 c 0
 248.900390625 665 254.900390625 674 263.900390625 682 c 0
 269.900390625 687 276.900390625 690 283.900390625 690 c 0
 285.900390625 690 287.900390625 689 289.900390625 689 c 0
 322.900390625 682 439.900390625 678 642.900390625 676 c 0
 653.900390625 676 660.900390625 674 662.900390625 670 c 0
 664.900390625 666 665.900390625 662 665.900390625 657 c 0
 665.900390625 655 664.900390625 652 664.900390625 650 c 0
 662.900390625 640 656.900390625 631 648.900390625 622 c 0
 641.900390625 615 633.900390625 612 624.900390625 612 c 2
 620.900390625 612 l 2
 602.150390625 609.75 583.822265625 608.625 565.916015625 608.625 c 0
 536.072265625 608.625 507.400390625 611.75 479.900390625 618 c 1
 451.900390625 475 414.900390625 277 369.900390625 24 c 0
 366.900390625 13 359.900390625 4 349.900390625 -3 c 0
 339.900390625 -10 329.900390625 -13 320.900390625 -13 c 2
 317.900390625 -13 l 2
 309.900390625 -13 303.900390625 -10 299.900390625 -5 c 0
 298.900390625 -3 297.900390625 1 297.900390625 6 c 0
 297.900390625 11 298.900390625 16 300.900390625 23 c 0
 309.900390625 54 330.900390625 147 361.900390625 303 c 0
EndSplineSet
Validated: 1
EndChar

StartChar: U
Encoding: 85 85 63
Width: 640
GlyphClass: 2
Flags: HMW
HStem: -29 67<285.28 342.28>
VStem: 145.28 68<141.5 183.5> 245.28 62
LayerCount: 2
Fore
SplineSet
577.280273438 251 m 0
 570.280273438 222 561.280273438 194 548.280273438 168 c 0
 537.280273438 143 524.280273438 121 511.280273438 102 c 0
 498.280273438 83 485.280273438 66 470.280273438 51 c 0
 455.280273438 36 440.280273438 24 425.280273438 14 c 0
 410.280273438 4 395.280273438 -5 379.280273438 -11 c 0
 363.280273438 -17 349.280273438 -21 335.280273438 -24 c 0
 321.280273438 -27 306.280273438 -29 292.280273438 -29 c 0
 278.280273438 -29 263.280273438 -27 248.280273438 -22 c 0
 232.280273438 -17 216.280273438 -8 201.280273438 4 c 0
 186.280273438 16 174.280273438 31 164.280273438 49 c 0
 154.280273438 67 148.280273438 91 146.280273438 121 c 0
 146.280273438 129 145.280273438 137 145.280273438 146 c 0
 145.280273438 170 147.280273438 196 152.280273438 224 c 0
 194.280273438 427 225.280273438 564 245.280273438 637 c 0
 249.280273438 653 256.280273438 665 265.280273438 673 c 0
 274.280273438 681 283.280273438 685 292.280273438 685 c 0
 298.280273438 685 302.280273438 684 304.280273438 681 c 0
 306.280273438 678 307.280273438 673 307.280273438 667 c 0
 307.280273438 661 305.280273438 655 304.280273438 648 c 0
 254.280273438 422 225.280273438 285 218.280273438 238 c 0
 214.280273438 214 213.280273438 193 213.280273438 174 c 0
 213.280273438 160 214.280273438 146 216.280273438 131 c 0
 219.280273438 113 226.280273438 97 234.280273438 83 c 0
 242.280273438 69 254.280273438 59 269.280273438 50 c 0
 284.280273438 42 300.280273438 38 320.280273438 38 c 0
 364.280273438 38 403.280273438 54 437.280273438 88 c 0
 471.280273438 122 496.280273438 172 514.280273438 239 c 0
 523.280273438 267 533.280273438 303 542.280273438 345 c 0
 552.280273438 387 561.280273438 426 568.280273438 459 c 0
 591.280273438 566 604.280273438 623 605.280273438 629 c 0
 612.280273438 656 620.280273438 673 628.280273438 679 c 0
 632.280273438 682 635.280273438 685 638.280273438 685 c 0
 641.280273438 685 645.280273438 686 650.280273438 686 c 0
 655.280273438 686 658.280273438 685 660.280273438 684 c 0
 662.280273438 683 665.280273438 680 667.280273438 676 c 0
 669.280273438 672 670.280273438 669 670.280273438 664 c 0
 670.280273438 659 669.280273438 652 668.280273438 645 c 0
 649.280273438 541 619.280273438 410 577.280273438 251 c 0
EndSplineSet
Validated: 1
EndChar

StartChar: V
Encoding: 86 86 64
Width: 640
GlyphClass: 2
Flags: HMW
VStem: 232.874 64<623 664 631 664>
LayerCount: 2
Fore
SplineSet
682.874023438 674 m 2
 682.874023438 668 l 2
 681.874023438 662 676.874023438 654 669.874023438 645 c 0
 647.874023438 610 595.874023438 512 512.874023438 352 c 1
 435.874023438 193 384.874023438 85 360.874023438 27 c 0
 356.874023438 15 351.874023438 6 344.874023438 -1 c 0
 337.874023438 -8 329.874023438 -12 320.874023438 -12 c 2
 314.874023438 -12 l 2
 304.874023438 -12 296.874023438 -10 291.874023438 -5 c 0
 285.874023438 0 281.874023438 10 280.874023438 24 c 0
 271.874023438 96 260.874023438 204 249.874023438 350 c 0
 238.874023438 494 232.874023438 585 232.874023438 623 c 2
 232.874023438 631 l 2
 232.874023438 672 241.874023438 697 261.874023438 707 c 0
 266.874023438 709 269.874023438 711 273.874023438 711 c 0
 277.874023438 711 281.874023438 709 284.874023438 706 c 0
 291.874023438 700 295.874023438 686 296.874023438 664 c 0
 296.874023438 659 299.874023438 599 305.874023438 486 c 2
 313.874023438 359 l 1
 321.874023438 226 l 2
 324.874023438 184 327.874023438 151 329.874023438 126 c 0
 329.874023438 109 331.874023438 94 332.874023438 82 c 1
 339.874023438 90 345.874023438 102 352.874023438 117 c 0
 388.874023438 192 440.874023438 301 507.874023438 445 c 2
 614.874023438 664 l 2
 624.874023438 685 635.874023438 699 646.874023438 705 c 0
 651.874023438 709 656.874023438 711 661.874023438 711 c 0
 663.874023438 711 666.874023438 710 671.874023438 708 c 0
 674.874023438 704 677.874023438 699 679.874023438 692 c 0
 681.874023438 687 682.874023438 681 682.874023438 674 c 2
EndSplineSet
Validated: 1
EndChar

StartChar: W
Encoding: 87 87 65
Width: 640
GlyphClass: 2
Flags: HMW
VStem: 623.24 57
LayerCount: 2
Fore
SplineSet
154.240234375 27 m 2
 154.240234375 30 l 1
 154.240234375 30 155.240234375 31 155.240234375 32 c 0
 155.240234375 34 156.240234375 58 159.240234375 105 c 0
 161.240234375 136 165.240234375 168 169.240234375 199 c 0
 179.240234375 276 200.240234375 420 231.240234375 632 c 0
 237.240234375 675 249.240234375 702 269.240234375 711 c 0
 271.240234375 713 276.240234375 714 278.240234375 714 c 2
 280.240234375 714 l 2
 284.240234375 713 287.240234375 710 290.240234375 708 c 0
 292.240234375 707 294.240234375 702 294.240234375 693 c 0
 294.240234375 690 295.240234375 686 295.240234375 681 c 0
 295.240234375 679 294.240234375 676 293.240234375 672 c 0
 284.240234375 633 262.240234375 490 227.240234375 242 c 0
 224.240234375 219 221.240234375 187 216.240234375 147 c 0
 211.240234375 103 207.240234375 75 206.240234375 65 c 1
 213.240234375 55 221.240234375 53 229.240234375 59 c 1
 236.240234375 81 246.240234375 108 256.240234375 140 c 0
 265.240234375 169 286.240234375 237 319.240234375 342 c 2
 319.240234375 342 333.240234375 392 365.240234375 493 c 0
 382.240234375 545 397.240234375 588 409.240234375 622 c 0
 421.240234375 657 429.240234375 678 434.240234375 687 c 0
 441.240234375 703 456.240234375 711 477.240234375 711 c 1
 478.240234375 720 480.240234375 720 481.240234375 712 c 1
 496.240234375 712 503.240234375 703 503.240234375 685 c 0
 503.240234375 668 499.240234375 621 491.240234375 544 c 0
 489.240234375 517 484.240234375 479 478.240234375 428 c 0
 473.240234375 378 469.240234375 340 467.240234375 313 c 0
 462.240234375 273 455.240234375 208 449.240234375 116 c 0
 447.240234375 81 446.240234375 49 444.240234375 18 c 1
 453.240234375 45 462.240234375 75 471.240234375 108 c 0
 501.240234375 204 538.240234375 332 581.240234375 493 c 0
 605.240234375 572 619.240234375 623 623.240234375 645 c 0
 626.240234375 667 633.240234375 684 643.240234375 696 c 0
 652.240234375 707 660.240234375 713 668.240234375 713 c 0
 670.240234375 713 674.240234375 712 675.240234375 711 c 0
 679.240234375 708 680.240234375 697 680.240234375 678 c 0
 680.240234375 670 679.240234375 659 676.240234375 645 c 0
 668.240234375 611 653.240234375 560 631.240234375 491 c 2
 586.240234375 347 l 1
 586.240234375 347 575.240234375 303 548.240234375 217 c 0
 531.240234375 161 518.240234375 118 507.240234375 89 c 0
 496.240234375 59 487.240234375 39 480.240234375 28 c 0
 473.240234375 14 463.240234375 4 452.240234375 -3 c 0
 441.240234375 -8 433.240234375 -11 426.240234375 -11 c 2
 422.240234375 -11 l 1
 420.240234375 -11 l 2
 411.240234375 -11 404.240234375 -8 399.240234375 -3 c 0
 394.240234375 2 392.240234375 12 392.240234375 26 c 2
 392.240234375 30 l 2
 392.240234375 92 399.240234375 175 413.240234375 279 c 2
 431.240234375 411 l 2
 443.240234375 504 451.240234375 566 454.240234375 595 c 1
 447.240234375 605 439.240234375 607 432.240234375 601 c 1
 401.240234375 490 367.240234375 374 331.240234375 255 c 0
 296.240234375 137 271.240234375 61 256.240234375 26 c 0
 253.240234375 15 247.240234375 7 239.240234375 1 c 0
 231.240234375 -4 223.240234375 -8 215.240234375 -9 c 0
 207.240234375 -10 201.240234375 -11 194.240234375 -11 c 0
 183.240234375 -10 173.240234375 -9 165.240234375 -8 c 0
 162.240234375 -6 160.240234375 -4 159.240234375 -2 c 0
 157.240234375 0 156.240234375 4 155.240234375 11 c 0
 154.240234375 16 154.240234375 21 154.240234375 27 c 2
188.240234375 -11 m 1024
EndSplineSet
Validated: 1
EndChar

StartChar: X
Encoding: 88 88 66
Width: 640
GlyphClass: 2
Flags: HMW
VStem: 264.902 66
LayerCount: 2
Fore
SplineSet
493.90234375 -18 m 0
 486.90234375 -15 480.90234375 -7 474.90234375 5 c 0
 467.90234375 19 458.90234375 41 449.90234375 71 c 0
 440.90234375 100 429.90234375 137 417.90234375 183 c 0
 405.90234375 230 394.90234375 271 385.90234375 305 c 1
 372.90234375 288 l 2
 347.90234375 255 307.90234375 200 254.90234375 123 c 0
 198.90234375 48 167.90234375 7 160.90234375 0 c 0
 151.90234375 -11 143.90234375 -18 136.90234375 -21 c 0
 132.90234375 -23 128.90234375 -24 126.90234375 -24 c 0
 121.90234375 -24 117.90234375 -19 112.90234375 -9 c 0
 109.90234375 -3 107.90234375 4 107.90234375 11 c 0
 107.90234375 18 114.90234375 31 126.90234375 48 c 0
 133.90234375 56 169.90234375 98 233.90234375 175 c 1
 293.90234375 255 336.90234375 315 365.90234375 357 c 1
 269.90234375 627 l 2
 266.90234375 635 264.90234375 642 264.90234375 649 c 0
 264.90234375 667 270.90234375 682 281.90234375 693 c 0
 289.90234375 702 297.90234375 706 305.90234375 706 c 0
 307.90234375 706 311.90234375 704 315.90234375 702 c 0
 321.90234375 698 326.90234375 690 330.90234375 679 c 0
 343.90234375 651 370.90234375 567 412.90234375 427 c 2
 419.90234375 405 l 1
 432.90234375 424 l 2
 530.90234375 568 592.90234375 654 618.90234375 683 c 0
 626.90234375 694 634.90234375 701 642.90234375 705 c 0
 647.90234375 707 652.90234375 709 656.90234375 709 c 0
 661.90234375 709 665.90234375 707 669.90234375 700 c 0
 671.90234375 695 674.90234375 689 674.90234375 683 c 0
 674.90234375 682 675.90234375 679 675.90234375 676 c 2
 672.90234375 667 l 2
 670.90234375 661 666.90234375 655 659.90234375 648 c 2
 565.90234375 532 l 1
 506.90234375 450 467.90234375 395 446.90234375 364 c 0
 444.90234375 362 441.90234375 358 437.90234375 351 c 1
 447.90234375 321 463.90234375 269 484.90234375 195 c 0
 505.90234375 121 520.90234375 75 529.90234375 55 c 0
 534.90234375 45 536.90234375 36 536.90234375 28 c 0
 536.90234375 22 535.90234375 16 534.90234375 11 c 0
 533.90234375 6 530.90234375 1 526.90234375 -5 c 0
 518.90234375 -16 510.90234375 -22 503.90234375 -22 c 0
 501.90234375 -22 497.90234375 -20 493.90234375 -18 c 0
EndSplineSet
Validated: 1
EndChar

StartChar: Y
Encoding: 89 89 67
Width: 640
GlyphClass: 2
Flags: HMW
VStem: 235.756 76<613 653.5 626 653.5>
LayerCount: 2
Fore
SplineSet
658.755859375 623 m 0
 653.755859375 615 644.755859375 601.999023438 631.755859375 582.999023438 c 0
 618.755859375 563.999023438 606.755859375 546.999023438 598.755859375 533.999023438 c 0
 590.755859375 520.999023438 573.755859375 496.999023438 548.755859375 461.999023438 c 0
 526.755859375 426.999023438 506.755859375 396.999023438 492.755859375 374.999023438 c 0
 460.713867188 324.647460938 425.103515625 298.091796875 396.755859375 209 c 0
 375.755859375 143 380.576171875 95.607421875 332.755859375 -17 c 0
 327.659179688 -29.0009765625 306.755859375 -35 295.755859375 -38 c 0
 293.755859375 -38 289.755859375 -39 287.755859375 -39 c 0
 282.755859375 -39 277.755859375 -37 272.755859375 -33 c 0
 267.755859375 -28 263.755859375 -21 263.755859375 -13 c 0
 263.755859375 -10 265.755859375 -6 265.755859375 -4 c 0
 266.755859375 3 272.061523438 8.7080078125 275.755859375 18 c 0
 308.755859375 101 275.755859375 18 339.755859375 231 c 1
 333.755859375 258 325.755859375 291 314.755859375 329 c 0
 303.755859375 367 296.755859375 393 292.755859375 407 c 0
 288.755859375 421 281.755859375 443 271.755859375 475 c 0
 262.755859375 504 254.755859375 530 248.755859375 551 c 0
 242.755859375 572 237.755859375 593 235.755859375 613 c 2
 235.755859375 626 l 2
 235.755859375 634 236.755859375 641 238.755859375 647 c 0
 241.755859375 657 246.755859375 665 251.755859375 670 c 0
 256.755859375 675 261.755859375 680 268.755859375 682 c 0
 274.755859375 684 279.755859375 686 284.755859375 686 c 0
 288.755859375 686 292.755859375 685 296.755859375 684 c 0
 300.755859375 683 303.755859375 679 305.755859375 673 c 0
 307.755859375 667 311.755859375 659 311.755859375 648 c 0
 312.755859375 625 315.755859375 600 319.755859375 573 c 0
 320.755859375 564 322.755859375 552 326.755859375 536 c 0
 330.755859375 520 333.755859375 510 334.755859375 506 c 0
 345.755859375 464 352.755859375 442 352.755859375 442 c 2
 363.755859375 403 371.755859375 365 377.755859375 328 c 0
 378.755859375 311 380.755859375 301 381.755859375 300 c 0
 386.755859375 300 392.755859375 308 397.755859375 323 c 0
 399.755859375 327 408.755859375 340 421.755859375 362 c 0
 434.755859375 384 456.755859375 418 485.755859375 465 c 0
 514.755859375 512 535.755859375 548 550.755859375 574 c 0
 555.755859375 583 563.755859375 595 574.755859375 611 c 0
 586.755859375 627 596.755859375 640 601.755859375 649 c 0
 607.755859375 660 613.755859375 668 619.755859375 675 c 0
 625.755859375 682 631.755859375 686 636.755859375 688 c 0
 646.755859375 692 654.755859375 692 661.755859375 689 c 0
 663.755859375 687 667.755859375 684 669.755859375 682 c 0
 672.755859375 677 673.755859375 670 673.755859375 663 c 0
 673.755859375 661 673.755859375 656 672.755859375 651 c 0
 670.755859375 642 664.755859375 633 658.755859375 623 c 0
EndSplineSet
Validated: 1
EndChar

StartChar: Z
Encoding: 90 90 68
Width: 640
GlyphClass: 2
Flags: HMW
HStem: 9 63 627 69<280.856 327.356 284.356 327.356> 629 55
LayerCount: 2
Fore
SplineSet
535.35546875 40 m 2xa0
 533.35546875 29 528.35546875 21 521.35546875 14 c 0
 514.35546875 7 505.35546875 3 491.35546875 3 c 0
 488.35546875 3 455.35546875 4 395.35546875 6 c 0
 335.35546875 8 279.35546875 9 226.35546875 9 c 0
 203.35546875 9 173.35546875 8 134.35546875 7 c 2
 133.35546875 7 l 2
 131.35546875 7 127.35546875 8 126.35546875 9 c 0
 125.35546875 10 122.35546875 15 120.35546875 20 c 0
 118.35546875 25 118.35546875 31 118.35546875 36 c 2
 118.35546875 49 l 2
 119.35546875 55 125.35546875 66 134.35546875 81 c 0
 143.35546875 96 158.35546875 117 179.35546875 144 c 0
 207.35546875 181 265.35546875 256 355.35546875 368 c 0
 444.35546875 480 512.35546875 561 556.35546875 612 c 2
 576.35546875 634 l 1
 527.35546875 632 472.35546875 630 410.35546875 629 c 0
 348.35546875 628 306.35546875 627 285.35546875 627 c 2xc0
 284.35546875 627 l 2
 277.35546875 627 271.35546875 628 270.35546875 632 c 0
 269.35546875 636 267.35546875 640 267.35546875 644 c 0
 267.35546875 648 268.35546875 651 268.35546875 655 c 0
 270.35546875 664 277.35546875 674 287.35546875 683 c 0
 297.35546875 692 309.35546875 696 321.35546875 696 c 0
 333.35546875 696 350.35546875 694 371.35546875 690 c 0
 392.35546875 686 411.35546875 684 426.35546875 684 c 2
 443.35546875 684 l 2
 482.35546875 684 533.35546875 686 597.35546875 691 c 0
 635.35546875 693 656.35546875 695 656.35546875 695 c 2
 658.35546875 695 661.35546875 694 662.35546875 693 c 0
 663.35546875 692 665.35546875 689 666.35546875 687 c 0
 668.35546875 682 671.35546875 676 671.35546875 670 c 0
 671.35546875 667 669.35546875 663 669.35546875 658 c 0
 667.35546875 654 663.35546875 648 654.35546875 639 c 0
 645.35546875 630 632.35546875 618 618.35546875 605 c 0
 604.35546875 592 595.35546875 581 588.35546875 573 c 0
 561.35546875 540 522.35546875 493 472.35546875 431 c 0
 422.35546875 369 373.35546875 308 325.35546875 247 c 0
 277.35546875 186 235.35546875 131 202.35546875 84 c 2
 187.35546875 63 l 1
 214.35546875 65 l 2
 283.35546875 70 346.35546875 72 405.35546875 72 c 0
 452.35546875 72 487.35546875 70 509.35546875 66 c 0
 521.35546875 64 529.35546875 60 533.35546875 55 c 0
 535.35546875 53 535.35546875 50 535.35546875 46 c 2
 535.35546875 40 l 2xa0
EndSplineSet
Validated: 1
EndChar

StartChar: bracketleft
Encoding: 91 91 69
Width: 640
GlyphClass: 2
Flags: HMW
HStem: -69 47 773 64<617.292 619.292>
LayerCount: 2
Fore
SplineSet
541.291992188 837 m 1
 612.291992188 837 l 2
 626.291992188 837 634.291992188 838 634.291992188 838 c 2
 643.291992188 838 649.291992188 837 651.291992188 833 c 0
 653.291992188 829 654.291992188 824 654.291992188 819 c 2
 654.291992188 812 l 2
 653.291992188 807 650.291992188 803 648.291992188 798 c 0
 642.291992188 786 635.291992188 778 626.291992188 775 c 0
 623.291992188 774 620.291992188 773 618.291992188 773 c 0
 616.291992188 773 613.291992188 774 612.291992188 774 c 0
 589.291992188 778 551.291992188 780 499.291992188 780 c 0
 476.291992188 780 446.291992188 779 411.291992188 778 c 1
 406.291992188 758 397.291992188 719 382.291992188 661 c 0
 367.291992188 603 355.291992188 555 345.291992188 516 c 0
 335.291992188 477 324.291992188 431 312.291992188 377 c 0
 305.291992188 337 289.291992188 268 265.291992188 170 c 0
 241.291992188 72 226.291992188 8 219.291992188 -22 c 1
 262.291992188 -22 l 2
 292.291992188 -22 328.291992188 -21 370.291992188 -20 c 0
 412.291992188 -19 435.291992188 -17 440.291992188 -17 c 0
 450.291992188 -17 456.291992188 -19 458.291992188 -21 c 0
 460.291992188 -25 460.291992188 -31 459.291992188 -39 c 0
 457.291992188 -49 453.291992188 -58 447.291992188 -65 c 0
 445.291992188 -68 441.291992188 -71 438.291992188 -72 c 0
 435.291992188 -73 432.291992188 -74 430.291992188 -74 c 0
 428.291992188 -74 425.291992188 -73 423.291992188 -73 c 0
 408.291992188 -71 388.291992188 -70 363.291992188 -70 c 0
 361.291992188 -70 353.291992188 -69 342.291992188 -69 c 0
 331.291992188 -69 316.291992188 -70 299.291992188 -71 c 0
 236.291992188 -75 193.291992188 -77 171.291992188 -77 c 0
 158.291992188 -77 150.291992188 -74 146.291992188 -70 c 0
 144.291992188 -68 143.291992188 -65 143.291992188 -61 c 0
 143.291992188 -55 145.291992188 -47 150.291992188 -37 c 1
 150.291992188 -36 l 1
 153.291992188 -27 l 2
 164.291992188 8 181.291992188 71 203.291992188 161 c 0
 225.291992188 251 246.291992188 341 265.291992188 431 c 0
 268.291992188 452 273.291992188 474 279.291992188 500 c 0
 285.291992188 526 297.291992188 579 317.291992188 660 c 0
 322.291992188 681 327.291992188 703 334.291992188 729 c 0
 341.291992188 755 345.291992188 772 347.291992188 781 c 2
 348.291992188 784 l 2
 348.291992188 788 347.291992188 791 347.291992188 793 c 0
 347.291992188 805 352.291992188 815 362.291992188 824 c 0
 369.291992188 831 380.291992188 835 393.291992188 835 c 0
 437.291992188 836 478.291992188 837 514.291992188 837 c 2
 541.291992188 837 l 1
EndSplineSet
Validated: 1
EndChar

StartChar: backslash
Encoding: 92 92 70
Width: 640
GlyphClass: 2
Flags: HMW
VStem: 457.443 71<4.29497e+09 4.29497e+09>
LayerCount: 2
Fore
SplineSet
480.442382812 -45 m 0
 469.442382812 -39 462.442382812 -29 457.442382812 -14 c 0
 455.442382812 -3 447.442382812 27 436.442382812 76 c 0
 425.442382812 125 417.442382812 160 412.442382812 181 c 0
 403.442382812 214 376.442382812 296 333.442382812 429 c 0
 290.442382812 562 264.442382812 645 256.442382812 679 c 0
 255.442382812 684 254.442382812 689 254.442382812 694 c 0
 254.442382812 702 256.442382812 709 258.442382812 715 c 0
 263.442382812 724 270.442382812 731 280.442382812 736 c 0
 288.442382812 739 295.442382812 741 302.442382812 741 c 0
 307.442382812 741 313.442382812 739 317.442382812 735 c 0
 321.442382812 731 324.442382812 726 326.442382812 718 c 0
 349.442382812 621 373.442382812 535 395.442382812 458 c 0
 430.442382812 333 475.442382812 190 529.442382812 30 c 0
 531.442382812 24 532.442382812 17 532.442382812 10 c 0
 532.442382812 3 530.442382812 -6 528.442382812 -15 c 0
 523.442382812 -31 516.442382812 -41 508.442382812 -45 c 0
 503.442382812 -47 499.442382812 -49 494.442382812 -49 c 0
 489.442382812 -49 485.442382812 -47 480.442382812 -45 c 0
EndSplineSet
Validated: 1
EndChar

StartChar: bracketright
Encoding: 93 93 71
Width: 640
GlyphClass: 2
Flags: HMW
HStem: -69 49 780 57<478.595 493.095>
LayerCount: 2
Fore
SplineSet
505.594726562 837 m 2
 542.594726562 837 582.594726562 836 624.594726562 835 c 0
 636.594726562 835 644.594726562 832 647.594726562 827 c 0
 649.594726562 824 651.594726562 820 651.594726562 816 c 0
 651.594726562 812 650.594726562 809 650.594726562 806 c 0
 648.594726562 801 646.594726562 796 644.594726562 792 c 2
 642.594726562 789 l 1
 642.594726562 787 l 1
 640.594726562 781 l 1
 640.594726562 780 l 2
 640.594726562 775 635.594726562 760 630.594726562 735 c 2
 600.594726562 591 l 2
 588.594726562 535 575.594726562 483 562.594726562 436 c 0
 540.594726562 346 519.594726562 256 499.594726562 166 c 0
 479.594726562 76 467.594726562 14 462.594726562 -21 c 2
 460.594726562 -30 l 1
 460.594726562 -32 l 2
 460.594726562 -39 459.594726562 -45 458.594726562 -50 c 0
 457.594726562 -58 452.594726562 -64 445.594726562 -69 c 0
 438.594726562 -74 428.594726562 -77 415.594726562 -77 c 0
 393.594726562 -77 351.594726562 -74 290.594726562 -71 c 0
 272.594726562 -71 251.594726562 -69 228.594726562 -69 c 0
 205.594726562 -69 185.594726562 -71 165.594726562 -73 c 0
 162.594726562 -73 158.594726562 -74 157.594726562 -74 c 0
 152.594726562 -74 148.594726562 -72 147.594726562 -70 c 0
 146.594726562 -63 146.594726562 -55 148.594726562 -44 c 0
 150.594726562 -35 155.594726562 -29 160.594726562 -24 c 0
 165.594726562 -19 174.594726562 -17 185.594726562 -17 c 0
 189.594726562 -17 211.594726562 -19 253.594726562 -20 c 0
 295.594726562 -21 330.594726562 -22 360.594726562 -22 c 2
 397.594726562 -22 l 1
 403.594726562 4 417.594726562 67 438.594726562 165 c 0
 459.594726562 263 475.594726562 331 486.594726562 371 c 1
 486.594726562 372 l 1
 499.594726562 425 511.594726562 472 519.594726562 511 c 0
 527.594726562 550 545.594726562 639 574.594726562 778 c 1
 535.594726562 779 504.594726562 780 481.594726562 780 c 0
 431.594726562 780 394.594726562 778 368.594726562 774 c 0
 366.594726562 774 362.594726562 773 360.594726562 773 c 0
 358.594726562 773 355.594726562 773 353.594726562 774 c 0
 351.594726562 775 349.594726562 778 349.594726562 780 c 0
 346.594726562 789 345.594726562 798 347.594726562 807 c 0
 349.594726562 816 353.594726562 823 360.594726562 830 c 0
 366.594726562 835 374.594726562 838 385.594726562 838 c 2
 386.594726562 838 l 2
 414.594726562 838 445.594726562 837 478.594726562 837 c 2
 505.594726562 837 l 2
EndSplineSet
Validated: 1
EndChar

StartChar: asciicircum
Encoding: 94 94 72
Width: 640
GlyphClass: 2
Flags: HMW
HStem: 607 326<243.613 526.113>
LayerCount: 2
Fore
SplineSet
636.112304688 614 m 0
 631.112304688 619 622.112304688 630 610.112304688 648 c 0
 608.112304688 650 604.112304688 654 602.112304688 658 c 0
 575.112304688 698 558.112304688 726 548.112304688 743 c 0
 538.112304688 760 526.112304688 787 509.112304688 824 c 2
 500.112304688 841 l 1
 488.112304688 828 l 2
 466.112304688 803 447.112304688 783 430.112304688 767 c 0
 413.112304688 751 400.112304688 739 390.112304688 731 c 0
 380.112304688 723 367.112304688 713 351.112304688 699 c 0
 335.112304688 685 319.112304688 670 301.112304688 653 c 0
 298.112304688 651 293.112304688 647 288.112304688 642 c 0
 270.112304688 625 257.112304688 615 250.112304688 610 c 0
 248.112304688 608 245.112304688 607 244.112304688 607 c 0
 243.112304688 607 242.112304688 609 240.112304688 609 c 0
 233.112304688 613 227.112304688 620 224.112304688 631 c 0
 224.112304688 632 223.112304688 634 223.112304688 636 c 0
 223.112304688 647 231.112304688 659 243.112304688 672 c 0
 258.112304688 689 279.112304688 709 305.112304688 734 c 0
 331.112304688 759 360.112304688 786 392.112304688 817 c 0
 424.112304688 848 456.112304688 882 489.112304688 918 c 0
 495.112304688 925 503.112304688 929 512.112304688 931 c 0
 516.112304688 932 520.112304688 933 524.112304688 933 c 0
 528.112304688 933 532.112304688 932 536.112304688 931 c 0
 541.112304688 929 546.112304688 926 547.112304688 922 c 2
 547.112304688 921 l 1
 563.112304688 886 577.112304688 857 589.112304688 834 c 0
 601.112304688 811 610.112304688 794 617.112304688 783 c 0
 624.112304688 772 634.112304688 756 647.112304688 735 c 0
 660.112304688 714 672.112304688 696 683.112304688 679 c 0
 686.112304688 674 688.112304688 668 688.112304688 663 c 0
 688.112304688 655 685.112304688 648 680.112304688 642 c 0
 670.112304688 629 659.112304688 621 647.112304688 616 c 0
 644.112304688 614 641.112304688 613 640.112304688 613 c 0
 639.112304688 613 637.112304688 614 636.112304688 614 c 0
EndSplineSet
Validated: 1
EndChar

StartChar: underscore
Encoding: 95 95 73
Width: 640
GlyphClass: 2
Flags: HMW
HStem: -87 60<103.001 124.502>
LayerCount: 2
Fore
SplineSet
86.5029296875 -72 m 0
 86.5029296875 -68 87.5029296875 -64 88.5029296875 -59 c 0
 90.5029296875 -49 93.5029296875 -41 98.5029296875 -36 c 0
 103.502929688 -30 111.502929688 -27 122.502929688 -27 c 2
 124.502929688 -27 l 2
 181.502929688 -28 229.502929688 -29 269.502929688 -29 c 0
 309.502929688 -29 358.502929688 -28 419.502929688 -27 c 0
 468.502929688 -27 497.502929688 -25 508.502929688 -25 c 0
 519.502929688 -25 525.502929688 -27 526.502929688 -30 c 0
 528.502929688 -35 529.502929688 -42 528.502929688 -51 c 0
 526.502929688 -62 521.502929688 -70 516.502929688 -75 c 0
 509.502929688 -82 500.502929688 -85 489.502929688 -85 c 0
 260.502929688 -86 133.502929688 -87 106.502929688 -87 c 0
 99.5029296875 -87 94.5029296875 -86 91.5029296875 -84 c 0
 88.5029296875 -82 86.5029296875 -78 86.5029296875 -72 c 0
EndSplineSet
Validated: 1
EndChar

StartChar: grave
Encoding: 96 96 74
Width: 640
GlyphClass: 2
Flags: HMW
HStem: 636 161<423.38 523.38>
LayerCount: 2
Fore
SplineSet
522.379882812 636 m 0
 514.379882812 636 506.379882812 639 497.379882812 644 c 0
 468.379882812 665 449.379882812 678 442.379882812 683 c 0
 435.379882812 688 426.379882812 695 415.379882812 704 c 0
 404.379882812 713 394.379882812 721 387.379882812 728 c 0
 382.379882812 734 379.379882812 743 379.379882812 754 c 0
 379.379882812 763 382.379882812 772 387.379882812 781 c 0
 394.379882812 788 404.379882812 794 415.379882812 796 c 0
 418.379882812 796 422.379882812 797 424.379882812 797 c 0
 430.379882812 797 435.379882812 796 440.379882812 792 c 0
 442.379882812 790 458.379882812 773 487.379882812 742 c 0
 492.379882812 736 500.379882812 729 510.379882812 720 c 0
 520.379882812 711 530.379882812 703 538.379882812 698 c 0
 548.379882812 692 554.379882812 684 556.379882812 673 c 0
 556.379882812 670 557.379882812 666 557.379882812 664 c 0
 557.379882812 658 554.379882812 653 551.379882812 649 c 0
 546.379882812 642 538.379882812 638 528.379882812 637 c 0
 526.379882812 637 524.379882812 636 522.379882812 636 c 0
EndSplineSet
Validated: 1
EndChar

StartChar: a
Encoding: 97 97 75
Width: 640
GlyphClass: 2
Flags: HMW
HStem: -28 69 438 72
VStem: 450.886 51
LayerCount: 2
Fore
SplineSet
288.885742188 450 m 0
 313.885742188 471 348.885742188 486.999023438 391.885742188 499.999023438 c 0
 412.885742188 505.999023438 434.885742188 509.999023438 457.885742188 509.999023438 c 2
 465.885742188 509.999023438 l 2
 517.885742188 508.999023438 549.885742188 492.999023438 559.885742188 464.999023438 c 0
 567.086914062 444.74609375 570.641601562 420.64453125 570.641601562 392.51171875 c 0
 570.641601562 358.13671875 565.333984375 317.743164062 554.885742188 270.999023438 c 0
 554.885742188 268.999023438 552.885742188 260.999023438 549.885742188 247.999023438 c 0
 546.885742188 234.999023438 541.885742188 212.999023438 533.885742188 182.999023438 c 0
 525.885742188 152.999023438 522.885742188 136.999023438 522.885742188 135.999023438 c 0
 518.885742188 118.999023438 513.885742188 86.9990234375 507.885742188 36.9990234375 c 0
 506.885742188 21.9990234375 503.885742188 8.9990234375 501.885742188 -2.0009765625 c 0
 496.885742188 -26.0009765625 489.885742188 -38.0009765625 481.885742188 -38.0009765625 c 0
 460.885742188 -38.0009765625 450.885742188 -34.0009765625 450.885742188 -25.0009765625 c 0
 449.713867188 -7.427734375 449.228515625 12.205078125 449.228515625 34.09765625 c 0
 449.228515625 49.578125 449.470703125 66.1884765625 449.884765625 84 c 1
 442.884765625 71 437.884765625 64 433.884765625 64 c 0
 405.884765625 29 380.884765625 5 357.884765625 -10 c 0
 338.884765625 -22 311.884765625 -28 274.884765625 -28 c 0
 258.884765625 -28 241.884765625 -23 223.884765625 -12 c 0
 204.884765625 -1 189.884765625 17 178.884765625 40 c 0
 167.884765625 63 162.884765625 87 160.884765625 111 c 1
 164.884765625 128 170.884765625 146 178.884765625 165 c 0
 187.884765625 186 199.884765625 203 215.884765625 217 c 0
 238.884765625 238 254.884765625 251 262.884765625 255 c 0
 297.884765625 273 317.884765625 284 322.884765625 285 c 0
 364.884765625 298 387.884765625 306 392.884765625 307 c 0
 421.884765625 311 439.884765625 314 447.884765625 316 c 0
 450.884765625 317 468.884765625 323 500.884765625 335 c 0
 501.884765625 339 503.884765625 340 503.884765625 340 c 2
 506.884765625 346 508.884765625 353 509.884765625 359 c 0
 510.884765625 365 512.884765625 370 512.884765625 376 c 0
 512.884765625 382 511.884765625 389 507.884765625 398 c 0
 502.884765625 410 494.884765625 419 485.884765625 425 c 0
 478.884765625 431 464.884765625 436 445.884765625 437 c 0
 442.884765625 437 439.884765625 438 436.884765625 438 c 0
 423.884765625 438 410.884765625 435 394.884765625 430 c 0
 378.884765625 425 365.884765625 417 353.884765625 409 c 0
 331.884765625 395 314.884765625 383 303.884765625 373 c 0
 283.884765625 352 268.884765625 340 255.884765625 340 c 0
 249.884765625 340 243.884765625 343 238.884765625 348 c 0
 231.650390625 354.430664062 228.29296875 361.5078125 228.29296875 369.75 c 0
 228.29296875 371.76171875 228.493164062 373.842773438 228.885742188 376 c 0
 230.885742188 387 239.885742188 401 251.885742188 415 c 0
 262.885742188 428 274.885742188 439 288.885742188 450 c 0
377.885742188 67.9990234375 m 0
 390.885742188 77.9990234375 402.885742188 89.9990234375 413.885742188 103.999023438 c 0
 425.885742188 117.999023438 437.885742188 135.999023438 448.885742188 156.999023438 c 0
 459.885742188 177.999023438 469.885742188 200.999023438 476.885742188 225.999023438 c 2
 479.885742188 236.999023438 l 1
 468.885742188 235.999023438 l 2
 353.885742188 224.999023438 274.885742188 191.999023438 231.885742188 136.999023438 c 1
 228.885742188 131.999023438 l 1
 229.885742188 126.999023438 l 2
 237.885742188 94.9990234375 247.885742188 72.9990234375 261.885742188 59.9990234375 c 0
 273.885742188 46.9990234375 288.885742188 40.9990234375 307.885742188 40.9990234375 c 0
 329.885742188 40.9990234375 353.885742188 48.9990234375 377.885742188 67.9990234375 c 0
EndSplineSet
Validated: 1
EndChar

StartChar: b
Encoding: 98 98 76
Width: 640
GlyphClass: 2
Flags: HMW
HStem: -14 74<313.521 336.021> 425 65<379.521 454.021>
VStem: 145.521 60 494.521 69<295.5 370.5>
LayerCount: 2
Fore
SplineSet
552.521484375 263 m 0
 545.521484375 227 534.521484375 194 521.521484375 164 c 0
 508.521484375 134 492.521484375 107 476.521484375 86 c 0
 460.521484375 65 443.521484375 46 426.521484375 31 c 0
 409.521484375 16 393.521484375 4 376.521484375 -3 c 0
 359.521484375 -10 343.521484375 -14 328.521484375 -14 c 0
 286.521484375 -14 251.521484375 2 225.521484375 31 c 1
 220.521484375 29 216.521484375 34 211.521484375 47 c 1
 209.521484375 32 207.521484375 26 205.521484375 26 c 0
 200.521484375 12 195.521484375 2 188.521484375 -3 c 0
 181.521484375 -8 173.521484375 -11 164.521484375 -11 c 0
 157.521484375 -11 151.521484375 -9 149.521484375 -6 c 0
 147.521484375 -3 145.521484375 2 145.521484375 8 c 0
 145.521484375 14 146.521484375 22 148.521484375 30 c 0
 166.521484375 115 193.521484375 237 229.521484375 396 c 0
 264.521484375 555 287.521484375 663 300.521484375 722 c 0
 304.521484375 741 309.521484375 753 315.521484375 759 c 0
 321.521484375 765 329.521484375 768 339.521484375 768 c 0
 345.521484375 768 350.521484375 766 353.521484375 761 c 0
 355.521484375 759 356.521484375 754 356.521484375 748 c 0
 356.521484375 742 355.521484375 733 353.521484375 723 c 0
 346.521484375 698 339.521484375 666 332.521484375 624 c 0
 319.521484375 564 306.521484375 499 293.521484375 428 c 1
 301.521484375 437 309.521484375 443 316.521484375 445 c 0
 353.521484375 475 394.521484375 490 437.521484375 490 c 0
 470.521484375 490 498.521484375 480 519.521484375 461 c 0
 548.521484375 436 563.521484375 397 563.521484375 344 c 0
 563.521484375 319 559.521484375 292 552.521484375 263 c 0
462.521484375 397 m 0
 445.521484375 416 423.521484375 425 397.521484375 425 c 0
 361.521484375 425 324.521484375 408 285.521484375 374 c 2
 282.521484375 371 l 1
 265.521484375 288 244.521484375 201 222.521484375 109 c 1
 225.521484375 105 l 2
 236.521484375 88 250.521484375 77 268.521484375 70 c 0
 283.521484375 63 302.521484375 60 324.521484375 60 c 0
 364.521484375 60 397.521484375 78 425.521484375 113 c 0
 454.521484375 147 475.521484375 193 488.521484375 251 c 0
 492.521484375 269 494.521484375 287 494.521484375 304 c 0
 494.521484375 344 483.521484375 375 462.521484375 397 c 0
EndSplineSet
Validated: 1
EndChar

StartChar: c
Encoding: 99 99 77
Width: 640
GlyphClass: 2
Flags: HMW
HStem: -31 68<293.941 340.941> 458 69<431.941 487.941>
VStem: 181.941 70<123.5 126.5> 491.941 70<358.5 405>
LayerCount: 2
Fore
SplineSet
537.94140625 492 m 0
 554.94140625 468 561.94140625 440 561.94140625 407 c 2
 561.94140625 405 l 2
 561.94140625 389 559.94140625 376 554.94140625 365 c 0
 548.94140625 352 538.94140625 343 525.94140625 337 c 0
 519.94140625 335 514.94140625 333 509.94140625 333 c 0
 506.94140625 333 502.94140625 334 500.94140625 335 c 0
 498.94140625 335 496.94140625 338 494.94140625 343 c 0
 492.94140625 348 491.94140625 354 491.94140625 363 c 0
 491.94140625 366 489.94140625 377 489.94140625 397 c 0
 489.94140625 402 489.94140625 408 488.94140625 415 c 0
 487.94140625 422 485.94140625 428 483.94140625 432 c 0
 481.94140625 436 477.94140625 440 473.94140625 444 c 0
 465.94140625 453 453.94140625 458 436.94140625 458 c 0
 426.94140625 458 416.94140625 456 405.94140625 451 c 0
 394.94140625 446 382.94140625 438 369.94140625 426 c 0
 356.94140625 414 344.94140625 399 332.94140625 382 c 0
 320.94140625 365 308.94140625 343 297.94140625 315 c 0
 284.94140625 287 273.94140625 256 264.94140625 221 c 0
 255.94140625 189 251.94140625 161 251.94140625 137 c 0
 251.94140625 110 257.94140625 88 268.94140625 71 c 0
 283.94140625 50 304.94140625 39 331.94140625 37 c 2
 340.94140625 37 l 2
 363.94140625 37 384.94140625 42 402.94140625 52 c 0
 423.94140625 64 438.94140625 78 445.94140625 93 c 0
 451.94140625 104 457.94140625 112 463.94140625 118 c 0
 469.94140625 124 472.94140625 128 476.94140625 129 c 0
 480.94140625 130 484.94140625 131 487.94140625 131 c 0
 490.94140625 131 493.94140625 129 498.94140625 127 c 0
 501.94140625 125 504.94140625 122 506.94140625 120 c 0
 508.94140625 118 509.94140625 114 509.94140625 110 c 0
 509.94140625 100 504.94140625 86 493.94140625 69 c 0
 478.94140625 44 454.94140625 22 423.94140625 2 c 0
 408.94140625 -9 390.94140625 -17 370.94140625 -23 c 0
 350.94140625 -28 328.94140625 -31 306.94140625 -31 c 0
 280.94140625 -31 258.94140625 -26 238.94140625 -14 c 0
 220.94140625 -3 207.94140625 12 198.94140625 32 c 0
 187.94140625 57 181.94140625 85 181.94140625 116 c 0
 181.94140625 137 184.94140625 158 189.94140625 180 c 0
 200.94140625 227 214.94140625 269 231.94140625 308 c 0
 248.94140625 347 267.94140625 379 288.94140625 406 c 0
 308.94140625 433 327.94140625 455 347.94140625 474 c 0
 386.94140625 509 428.94140625 527 474.94140625 527 c 0
 500.94140625 527 521.94140625 515 537.94140625 492 c 0
EndSplineSet
Validated: 1
EndChar

StartChar: d
Encoding: 100 100 78
Width: 640
GlyphClass: 2
Flags: HMW
HStem: -14 76<297.948 332.948> 436 75<404.948 408.948 404.948 404.948>
VStem: 177.948 62<171 182> 448.948 65<20.5 50>
LayerCount: 2
Fore
SplineSet
360.948242188 65 m 0
 369.948242188 67 377.948242188 71 384.948242188 74 c 0
 391.948242188 77 397.948242188 81 404.948242188 87 c 0
 411.948242188 93 416.948242188 99 421.948242188 103 c 0
 426.948242188 107 431.948242188 113 437.948242188 121 c 0
 443.948242188 129 449.948242188 135 451.948242188 139 c 0
 453.948242188 143 456.948242188 147 459.948242188 152 c 0
 462.948242188 157 465.948242188 162 467.948242188 164 c 0
 480.948242188 226 487.948242188 261 489.948242188 268 c 0
 490.948242188 275 492.948242188 286 496.948242188 301 c 0
 500.948242188 316 502.948242188 329 504.948242188 338 c 1
 503.948242188 341 l 2
 496.948242188 368 485.948242188 391 468.948242188 409 c 0
 451.948242188 427 431.948242188 436 408.948242188 436 c 2
 404.948242188 436 l 2
 380.948242188 435 357.948242188 426 336.948242188 410 c 0
 315.948242188 394 299.948242188 373 284.948242188 348 c 0
 269.948242188 323 257.948242188 296 250.948242188 267 c 0
 242.948242188 235 239.948242188 207 239.948242188 183 c 0
 239.948242188 159 241.948242188 137 248.948242188 120 c 0
 256.948242188 99 270.948242188 83 287.948242188 74 c 0
 300.948242188 66 314.948242188 62 331.948242188 62 c 2
 332.948242188 62 l 2
 341.948242188 62 351.948242188 63 360.948242188 65 c 0
177.948242188 166 m 0
 177.948242188 198 181.948242188 233 190.948242188 271 c 0
 199.948242188 316 216.948242188 358 238.948242188 394 c 0
 260.948242188 430 286.948242188 458 317.948242188 479 c 0
 346.948242188 500 378.948242188 511 410.948242188 511 c 0
 454.948242188 511 490.948242188 498 515.948242188 472 c 1
 520.948242188 475 524.948242188 471 529.948242188 458 c 1
 560.948242188 595 582.948242188 681 593.948242188 716 c 0
 598.948242188 733 605.948242188 745 612.948242188 754 c 0
 621.948242188 764 630.948242188 769 642.948242188 769 c 0
 649.948242188 769 656.948242188 766 658.948242188 761 c 0
 659.948242188 760 660.948242188 757 660.948242188 753 c 0
 660.948242188 746 657.948242188 736 654.948242188 723 c 0
 643.948242188 681 624.948242188 606 596.948242188 495 c 0
 568.948242188 384 549.948242188 299 536.948242188 242 c 1
 536.948242188 241 l 1
 529.948242188 202 523.948242188 168 519.948242188 139 c 0
 515.948242188 110 514.948242188 89 514.948242188 77 c 0
 514.948242188 65 513.948242188 54 513.948242188 46 c 0
 513.948242188 38 512.948242188 32 510.948242188 27 c 0
 506.948242188 16 501.948242188 8 494.948242188 2 c 0
 489.948242188 -3 482.948242188 -7 473.948242188 -9 c 0
 470.948242188 -9 465.948242188 -10 463.948242188 -10 c 0
 461.948242188 -10 458.948242188 -9 456.948242188 -8 c 0
 454.948242188 -7 453.948242188 -4 452.948242188 -1 c 0
 450.948242188 6 448.948242188 15 448.948242188 26 c 0
 448.948242188 34 449.948242188 43 450.948242188 52 c 0
 451.948242188 60 453.948242188 74 455.948242188 95 c 1
 447.948242188 78 439.948242188 67 431.948242188 62 c 0
 423.948242188 51 415.948242188 42 407.948242188 34 c 0
 399.948242188 26 390.948242188 17 379.948242188 10 c 0
 358.948242188 -6 334.948242188 -14 305.948242188 -14 c 0
 289.948242188 -14 273.948242188 -10 258.948242188 -3 c 0
 243.948242188 4 228.948242188 15 216.948242188 30 c 0
 204.948242188 45 194.948242188 64 187.948242188 85 c 0
 180.948242188 106 177.948242188 134 177.948242188 166 c 0
EndSplineSet
Validated: 1
EndChar

StartChar: e
Encoding: 101 101 79
Width: 640
GlyphClass: 2
Flags: HMW
HStem: -28 60<305.568 338.568 305.568 338.568> 455 66<408.568 456.568>
VStem: 184.568 61<134 140.5>
LayerCount: 2
Fore
SplineSet
489.567382812 60 m 0
 477.567382812 45 465.567382812 33 454.567382812 24 c 0
 443.567382812 14 431.567382812 5 417.567382812 -4 c 0
 391.567382812 -20 356.567382812 -28 314.567382812 -28 c 2
 305.567382812 -28 l 2
 253.567382812 -27 218.567382812 -4 199.567382812 39 c 0
 189.567382812 63 184.567382812 91 184.567382812 124 c 0
 184.567382812 157 189.567382812 193 198.567382812 234 c 0
 208.567382812 279 223.567382812 320 243.567382812 356 c 0
 263.567382812 392 284.567382812 423 307.567382812 447 c 0
 328.567382812 471 350.567382812 489 374.567382812 502 c 0
 398.567382812 515 423.567382812 521 448.567382812 521 c 0
 464.567382812 521 480.567382812 516 497.567382812 505 c 0
 514.567382812 494 528.567382812 479 541.567382812 458 c 0
 554.567382812 437 561.567382812 416 562.567382812 393 c 0
 562.567382812 378 554.567382812 362 540.567382812 343 c 0
 526.567382812 324 512.567382812 310 499.567382812 300 c 0
 473.567382812 280 441.567382812 261 401.567382812 241 c 0
 381.567382812 232 365.567382812 224 351.567382812 217 c 0
 337.567382812 210 321.567382812 202 300.567382812 193 c 0
 282.567382812 184 264.567382812 178 247.567382812 173 c 1
 246.567382812 158 245.567382812 146 245.567382812 138 c 0
 245.567382812 130 246.567382812 123 246.567382812 116 c 0
 248.567382812 101 252.567382812 88 258.567382812 75 c 0
 264.567382812 62 272.567382812 51 285.567382812 44 c 0
 298.567382812 36 314.567382812 32 332.567382812 32 c 0
 344.567382812 32 357.567382812 35 371.567382812 40 c 0
 385.567382812 45 397.567382812 51 408.567382812 60 c 0
 428.567382812 77 442.567382812 89 449.567382812 98 c 0
 460.567382812 110 469.567382812 119 477.567382812 124 c 0
 482.567382812 127 488.567382812 129 492.567382812 129 c 0
 496.567382812 129 500.567382812 127 503.567382812 124 c 0
 508.567382812 119 511.567382812 112 511.567382812 105 c 0
 511.567382812 93 504.567382812 78 489.567382812 60 c 0
356.567382812 427 m 0
 345.567382812 417 334.567382812 405 324.567382812 391 c 0
 314.567382812 377 304.567382812 360 294.567382812 339 c 0
 283.567382812 318 274.567382812 295 267.567382812 270 c 2
 262.567382812 249 l 1
 282.567382812 255 l 2
 385.567382812 287 455.567382812 319 492.567382812 352 c 2
 498.567382812 357 l 1
 496.567382812 364 l 2
 489.567382812 396 480.567382812 419 467.567382812 433 c 0
 453.567382812 448 437.567382812 455 418.567382812 455 c 0
 398.567382812 455 377.567382812 446 356.567382812 427 c 0
EndSplineSet
Validated: 1
EndChar

